M48
; DRILL file {KiCad 8.0.1} date 2024-08-27T15:58:47+0530
; FORMAT={-:-/ absolute / metric / decimal}
; #@! TF.CreationDate,2024-08-27T15:58:47+05:30
; #@! TF.GenerationSoftware,Kicad,Pcbnew,8.0.1
; #@! TF.FileFunction,Plated,1,2,PTH
FMAT,2
METRIC
; #@! TA.AperFunction,Plated,PTH,ViaDrill
T1C0.300
; #@! TA.AperFunction,Plated,PTH,ComponentDrill
T2C0.300
; #@! TA.AperFunction,Plated,PTH,ComponentDrill
T3C0.600
%
G90
G05
T1
X28.67Y-31.555
X28.67Y-36.555
X28.67Y-41.555
X28.67Y-46.555
X28.67Y-51.555
X28.67Y-56.555
X28.67Y-61.555
X28.67Y-66.555
X28.67Y-71.555
X28.67Y-76.555
X28.67Y-81.555
X28.67Y-86.555
X28.67Y-91.555
X28.67Y-96.555
X28.67Y-101.555
X28.67Y-106.555
X28.67Y-111.555
X28.67Y-116.555
X28.67Y-121.555
X28.67Y-126.555
X28.67Y-131.555
X28.67Y-136.555
X28.67Y-141.555
X28.67Y-146.555
X28.67Y-151.555
X28.67Y-156.555
X28.67Y-161.555
X28.67Y-166.555
X28.67Y-171.555
X28.67Y-176.555
X28.67Y-181.555
X28.67Y-186.555
X28.67Y-191.555
X28.67Y-196.555
X28.67Y-201.555
X28.67Y-206.555
X28.67Y-211.555
X28.67Y-216.555
X28.67Y-221.555
X28.67Y-226.555
X28.67Y-231.555
X28.67Y-236.555
X28.67Y-241.555
X28.67Y-246.555
X28.67Y-251.555
X28.67Y-256.555
X28.67Y-261.555
X28.67Y-266.555
X33.67Y-26.555
X33.67Y-31.555
X33.67Y-36.555
X33.67Y-41.555
X33.67Y-46.555
X33.67Y-51.555
X33.67Y-56.555
X33.67Y-61.555
X33.67Y-66.555
X33.67Y-71.555
X33.67Y-76.555
X33.67Y-81.555
X33.67Y-86.555
X33.67Y-91.555
X33.67Y-96.555
X33.67Y-101.555
X33.67Y-106.555
X33.67Y-111.555
X33.67Y-271.555
X38.67Y-21.555
X38.67Y-26.555
X38.67Y-31.555
X38.67Y-36.555
X38.67Y-41.555
X38.67Y-46.555
X38.67Y-51.555
X38.67Y-56.555
X38.67Y-66.555
X38.67Y-71.555
X38.67Y-76.555
X38.67Y-86.555
X38.67Y-91.555
X38.67Y-96.555
X38.67Y-101.555
X38.67Y-106.555
X38.67Y-121.555
X38.67Y-136.555
X38.67Y-146.555
X38.67Y-151.555
X38.67Y-156.555
X38.67Y-166.555
X38.67Y-171.555
X38.67Y-181.555
X38.67Y-186.555
X38.67Y-191.555
X38.67Y-196.555
X38.67Y-201.555
X38.67Y-206.555
X38.67Y-211.555
X38.67Y-221.555
X38.67Y-226.555
X38.67Y-231.555
X38.67Y-236.555
X38.67Y-241.555
X38.67Y-246.555
X38.67Y-251.555
X38.67Y-256.555
X43.67Y-21.555
X43.67Y-26.555
X43.67Y-31.555
X43.67Y-36.555
X43.67Y-41.555
X43.67Y-46.555
X43.67Y-51.555
X43.67Y-61.555
X43.67Y-66.555
X43.67Y-71.555
X43.67Y-76.555
X43.67Y-81.555
X43.67Y-86.555
X43.67Y-91.555
X43.67Y-96.555
X43.67Y-101.555
X43.67Y-116.555
X43.67Y-121.555
X43.67Y-126.555
X43.67Y-171.555
X43.67Y-176.555
X43.67Y-181.555
X43.67Y-186.555
X43.67Y-191.555
X43.67Y-196.555
X43.67Y-201.555
X43.67Y-206.555
X43.67Y-211.555
X43.67Y-216.555
X43.67Y-226.555
X43.67Y-231.555
X43.67Y-236.555
X43.67Y-241.555
X43.67Y-246.555
X43.67Y-251.555
X43.67Y-256.555
X43.67Y-261.555
X43.67Y-276.555
X46.15Y-136.825
X46.2Y-139.975
X47.61Y-167.155
X47.61Y-171.665
X48.67Y-21.555
X48.67Y-26.555
X48.67Y-31.555
X48.67Y-36.555
X48.67Y-41.555
X48.67Y-46.555
X48.67Y-56.555
X48.67Y-61.555
X48.67Y-66.555
X48.67Y-71.555
X48.67Y-76.555
X48.67Y-81.555
X48.67Y-86.555
X48.67Y-91.555
X48.67Y-96.555
X48.67Y-111.555
X48.67Y-116.555
X48.67Y-121.555
X48.67Y-126.555
X48.67Y-136.555
X48.67Y-146.555
X48.67Y-176.555
X48.67Y-181.555
X48.67Y-186.555
X48.67Y-191.555
X48.67Y-196.555
X48.67Y-201.555
X48.67Y-206.555
X48.67Y-211.555
X48.67Y-216.555
X48.67Y-221.555
X48.67Y-226.555
X48.67Y-231.555
X48.67Y-236.555
X48.67Y-241.555
X48.67Y-246.555
X48.67Y-251.555
X48.67Y-256.555
X48.67Y-261.555
X48.67Y-266.555
X48.67Y-276.555
X50.45Y-155.365
X50.48Y-152.295
X53.67Y-21.555
X53.67Y-26.555
X53.67Y-31.555
X53.67Y-36.555
X53.67Y-41.555
X53.67Y-46.555
X53.67Y-56.555
X53.67Y-61.555
X53.67Y-66.555
X53.67Y-71.555
X53.67Y-81.555
X53.67Y-86.555
X53.67Y-91.555
X53.67Y-106.555
X53.67Y-111.555
X53.67Y-116.555
X53.67Y-126.555
X53.67Y-131.555
X53.67Y-136.555
X53.67Y-146.555
X53.67Y-151.555
X53.67Y-161.555
X53.67Y-166.555
X53.67Y-171.555
X53.67Y-176.555
X53.67Y-181.555
X53.67Y-186.555
X53.67Y-191.555
X53.67Y-196.555
X53.67Y-201.555
X53.67Y-206.555
X53.67Y-211.555
X53.67Y-216.555
X53.67Y-221.555
X53.67Y-226.555
X53.67Y-231.555
X53.67Y-236.555
X53.67Y-241.555
X53.67Y-246.555
X53.67Y-251.555
X53.67Y-256.555
X53.67Y-261.555
X53.67Y-266.555
X53.67Y-276.555
X55.11Y-155.195
X58.67Y-21.555
X58.67Y-26.555
X58.67Y-31.555
X58.67Y-36.555
X58.67Y-41.555
X58.67Y-51.555
X58.67Y-56.555
X58.67Y-61.555
X58.67Y-66.555
X58.67Y-81.555
X58.67Y-86.555
X58.67Y-101.555
X58.67Y-106.555
X58.67Y-111.555
X58.67Y-116.555
X58.67Y-126.555
X58.67Y-171.555
X58.67Y-176.555
X58.67Y-181.555
X58.67Y-186.555
X58.67Y-191.555
X58.67Y-196.555
X58.67Y-201.555
X58.67Y-206.555
X58.67Y-231.555
X58.67Y-236.555
X58.67Y-241.555
X58.67Y-246.555
X58.67Y-251.555
X58.67Y-256.555
X58.67Y-261.555
X58.67Y-266.555
X58.67Y-276.555
X61.64Y-136.945
X61.64Y-139.445
X63.55Y-167.155
X63.55Y-172.005
X63.67Y-21.555
X63.67Y-26.555
X63.67Y-31.555
X63.67Y-36.555
X63.67Y-41.555
X63.67Y-51.555
X63.67Y-56.555
X63.67Y-61.555
X63.67Y-71.555
X63.67Y-81.555
X63.67Y-96.555
X63.67Y-106.555
X63.67Y-111.555
X63.67Y-116.555
X63.67Y-146.555
X63.67Y-176.555
X63.67Y-181.555
X63.67Y-186.555
X63.67Y-191.555
X63.67Y-196.555
X63.67Y-201.555
X63.67Y-216.555
X63.67Y-226.555
X63.67Y-231.555
X63.67Y-236.555
X63.67Y-241.555
X63.67Y-246.555
X63.67Y-251.555
X63.67Y-256.555
X63.67Y-261.555
X63.67Y-266.555
X63.67Y-276.555
X66.25Y-152.425
X66.25Y-155.395
X68.67Y-21.555
X68.67Y-26.555
X68.67Y-31.555
X68.67Y-36.555
X68.67Y-41.555
X68.67Y-51.555
X68.67Y-56.555
X68.67Y-66.555
X68.67Y-76.555
X68.67Y-91.555
X68.67Y-96.555
X68.67Y-106.555
X68.67Y-111.555
X68.67Y-116.555
X68.67Y-126.555
X68.67Y-131.555
X68.67Y-136.555
X68.67Y-146.555
X68.67Y-151.555
X68.67Y-161.555
X68.67Y-166.555
X68.67Y-176.555
X68.67Y-181.555
X68.67Y-186.555
X68.67Y-191.555
X68.67Y-196.555
X68.67Y-211.555
X68.67Y-216.555
X68.67Y-226.555
X68.67Y-231.555
X68.67Y-236.555
X68.67Y-241.555
X68.67Y-246.555
X68.67Y-251.555
X68.67Y-256.555
X68.67Y-261.555
X68.67Y-266.555
X68.67Y-276.555
X71.38Y-224.705
X72.86Y-73.625
X73.28Y-155.235
X73.67Y-21.555
X73.67Y-26.555
X73.67Y-31.555
X73.67Y-36.555
X73.67Y-41.555
X73.67Y-51.555
X73.67Y-61.555
X73.67Y-71.555
X73.67Y-86.555
X73.67Y-91.555
X73.67Y-96.555
X73.67Y-106.555
X73.67Y-111.555
X73.67Y-116.555
X73.67Y-126.555
X73.67Y-176.555
X73.67Y-181.555
X73.67Y-186.555
X73.67Y-191.555
X73.67Y-196.555
X73.67Y-206.555
X73.67Y-211.555
X73.67Y-216.555
X73.67Y-226.555
X73.67Y-231.555
X73.67Y-236.555
X73.67Y-241.555
X73.67Y-246.555
X73.67Y-251.555
X73.67Y-256.555
X73.67Y-261.555
X73.67Y-266.555
X73.67Y-276.555
X75.51Y-228.745
X77.8Y-136.845
X77.8Y-139.535
X78.54Y-180.585
X78.67Y-21.555
X78.67Y-26.555
X78.67Y-31.555
X78.67Y-36.555
X78.67Y-41.555
X78.67Y-51.555
X78.67Y-56.555
X78.67Y-66.555
X78.67Y-81.555
X78.67Y-91.555
X78.67Y-96.555
X78.67Y-106.555
X78.67Y-111.555
X78.67Y-126.555
X78.67Y-186.555
X78.67Y-191.555
X78.67Y-201.555
X78.67Y-206.555
X78.67Y-211.555
X78.67Y-216.555
X78.67Y-221.555
X78.67Y-231.555
X78.67Y-236.555
X78.67Y-246.555
X78.67Y-251.555
X78.67Y-256.555
X78.67Y-261.555
X78.67Y-266.555
X78.67Y-276.555
X79.05Y-167.155
X79.05Y-171.175
X81.31Y-65.175
X82.28Y-152.725
X82.28Y-155.325
X83.67Y-21.555
X83.67Y-26.555
X83.67Y-31.555
X83.67Y-36.555
X83.67Y-41.555
X83.67Y-76.555
X83.67Y-81.555
X83.67Y-86.555
X83.67Y-91.555
X83.67Y-96.555
X83.67Y-106.555
X83.67Y-121.555
X83.67Y-126.555
X83.67Y-136.555
X83.67Y-146.555
X83.67Y-151.555
X83.67Y-161.555
X83.67Y-166.555
X83.67Y-171.555
X83.67Y-186.555
X83.67Y-191.555
X83.67Y-201.555
X83.67Y-206.555
X83.67Y-211.555
X83.67Y-216.555
X83.67Y-221.555
X83.67Y-231.555
X83.67Y-236.555
X83.67Y-266.555
X83.67Y-276.555
X84.41Y-61.855
X84.68Y-58.885
X85.76Y-46.825
X87.51Y-194.165
X88.67Y-21.555
X88.67Y-26.555
X88.67Y-56.555
X88.67Y-61.555
X88.67Y-71.555
X88.67Y-76.555
X88.67Y-81.555
X88.67Y-86.555
X88.67Y-91.555
X88.67Y-101.555
X88.67Y-116.555
X88.67Y-121.555
X88.67Y-126.555
X88.67Y-136.555
X88.67Y-171.555
X88.67Y-176.555
X88.67Y-191.555
X88.67Y-201.555
X88.67Y-206.555
X88.67Y-211.555
X88.67Y-216.555
X88.67Y-226.555
X88.67Y-231.555
X88.67Y-236.555
X88.67Y-246.555
X88.67Y-251.555
X88.67Y-256.555
X88.67Y-261.555
X88.67Y-266.555
X88.67Y-276.555
X89.25Y-155.045
X93.67Y-51.555
X93.67Y-61.555
X93.67Y-76.555
X93.67Y-81.555
X93.67Y-86.555
X93.67Y-111.555
X93.67Y-116.555
X93.67Y-121.555
X93.67Y-171.555
X93.67Y-176.555
X93.67Y-181.555
X93.67Y-196.555
X93.67Y-206.555
X93.67Y-211.555
X93.67Y-221.555
X93.67Y-226.555
X93.67Y-231.555
X93.67Y-236.555
X93.67Y-246.555
X93.67Y-251.555
X93.67Y-256.555
X93.67Y-261.555
X93.67Y-266.555
X93.67Y-276.555
X93.78Y-139.805
X93.79Y-136.745
X95.29Y-167.145
X95.29Y-171.315
X97.44Y-27.565
X97.87Y-41.995
X98.56Y-152.675
X98.56Y-155.245
X98.67Y-31.555
X98.67Y-36.555
X98.67Y-51.555
X98.67Y-81.555
X98.67Y-106.555
X98.67Y-111.555
X98.67Y-116.555
X98.67Y-126.555
X98.67Y-136.555
X98.67Y-146.555
X98.67Y-161.555
X98.67Y-166.555
X98.67Y-171.555
X98.67Y-176.555
X98.67Y-181.555
X98.67Y-186.555
X98.67Y-201.555
X98.67Y-211.555
X98.67Y-221.555
X98.67Y-226.555
X98.67Y-231.555
X98.67Y-246.555
X98.67Y-251.555
X98.67Y-256.555
X98.67Y-261.555
X98.67Y-266.555
X98.67Y-276.555
X100.76Y-46.615
X102.04Y-46.345
X103.15Y-57.475
X103.67Y-31.555
X103.67Y-61.555
X103.67Y-101.555
X103.67Y-106.555
X103.67Y-111.555
X103.67Y-121.555
X103.67Y-126.555
X103.67Y-136.555
X103.67Y-151.555
X103.67Y-171.555
X103.67Y-176.555
X103.67Y-181.555
X103.67Y-186.555
X103.67Y-191.555
X103.67Y-206.555
X103.67Y-221.555
X103.67Y-226.555
X103.67Y-236.555
X103.67Y-246.555
X103.67Y-251.555
X103.67Y-256.555
X103.67Y-261.555
X103.67Y-266.555
X103.67Y-276.555
X103.68Y-54.39
X106.01Y-155.235
X106.38Y-58.665
X106.6Y-46.55
X106.82Y-42.55
X107.62Y-54.27
X108.67Y-31.555
X108.67Y-96.555
X108.67Y-101.555
X108.67Y-106.555
X108.67Y-116.555
X108.67Y-121.555
X108.67Y-171.555
X108.67Y-176.555
X108.67Y-181.555
X108.67Y-186.555
X108.67Y-191.555
X108.67Y-196.555
X108.67Y-211.555
X108.67Y-231.555
X108.67Y-236.555
X108.67Y-246.555
X108.67Y-251.555
X108.67Y-256.555
X108.67Y-261.555
X108.67Y-266.555
X108.67Y-276.555
X108.79Y-36.815
X109.14Y-41.17
X109.18Y-55.36
X109.8Y-139.395
X109.81Y-137.005
X111.21Y-167.145
X111.23Y-171.615
X112.94Y-27.065
X113.46Y-31.685
X113.63Y-26.095
X113.67Y-36.555
X113.67Y-46.555
X113.67Y-56.555
X113.67Y-66.555
X113.67Y-91.555
X113.67Y-96.555
X113.67Y-101.555
X113.67Y-111.555
X113.67Y-116.555
X113.67Y-121.555
X113.67Y-126.555
X113.67Y-136.555
X113.67Y-146.555
X113.67Y-161.555
X113.67Y-166.555
X113.67Y-171.555
X113.67Y-181.555
X113.67Y-186.555
X113.67Y-191.555
X113.67Y-196.555
X113.67Y-201.555
X113.67Y-216.555
X113.67Y-221.555
X113.67Y-226.555
X113.67Y-236.555
X113.67Y-246.555
X113.67Y-251.555
X113.67Y-256.555
X113.67Y-261.555
X113.67Y-266.555
X113.67Y-276.555
X113.95Y-79.935
X113.95Y-85.675
X114.21Y-27.065
X114.49Y-152.095
X114.49Y-155.095
X115.73Y-87.195
X115.75Y-77.505
X115.76Y-30.555
X115.99Y-25.385
X116.94Y-25.385
X118.67Y-31.555
X118.67Y-86.555
X118.67Y-91.555
X118.67Y-96.555
X118.67Y-106.555
X118.67Y-111.555
X118.67Y-116.555
X118.67Y-121.555
X118.67Y-126.555
X118.67Y-131.555
X118.67Y-136.555
X118.67Y-146.555
X118.67Y-151.555
X118.67Y-166.555
X118.67Y-171.555
X118.67Y-176.555
X118.67Y-186.555
X118.67Y-191.555
X118.67Y-196.555
X118.67Y-201.555
X118.67Y-206.555
X118.67Y-221.555
X118.67Y-226.555
X118.67Y-231.555
X118.67Y-236.555
X118.67Y-246.555
X118.67Y-251.555
X118.67Y-256.555
X118.67Y-261.555
X118.67Y-266.555
X118.67Y-276.555
X118.73Y-29.615
X119.82Y-155.435
X120.06Y-43.405
X120.09Y-29.615
X120.1Y-41.825
X120.12Y-61.975
X120.24Y-60.255
X120.96Y-50.775
X120.99Y-29.665
X121.8Y-44.505
X122.25Y-105.775
X122.36Y-128.575
X122.62Y-170.805
X122.71Y-179.275
X122.76Y-182.405
X122.88Y-153.975
X123.66Y-45.415
X123.67Y-21.555
X123.67Y-26.555
X123.67Y-101.555
X123.67Y-106.555
X123.67Y-111.555
X123.67Y-116.555
X123.67Y-191.555
X123.67Y-196.555
X123.67Y-201.555
X123.67Y-206.555
X123.67Y-211.555
X123.67Y-226.555
X123.67Y-231.555
X123.67Y-236.555
X123.67Y-246.555
X123.67Y-251.555
X123.67Y-256.555
X123.67Y-261.555
X123.67Y-266.555
X123.67Y-276.555
X123.99Y-120.405
X124.14Y-94.035
X124.79Y-49.695
X125.02Y-128.605
X125.4Y-171.995
X125.58Y-154.425
X126.58Y-173.785
X126.78Y-122.095
X127.47Y-125.675
X127.75Y-176.175
X128.19Y-130.605
X128.33Y-47.945
X128.67Y-21.555
X128.67Y-26.555
X128.67Y-36.555
X128.67Y-41.555
X128.67Y-46.555
X128.67Y-76.555
X128.67Y-81.555
X128.67Y-86.555
X128.67Y-96.555
X128.67Y-101.555
X128.67Y-106.555
X128.67Y-111.555
X128.67Y-116.555
X128.67Y-136.555
X128.67Y-161.555
X128.67Y-181.555
X128.67Y-186.555
X128.67Y-196.555
X128.67Y-201.555
X128.67Y-206.555
X128.67Y-211.555
X128.67Y-216.555
X128.67Y-261.555
X128.67Y-266.555
X128.67Y-276.555
X128.98Y-61.975
X129.23Y-173.535
X129.44Y-60.295
X130.0Y-119.755
X131.7Y-118.915
X132.67Y-128.155
X132.87Y-117.475
X133.11Y-171.105
X133.18Y-176.445
X133.38Y-172.625
X133.67Y-21.555
X133.67Y-26.555
X133.67Y-31.555
X133.67Y-41.555
X133.67Y-46.555
X133.67Y-161.555
X133.67Y-181.555
X133.67Y-186.555
X133.67Y-191.555
X133.67Y-201.555
X133.67Y-206.555
X133.67Y-211.555
X133.67Y-216.555
X133.67Y-221.555
X133.67Y-231.555
X133.67Y-236.555
X133.67Y-246.555
X133.67Y-251.555
X133.67Y-256.555
X133.67Y-261.555
X133.67Y-266.555
X133.67Y-276.555
X133.89Y-173.955
X134.34Y-240.105
X134.67Y-130.045
X135.13Y-176.355
X135.13Y-178.985
X135.34Y-181.335
X136.09Y-122.735
X136.13Y-131.695
X137.45Y-163.195
X137.51Y-124.955
X138.04Y-122.635
X138.67Y-21.555
X138.67Y-26.555
X138.67Y-41.555
X138.67Y-106.555
X138.67Y-176.555
X138.67Y-186.555
X138.67Y-201.555
X138.67Y-236.555
X138.67Y-266.555
X138.67Y-276.555
X139.52Y-124.755
X139.75Y-240.175
X140.09Y-126.005
X140.94Y-127.005
X141.37Y-128.295
X141.74Y-173.465
X143.25Y-51.945
X143.32Y-168.785
X143.49Y-83.985
X143.49Y-115.975
X143.51Y-67.985
X143.6Y-260.005
X143.65Y-244.005
X143.67Y-21.555
X143.67Y-26.555
X143.67Y-41.555
X143.67Y-56.555
X143.67Y-71.555
X143.67Y-76.555
X143.67Y-86.555
X143.67Y-91.555
X143.67Y-106.555
X143.67Y-121.555
X143.67Y-166.555
X143.67Y-186.555
X143.67Y-201.555
X143.67Y-216.555
X143.67Y-231.555
X143.67Y-236.555
X143.67Y-246.555
X143.67Y-251.555
X143.67Y-266.555
X143.67Y-276.555
X143.69Y-99.985
X143.82Y-195.975
X143.84Y-227.985
X143.91Y-212.015
X145.83Y-92.545
X145.85Y-101.765
X145.85Y-105.615
X145.9Y-89.995
X145.9Y-98.045
X145.91Y-99.985
X145.91Y-108.605
X145.93Y-86.595
X145.93Y-96.135
X145.97Y-83.985
X146.02Y-115.995
X146.02Y-196.005
X146.06Y-241.395
X146.07Y-244.005
X146.1Y-239.895
X146.13Y-51.945
X146.13Y-67.985
X146.16Y-227.985
X146.2Y-29.395
X146.3Y-212.015
X147.45Y-28.81
X147.58Y-255.255
X147.58Y-256.055
X147.58Y-256.795
X147.61Y-263.305
X147.61Y-264.015
X147.62Y-254.385
X147.62Y-267.265
X147.65Y-264.825
X147.65Y-265.795
X148.67Y-21.555
X148.67Y-26.555
X148.67Y-121.555
X148.67Y-276.555
X149.02Y-67.985
X149.03Y-97.525
X149.04Y-83.095
X149.06Y-51.945
X149.07Y-39.175
X149.09Y-115.265
X149.1Y-91.225
X149.1Y-94.325
X149.19Y-87.505
X149.31Y-34.65
X149.44Y-241.345
X149.5Y-239.565
X149.68Y-260.005
X150.09Y-175.955
X150.3Y-34.65
X150.94Y-70.43
X151.24Y-34.65
X151.34Y-51.945
X151.39Y-67.985
X151.43Y-83.095
X151.51Y-97.535
X151.59Y-171.455
X151.61Y-178.985
X151.63Y-181.205
X151.66Y-115.265
X151.95Y-41.905
X152.8Y-175.935
X153.67Y-21.555
X153.67Y-76.555
X153.67Y-91.555
X153.67Y-106.555
X153.67Y-171.555
X153.67Y-186.555
X153.67Y-201.555
X153.67Y-251.555
X153.67Y-266.555
X153.67Y-276.555
X153.96Y-42.125
X154.43Y-25.665
X154.64Y-28.773
X155.86Y-28.435
X156.82Y-28.625
X158.67Y-36.555
X158.67Y-41.555
X158.67Y-46.555
X158.67Y-56.555
X158.67Y-61.555
X158.67Y-66.555
X158.67Y-71.555
X158.67Y-76.555
X158.67Y-81.555
X158.67Y-86.555
X158.67Y-91.555
X158.67Y-96.555
X158.67Y-101.555
X158.67Y-106.555
X158.67Y-111.555
X158.67Y-171.555
X158.67Y-186.555
X158.67Y-201.555
X158.67Y-216.555
X158.67Y-231.555
X158.67Y-236.555
X158.67Y-251.555
X158.67Y-276.555
X158.89Y-259.995
X159.2Y-211.955
X159.23Y-243.965
X159.27Y-227.985
X159.39Y-195.975
X159.56Y-34.325
X161.29Y-52.007
X161.47Y-243.965
X161.53Y-246.755
X161.53Y-251.585
X161.6Y-255.88
X161.6Y-260.025
X161.62Y-256.78
X161.67Y-185.345
X161.69Y-227.985
X161.71Y-195.975
X161.77Y-211.955
X161.78Y-175.015
X161.78Y-181.745
X161.79Y-199.75
X161.79Y-201.04
X161.79Y-202.33
X161.79Y-207.83
X161.79Y-208.87
X163.12Y-116.015
X163.64Y-39.885
X163.64Y-40.605
X163.65Y-38.455
X163.65Y-39.205
X163.65Y-41.265
X163.66Y-37.705
X163.67Y-21.555
X163.67Y-26.555
X163.67Y-46.555
X163.67Y-56.555
X163.67Y-61.555
X163.67Y-66.555
X163.67Y-71.555
X163.67Y-76.555
X163.67Y-81.555
X163.67Y-86.555
X163.67Y-91.555
X163.67Y-96.555
X163.67Y-101.555
X163.67Y-106.555
X163.67Y-111.555
X163.67Y-121.555
X163.67Y-276.555
X163.68Y-100.015
X163.78Y-84.025
X163.82Y-68.015
X164.71Y-260.025
X164.77Y-241.455
X164.82Y-194.335
X164.83Y-225.305
X164.85Y-253.795
X164.92Y-245.455
X164.95Y-209.815
X165.59Y-39.285
X165.92Y-84.025
X165.98Y-37.375
X165.98Y-41.225
X166.16Y-116.015
X166.18Y-100.025
X166.33Y-68.035
X166.44Y-52.015
X167.05Y-194.335
X167.21Y-34.325
X167.37Y-259.995
X167.4Y-37.345
X167.91Y-241.905
X167.95Y-225.325
X168.28Y-209.835
X168.67Y-21.555
X168.67Y-171.555
X168.67Y-191.555
X168.67Y-201.555
X168.67Y-206.555
X168.67Y-221.555
X168.67Y-236.555
X168.67Y-251.555
X168.67Y-256.555
X168.67Y-276.555
X173.67Y-41.555
X173.67Y-46.555
X173.67Y-56.555
X173.67Y-61.555
X173.67Y-76.555
X173.67Y-91.555
X173.67Y-96.555
X173.67Y-106.555
X173.67Y-111.555
X173.67Y-121.555
X173.67Y-166.555
X173.67Y-186.555
X173.67Y-191.555
X173.67Y-201.555
X173.67Y-206.555
X173.67Y-216.555
X173.67Y-221.555
X173.67Y-236.555
X173.67Y-251.555
X173.67Y-256.555
X173.67Y-266.555
X173.67Y-276.555
X174.59Y-122.705
X175.5Y-132.305
X177.04Y-181.505
X178.22Y-175.945
X178.67Y-21.555
X178.67Y-51.555
X178.67Y-56.555
X178.67Y-61.555
X178.67Y-66.555
X178.67Y-71.555
X178.67Y-76.555
X178.67Y-81.555
X178.67Y-86.555
X178.67Y-91.555
X178.67Y-96.555
X178.67Y-101.555
X178.67Y-106.555
X178.67Y-111.555
X178.67Y-116.555
X178.67Y-121.555
X178.67Y-171.555
X178.67Y-181.555
X178.67Y-186.555
X178.67Y-191.555
X178.67Y-201.555
X178.67Y-206.555
X178.67Y-216.555
X178.67Y-221.555
X178.67Y-246.555
X178.67Y-251.555
X178.67Y-256.555
X178.67Y-261.555
X178.67Y-266.555
X178.67Y-276.555
X179.89Y-177.105
X180.885Y-35.697
X180.911Y-36.514
X180.911Y-37.331
X180.936Y-38.148
X180.962Y-38.991
X180.962Y-39.68
X182.9Y-144.045
X183.03Y-148.135
X183.03Y-151.155
X183.2Y-154.905
X183.67Y-51.555
X183.67Y-56.555
X183.67Y-61.555
X183.67Y-66.555
X183.67Y-71.555
X183.67Y-76.555
X183.67Y-81.555
X183.67Y-86.555
X183.67Y-91.555
X183.67Y-96.555
X183.67Y-101.555
X183.67Y-106.555
X183.67Y-111.555
X183.67Y-116.555
X183.67Y-121.555
X183.67Y-171.555
X183.67Y-181.555
X183.67Y-186.555
X183.67Y-196.555
X183.67Y-201.555
X183.67Y-206.555
X183.67Y-211.555
X183.67Y-216.555
X183.67Y-231.555
X183.67Y-236.555
X183.67Y-241.555
X183.67Y-246.555
X183.67Y-251.555
X183.67Y-256.555
X183.67Y-261.555
X183.67Y-266.555
X183.67Y-276.555
X184.44Y-137.545
X185.41Y-137.575
X186.24Y-158.64
X186.71Y-143.215
X188.02Y-136.715
X188.02Y-139.135
X188.67Y-21.555
X188.67Y-51.555
X188.67Y-56.555
X188.67Y-61.555
X188.67Y-66.555
X188.67Y-71.555
X188.67Y-76.555
X188.67Y-81.555
X188.67Y-86.555
X188.67Y-91.555
X188.67Y-96.555
X188.67Y-101.555
X188.67Y-106.555
X188.67Y-111.555
X188.67Y-116.555
X188.67Y-121.555
X188.67Y-126.555
X188.67Y-181.555
X188.67Y-191.555
X188.67Y-196.555
X188.67Y-201.555
X188.67Y-206.555
X188.67Y-211.555
X188.67Y-226.555
X188.67Y-231.555
X188.67Y-236.555
X188.67Y-241.555
X188.67Y-246.555
X188.67Y-251.555
X188.67Y-256.555
X188.67Y-261.555
X188.67Y-266.555
X188.67Y-276.555
X190.52Y-161.93
X190.87Y-154.225
X190.87Y-158.565
X190.87Y-160.995
X190.89Y-151.165
X191.412Y-27.192
X193.67Y-21.555
X193.67Y-26.555
X193.67Y-31.555
X193.67Y-51.555
X193.67Y-56.555
X193.67Y-61.555
X193.67Y-66.555
X193.67Y-71.555
X193.67Y-76.555
X193.67Y-81.555
X193.67Y-86.555
X193.67Y-91.555
X193.67Y-96.555
X193.67Y-101.555
X193.67Y-106.555
X193.67Y-111.555
X193.67Y-116.555
X193.67Y-121.555
X193.67Y-126.555
X193.67Y-136.555
X193.67Y-146.555
X193.67Y-161.555
X193.67Y-166.555
X193.67Y-171.555
X193.67Y-186.555
X193.67Y-191.555
X193.67Y-196.555
X193.67Y-201.555
X193.67Y-206.555
X193.67Y-221.555
X193.67Y-226.555
X193.67Y-231.555
X193.67Y-236.555
X193.67Y-241.555
X193.67Y-246.555
X193.67Y-251.555
X193.67Y-256.555
X193.67Y-261.555
X193.67Y-266.555
X193.67Y-276.555
X194.72Y-151.325
X196.848Y-30.669
X198.12Y-151.355
X198.67Y-21.555
X198.67Y-26.555
X198.67Y-51.555
X198.67Y-56.555
X198.67Y-61.555
X198.67Y-71.555
X198.67Y-76.555
X198.67Y-81.555
X198.67Y-86.555
X198.67Y-91.555
X198.67Y-96.555
X198.67Y-101.555
X198.67Y-106.555
X198.67Y-111.555
X198.67Y-116.555
X198.67Y-121.555
X198.67Y-126.555
X198.67Y-131.555
X198.67Y-136.555
X198.67Y-166.555
X198.67Y-171.555
X198.67Y-181.555
X198.67Y-186.555
X198.67Y-191.555
X198.67Y-196.555
X198.67Y-201.555
X198.67Y-216.555
X198.67Y-221.555
X198.67Y-226.555
X198.67Y-231.555
X198.67Y-236.555
X198.67Y-241.555
X198.67Y-246.555
X198.67Y-251.555
X198.67Y-256.555
X198.67Y-261.555
X198.67Y-266.555
X198.67Y-276.555
X203.67Y-21.555
X203.67Y-41.555
X203.67Y-51.555
X203.67Y-56.555
X203.67Y-61.555
X203.67Y-66.555
X203.67Y-81.555
X203.67Y-91.555
X203.67Y-96.555
X203.67Y-101.555
X203.67Y-106.555
X203.67Y-111.555
X203.67Y-116.555
X203.67Y-121.555
X203.67Y-126.555
X203.67Y-181.555
X203.67Y-186.555
X203.67Y-191.555
X203.67Y-196.555
X203.67Y-216.555
X203.67Y-231.555
X203.67Y-236.555
X203.67Y-241.555
X203.67Y-246.555
X203.67Y-251.555
X203.67Y-256.555
X203.67Y-261.555
X203.67Y-266.555
X203.67Y-276.555
X204.04Y-136.635
X204.04Y-138.965
X206.74Y-158.505
X206.74Y-161.225
X206.8Y-154.145
X206.83Y-151.155
X207.71Y-82.13
X208.67Y-21.555
X208.67Y-41.555
X208.67Y-51.555
X208.67Y-56.555
X208.67Y-61.555
X208.67Y-71.555
X208.67Y-76.555
X208.67Y-96.555
X208.67Y-101.555
X208.67Y-106.555
X208.67Y-111.555
X208.67Y-116.555
X208.67Y-121.555
X208.67Y-126.555
X208.67Y-136.555
X208.67Y-146.555
X208.67Y-151.555
X208.67Y-161.555
X208.67Y-166.555
X208.67Y-171.555
X208.67Y-181.555
X208.67Y-186.555
X208.67Y-191.555
X208.67Y-216.555
X208.67Y-226.555
X208.67Y-236.555
X208.67Y-241.555
X208.67Y-246.555
X208.67Y-251.555
X208.67Y-256.555
X208.67Y-261.555
X208.67Y-266.555
X208.67Y-276.555
X210.64Y-84.94
X211.99Y-221.825
X213.67Y-21.555
X213.67Y-36.555
X213.67Y-41.555
X213.67Y-51.555
X213.67Y-56.555
X213.67Y-66.555
X213.67Y-71.555
X213.67Y-76.555
X213.67Y-81.555
X213.67Y-101.555
X213.67Y-106.555
X213.67Y-111.555
X213.67Y-116.555
X213.67Y-121.555
X213.67Y-126.555
X213.67Y-131.555
X213.67Y-136.555
X213.67Y-146.555
X213.67Y-151.555
X213.67Y-161.555
X213.67Y-166.555
X213.67Y-171.555
X213.67Y-181.555
X213.67Y-186.555
X213.67Y-211.555
X213.67Y-221.555
X213.67Y-231.555
X213.67Y-241.555
X213.67Y-246.555
X213.67Y-251.555
X213.67Y-256.555
X213.67Y-261.555
X213.67Y-266.555
X213.67Y-276.555
X215.51Y-89.39
X218.67Y-21.555
X218.67Y-31.555
X218.67Y-36.555
X218.67Y-41.555
X218.67Y-51.555
X218.67Y-61.555
X218.67Y-66.555
X218.67Y-71.555
X218.67Y-76.555
X218.67Y-81.555
X218.67Y-86.555
X218.67Y-106.555
X218.67Y-111.555
X218.67Y-116.555
X218.67Y-121.555
X218.67Y-126.555
X218.67Y-171.555
X218.67Y-181.555
X218.67Y-196.555
X218.67Y-206.555
X218.67Y-216.555
X218.67Y-221.555
X218.67Y-236.555
X218.67Y-246.555
X218.67Y-251.555
X218.67Y-256.555
X218.67Y-261.555
X218.67Y-266.555
X218.67Y-276.555
X219.58Y-104.815
X220.01Y-136.915
X220.01Y-138.935
X222.63Y-151.145
X222.65Y-154.165
X222.65Y-158.475
X222.65Y-160.785
X223.67Y-21.555
X223.67Y-31.555
X223.67Y-36.555
X223.67Y-41.555
X223.67Y-56.555
X223.67Y-61.555
X223.67Y-66.555
X223.67Y-71.555
X223.67Y-76.555
X223.67Y-81.555
X223.67Y-86.555
X223.67Y-91.555
X223.67Y-106.555
X223.67Y-111.555
X223.67Y-116.555
X223.67Y-121.555
X223.67Y-126.555
X223.67Y-146.555
X223.67Y-166.555
X223.67Y-171.555
X223.67Y-176.555
X223.67Y-191.555
X223.67Y-201.555
X223.67Y-211.555
X223.67Y-216.555
X223.67Y-221.555
X223.67Y-226.555
X223.67Y-246.555
X223.67Y-251.555
X223.67Y-256.555
X223.67Y-261.555
X223.67Y-276.555
X226.2Y-103.815
X227.91Y-184.445
X228.67Y-21.555
X228.67Y-26.555
X228.67Y-36.555
X228.67Y-41.555
X228.67Y-61.555
X228.67Y-66.555
X228.67Y-71.555
X228.67Y-76.555
X228.67Y-81.555
X228.67Y-86.555
X228.67Y-91.555
X228.67Y-106.555
X228.67Y-111.555
X228.67Y-116.555
X228.67Y-121.555
X228.67Y-126.555
X228.67Y-131.555
X228.67Y-136.555
X228.67Y-146.555
X228.67Y-151.555
X228.67Y-161.555
X228.67Y-166.555
X228.67Y-171.555
X228.67Y-206.555
X228.67Y-211.555
X228.67Y-216.555
X228.67Y-221.555
X228.67Y-226.555
X228.67Y-231.555
X228.67Y-251.555
X228.67Y-256.555
X228.67Y-261.555
X228.67Y-266.555
X228.67Y-276.555
X230.67Y-238.345
X233.67Y-21.555
X233.67Y-26.555
X233.67Y-31.555
X233.67Y-36.555
X233.67Y-41.555
X233.67Y-56.555
X233.67Y-66.555
X233.67Y-71.555
X233.67Y-76.555
X233.67Y-81.555
X233.67Y-86.555
X233.67Y-101.555
X233.67Y-106.555
X233.67Y-111.555
X233.67Y-116.555
X233.67Y-121.555
X233.67Y-126.555
X233.67Y-136.555
X233.67Y-176.555
X233.67Y-181.555
X233.67Y-186.555
X233.67Y-191.555
X233.67Y-206.555
X233.67Y-211.555
X233.67Y-216.555
X233.67Y-221.555
X233.67Y-226.555
X233.67Y-236.555
X233.67Y-246.555
X233.67Y-251.555
X233.67Y-256.555
X233.67Y-261.555
X233.67Y-266.555
X233.67Y-276.555
X235.37Y-234.045
X236.01Y-136.635
X236.01Y-138.945
X237.06Y-239.125
X237.99Y-151.715
X238.0Y-154.215
X238.0Y-160.645
X238.01Y-158.405
X238.67Y-21.555
X238.67Y-26.555
X238.67Y-31.555
X238.67Y-36.555
X238.67Y-41.555
X238.67Y-51.555
X238.67Y-61.555
X238.67Y-71.555
X238.67Y-76.555
X238.67Y-81.555
X238.67Y-101.555
X238.67Y-106.555
X238.67Y-111.555
X238.67Y-116.555
X238.67Y-121.555
X238.67Y-126.555
X238.67Y-171.555
X238.67Y-176.555
X238.67Y-181.555
X238.67Y-186.555
X238.67Y-196.555
X238.67Y-211.555
X238.67Y-216.555
X238.67Y-221.555
X238.67Y-231.555
X238.67Y-241.555
X238.67Y-246.555
X238.67Y-251.555
X238.67Y-256.555
X238.67Y-261.555
X238.67Y-266.555
X238.67Y-276.555
X239.75Y-62.815
X240.33Y-62.355
X240.85Y-61.795
X241.1Y-228.695
X242.28Y-233.845
X242.48Y-136.025
X243.29Y-151.705
X243.67Y-21.555
X243.67Y-26.555
X243.67Y-31.555
X243.67Y-36.555
X243.67Y-41.555
X243.67Y-51.555
X243.67Y-56.555
X243.67Y-66.555
X243.67Y-76.555
X243.67Y-96.555
X243.67Y-101.555
X243.67Y-106.555
X243.67Y-111.555
X243.67Y-116.555
X243.67Y-121.555
X243.67Y-126.555
X243.67Y-136.555
X243.67Y-146.555
X243.67Y-191.555
X243.67Y-196.555
X243.67Y-201.555
X243.67Y-216.555
X243.67Y-221.555
X243.67Y-226.555
X243.67Y-236.555
X243.67Y-241.555
X243.67Y-246.555
X243.67Y-251.555
X243.67Y-256.555
X243.67Y-261.555
X243.67Y-266.555
X243.67Y-276.555
X246.69Y-151.675
X246.85Y-136.055
X248.01Y-228.435
X248.67Y-21.555
X248.67Y-26.555
X248.67Y-31.555
X248.67Y-36.555
X248.67Y-41.555
X248.67Y-51.555
X248.67Y-56.555
X248.67Y-61.555
X248.67Y-91.555
X248.67Y-96.555
X248.67Y-101.555
X248.67Y-106.555
X248.67Y-111.555
X248.67Y-116.555
X248.67Y-121.555
X248.67Y-126.555
X248.67Y-136.555
X248.67Y-206.555
X248.67Y-231.555
X248.67Y-236.555
X248.67Y-241.555
X248.67Y-246.555
X248.67Y-251.555
X248.67Y-256.555
X248.67Y-261.555
X248.67Y-266.555
X248.67Y-276.555
X252.02Y-136.755
X252.03Y-139.195
X253.67Y-21.555
X253.67Y-26.555
X253.67Y-31.555
X253.67Y-36.555
X253.67Y-41.555
X253.67Y-51.555
X253.67Y-56.555
X253.67Y-61.555
X253.67Y-66.555
X253.67Y-86.555
X253.67Y-91.555
X253.67Y-96.555
X253.67Y-101.555
X253.67Y-106.555
X253.67Y-111.555
X253.67Y-116.555
X253.67Y-121.555
X253.67Y-126.555
X253.67Y-171.555
X253.67Y-176.555
X253.67Y-181.555
X253.67Y-186.555
X253.67Y-191.555
X253.67Y-196.555
X253.67Y-201.555
X253.67Y-206.555
X253.67Y-211.555
X253.67Y-216.555
X253.67Y-226.555
X253.67Y-231.555
X253.67Y-236.555
X253.67Y-241.555
X253.67Y-246.555
X253.67Y-251.555
X253.67Y-256.555
X253.67Y-261.555
X253.67Y-266.555
X253.67Y-276.555
X254.56Y-151.135
X254.58Y-154.315
X254.6Y-158.415
X254.6Y-160.775
X258.67Y-21.555
X258.67Y-26.555
X258.67Y-31.555
X258.67Y-36.555
X258.67Y-41.555
X258.67Y-51.555
X258.67Y-56.555
X258.67Y-61.555
X258.67Y-66.555
X258.67Y-71.555
X258.67Y-76.555
X258.67Y-81.555
X258.67Y-86.555
X258.67Y-91.555
X258.67Y-96.555
X258.67Y-101.555
X258.67Y-106.555
X258.67Y-111.555
X258.67Y-116.555
X258.67Y-121.555
X258.67Y-126.555
X258.67Y-136.555
X258.67Y-146.555
X258.67Y-151.555
X258.67Y-161.555
X258.67Y-166.555
X258.67Y-171.555
X258.67Y-176.555
X258.67Y-181.555
X258.67Y-186.555
X258.67Y-191.555
X258.67Y-196.555
X258.67Y-201.555
X258.67Y-206.555
X258.67Y-211.555
X258.67Y-216.555
X258.67Y-221.555
X258.67Y-226.555
X258.67Y-231.555
X258.67Y-236.555
X258.67Y-241.555
X258.67Y-246.555
X258.67Y-251.555
X258.67Y-256.555
X258.67Y-261.555
X258.67Y-266.555
X258.67Y-276.555
X260.13Y-151.585
X262.78Y-151.585
X263.67Y-21.555
X263.67Y-26.555
X263.67Y-31.555
X263.67Y-36.555
X263.67Y-41.555
X263.67Y-51.555
X263.67Y-56.555
X263.67Y-61.555
X263.67Y-66.555
X263.67Y-71.555
X263.67Y-81.555
X263.67Y-86.555
X263.67Y-91.555
X263.67Y-96.555
X263.67Y-101.555
X263.67Y-106.555
X263.67Y-111.555
X263.67Y-116.555
X263.67Y-121.555
X263.67Y-126.555
X263.67Y-136.555
X263.67Y-156.555
X263.67Y-171.555
X263.67Y-181.555
X263.67Y-186.555
X263.67Y-191.555
X263.67Y-196.555
X263.67Y-201.555
X263.67Y-206.555
X263.67Y-211.555
X263.67Y-216.555
X263.67Y-221.555
X263.67Y-226.555
X263.67Y-231.555
X263.67Y-236.555
X263.67Y-241.555
X263.67Y-246.555
X263.67Y-251.555
X263.67Y-256.555
X263.67Y-261.555
X263.67Y-266.555
X263.67Y-276.555
X266.98Y-153.51
X266.98Y-154.31
X268.67Y-21.555
X268.67Y-26.555
X268.67Y-31.555
X268.67Y-36.555
X268.67Y-41.555
X268.67Y-56.555
X268.67Y-61.555
X268.67Y-66.555
X268.67Y-71.555
X268.67Y-76.555
X268.67Y-86.555
X268.67Y-91.555
X268.67Y-96.555
X268.67Y-101.555
X268.67Y-106.555
X268.67Y-111.555
X268.67Y-116.555
X268.67Y-121.555
X268.67Y-126.555
X268.67Y-176.555
X268.67Y-181.555
X268.67Y-186.555
X268.67Y-191.555
X268.67Y-196.555
X268.67Y-201.555
X268.67Y-206.555
X268.67Y-211.555
X268.67Y-221.555
X268.67Y-226.555
X268.67Y-231.555
X268.67Y-236.555
X268.67Y-241.555
X268.67Y-246.555
X268.67Y-251.555
X268.67Y-256.555
X268.67Y-261.555
X268.67Y-276.555
X269.62Y-144.275
X270.23Y-139.865
X270.43Y-145.405
X270.89Y-140.525
X271.22Y-144.275
X271.66Y-141.295
X271.77Y-133.885
X272.26Y-141.855
X272.51Y-138.585
X273.46Y-148.475
X273.46Y-149.265
X273.46Y-149.975
X273.46Y-151.055
X273.51Y-152.145
X273.51Y-153.245
X273.67Y-26.555
X273.67Y-31.555
X273.67Y-36.555
X273.67Y-41.555
X273.67Y-46.555
X273.67Y-61.555
X273.67Y-66.555
X273.67Y-71.555
X273.67Y-76.555
X273.67Y-81.555
X273.67Y-91.555
X273.67Y-96.555
X273.67Y-101.555
X273.67Y-106.555
X273.67Y-111.555
X273.67Y-116.555
X273.67Y-121.555
X273.67Y-126.555
X273.67Y-131.555
X273.67Y-156.555
X273.67Y-161.555
X273.67Y-166.555
X273.67Y-171.555
X273.67Y-176.555
X273.67Y-181.555
X273.67Y-186.555
X273.67Y-191.555
X273.67Y-196.555
X273.67Y-201.555
X273.67Y-206.555
X273.67Y-216.555
X273.67Y-221.555
X273.67Y-226.555
X273.67Y-231.555
X273.67Y-236.555
X273.67Y-241.555
X273.67Y-246.555
X273.67Y-251.555
X273.67Y-256.555
X273.67Y-271.555
X275.72Y-59.435
X276.47Y-59.435
X277.37Y-59.435
X278.67Y-26.555
X278.67Y-31.555
X278.67Y-36.555
X278.67Y-41.555
X278.67Y-46.555
X278.67Y-51.555
X278.67Y-266.555
X278.67Y-271.555
X283.67Y-36.555
X283.67Y-41.555
X283.67Y-46.555
X283.67Y-51.555
X283.67Y-56.555
X283.67Y-61.555
X283.67Y-66.555
X283.67Y-71.555
X283.67Y-76.555
X283.67Y-81.555
X283.67Y-86.555
X283.67Y-91.555
X283.67Y-96.555
X283.67Y-101.555
X283.67Y-106.555
X283.67Y-111.555
X283.67Y-116.555
X283.67Y-121.555
X283.67Y-126.555
X283.67Y-131.555
X283.67Y-136.555
X283.67Y-141.555
X283.67Y-146.555
X283.67Y-151.555
X283.67Y-156.555
X283.67Y-161.555
X283.67Y-166.555
X283.67Y-171.555
X283.67Y-176.555
X283.67Y-181.555
X283.67Y-186.555
X283.67Y-191.555
X283.67Y-196.555
X283.67Y-201.555
X283.67Y-206.555
X283.67Y-211.555
X283.67Y-216.555
X283.67Y-221.555
X283.67Y-226.555
X283.67Y-231.555
X283.67Y-236.555
X283.67Y-241.555
X283.67Y-246.555
X283.67Y-251.555
X283.67Y-256.555
X283.67Y-261.555
T2
X102.588Y-33.668
X102.588Y-35.068
X103.288Y-32.968
X103.288Y-34.368
X103.288Y-35.768
X103.988Y-33.668
X103.988Y-35.068
X104.688Y-32.968
X104.688Y-34.368
X104.688Y-35.768
X105.388Y-33.668
X105.388Y-35.068
T3
G00X150.91Y-21.597
M15
G01X150.91Y-22.197
M16
G05
G00X150.91Y-25.527
M15
G01X150.91Y-26.627
M16
G05
G00X159.55Y-21.597
M15
G01X159.55Y-22.197
M16
G05
G00X159.55Y-25.527
M15
G01X159.55Y-26.627
M16
G05
M30
