G04 #@! TF.GenerationSoftware,KiCad,Pcbnew,8.0.1*
G04 #@! TF.CreationDate,2024-08-27T15:58:47+05:30*
G04 #@! TF.ProjectId,Ludo,4c75646f-2e6b-4696-9361-645f70636258,rev?*
G04 #@! TF.SameCoordinates,Original*
G04 #@! TF.FileFunction,OtherDrawing,Comment*
%FSLAX46Y46*%
G04 Gerber Fmt 4.6, Leading zero omitted, Abs format (unit mm)*
G04 Created by KiCad (PCBNEW 8.0.1) date 2024-08-27 15:58:47*
%MOMM*%
%LPD*%
G01*
G04 APERTURE LIST*
%ADD10C,0.300000*%
%ADD11C,0.250000*%
G04 APERTURE END LIST*
D10*
G04 #@! TO.C,RGB30*
X170570100Y-87494900D02*
G75*
G02*
X170269900Y-87494900I-150100J0D01*
G01*
X170269900Y-87494900D02*
G75*
G02*
X170570100Y-87494900I150100J0D01*
G01*
G04 #@! TO.C,RGB54*
X184640200Y-163945000D02*
G75*
G02*
X184340000Y-163945000I-150100J0D01*
G01*
X184340000Y-163945000D02*
G75*
G02*
X184640200Y-163945000I150100J0D01*
G01*
G04 #@! TO.C,RGB8*
X94120000Y-133565000D02*
G75*
G02*
X93819800Y-133565000I-150100J0D01*
G01*
X93819800Y-133565000D02*
G75*
G02*
X94120000Y-133565000I150100J0D01*
G01*
G04 #@! TO.C,RGB13*
X140190100Y-82015100D02*
G75*
G02*
X139889900Y-82015100I-150100J0D01*
G01*
X139889900Y-82015100D02*
G75*
G02*
X140190100Y-82015100I150100J0D01*
G01*
G04 #@! TO.C,RGB56*
X170570100Y-199494900D02*
G75*
G02*
X170269900Y-199494900I-150100J0D01*
G01*
X170269900Y-199494900D02*
G75*
G02*
X170570100Y-199494900I150100J0D01*
G01*
G04 #@! TO.C,RGB62*
X156190100Y-242015100D02*
G75*
G02*
X155889900Y-242015100I-150100J0D01*
G01*
X155889900Y-242015100D02*
G75*
G02*
X156190100Y-242015100I150100J0D01*
G01*
G04 #@! TO.C,RGB67*
X140190100Y-258015100D02*
G75*
G02*
X139889900Y-258015100I-150100J0D01*
G01*
X139889900Y-258015100D02*
G75*
G02*
X140190100Y-258015100I150100J0D01*
G01*
G04 #@! TO.C,RGB71*
X86120000Y-197315000D02*
G75*
G02*
X85819800Y-197315000I-150100J0D01*
G01*
X85819800Y-197315000D02*
G75*
G02*
X86120000Y-197315000I150100J0D01*
G01*
G04 #@! TO.C,RGB32*
X170570100Y-119494900D02*
G75*
G02*
X170269900Y-119494900I-150100J0D01*
G01*
X170269900Y-119494900D02*
G75*
G02*
X170570100Y-119494900I150100J0D01*
G01*
G04 #@! TO.C,RGB55*
X170570100Y-183494900D02*
G75*
G02*
X170269900Y-183494900I-150100J0D01*
G01*
X170269900Y-183494900D02*
G75*
G02*
X170570100Y-183494900I150100J0D01*
G01*
G04 #@! TO.C,RGB57*
X170570100Y-215494900D02*
G75*
G02*
X170269900Y-215494900I-150100J0D01*
G01*
X170269900Y-215494900D02*
G75*
G02*
X170570100Y-215494900I150100J0D01*
G01*
G04 #@! TO.C,RGB17*
X154570100Y-39494900D02*
G75*
G02*
X154269900Y-39494900I-150100J0D01*
G01*
X154269900Y-39494900D02*
G75*
G02*
X154570100Y-39494900I150100J0D01*
G01*
G04 #@! TO.C,RGB39*
X264640200Y-147945000D02*
G75*
G02*
X264340000Y-147945000I-150100J0D01*
G01*
X264340000Y-147945000D02*
G75*
G02*
X264640200Y-147945000I150100J0D01*
G01*
G04 #@! TO.C,RGB82*
X40640200Y-163945000D02*
G75*
G02*
X40340000Y-163945000I-150100J0D01*
G01*
X40340000Y-163945000D02*
G75*
G02*
X40640200Y-163945000I150100J0D01*
G01*
G04 #@! TO.C,RGB10*
X126120000Y-133565000D02*
G75*
G02*
X125819800Y-133565000I-150100J0D01*
G01*
X125819800Y-133565000D02*
G75*
G02*
X126120000Y-133565000I150100J0D01*
G01*
G04 #@! TO.C,RGB70*
X61870000Y-221915000D02*
G75*
G02*
X61569800Y-221915000I-150100J0D01*
G01*
X61569800Y-221915000D02*
G75*
G02*
X61870000Y-221915000I150100J0D01*
G01*
G04 #@! TO.C,RGB2*
X86120000Y-53315000D02*
G75*
G02*
X85819800Y-53315000I-150100J0D01*
G01*
X85819800Y-53315000D02*
G75*
G02*
X86120000Y-53315000I150100J0D01*
G01*
G04 #@! TO.C,RGB23*
X170570100Y-39494900D02*
G75*
G02*
X170269900Y-39494900I-150100J0D01*
G01*
X170269900Y-39494900D02*
G75*
G02*
X170570100Y-39494900I150100J0D01*
G01*
G04 #@! TO.C,RGB86*
X94120000Y-149565000D02*
G75*
G02*
X93819800Y-149565000I-150100J0D01*
G01*
X93819800Y-149565000D02*
G75*
G02*
X94120000Y-149565000I150100J0D01*
G01*
G04 #@! TO.C,RGB27*
X224630200Y-99395000D02*
G75*
G02*
X224330000Y-99395000I-150100J0D01*
G01*
X224330000Y-99395000D02*
G75*
G02*
X224630200Y-99395000I150100J0D01*
G01*
G04 #@! TO.C,RGB74*
X140190100Y-210015100D02*
G75*
G02*
X139889900Y-210015100I-150100J0D01*
G01*
X139889900Y-210015100D02*
G75*
G02*
X140190100Y-210015100I150100J0D01*
G01*
G04 #@! TO.C,RGB26*
X249530200Y-76295000D02*
G75*
G02*
X249230000Y-76295000I-150100J0D01*
G01*
X249230000Y-76295000D02*
G75*
G02*
X249530200Y-76295000I150100J0D01*
G01*
G04 #@! TO.C,RGB9*
X110120000Y-133565000D02*
G75*
G02*
X109819800Y-133565000I-150100J0D01*
G01*
X109819800Y-133565000D02*
G75*
G02*
X110120000Y-133565000I150100J0D01*
G01*
G04 #@! TO.C,RGB41*
X232640200Y-147945000D02*
G75*
G02*
X232340000Y-147945000I-150100J0D01*
G01*
X232340000Y-147945000D02*
G75*
G02*
X232640200Y-147945000I150100J0D01*
G01*
G04 #@! TO.C,RGB28*
X205860000Y-77915000D02*
G75*
G02*
X205559800Y-77915000I-150100J0D01*
G01*
X205559800Y-77915000D02*
G75*
G02*
X205860000Y-77915000I150100J0D01*
G01*
G04 #@! TO.C,RGB37*
X254120000Y-133565000D02*
G75*
G02*
X253819800Y-133565000I-150100J0D01*
G01*
X253819800Y-133565000D02*
G75*
G02*
X254120000Y-133565000I150100J0D01*
G01*
G04 #@! TO.C,RGB15*
X140190100Y-50015100D02*
G75*
G02*
X139889900Y-50015100I-150100J0D01*
G01*
X139889900Y-50015100D02*
G75*
G02*
X140190100Y-50015100I150100J0D01*
G01*
G04 #@! TO.C,RGB24*
X170570100Y-55494900D02*
G75*
G02*
X170269900Y-55494900I-150100J0D01*
G01*
X170269900Y-55494900D02*
G75*
G02*
X170570100Y-55494900I150100J0D01*
G01*
G04 #@! TO.C,RGB1*
X61870000Y-77915000D02*
G75*
G02*
X61569800Y-77915000I-150100J0D01*
G01*
X61569800Y-77915000D02*
G75*
G02*
X61870000Y-77915000I150100J0D01*
G01*
G04 #@! TO.C,RGB31*
X170570100Y-103494900D02*
G75*
G02*
X170269900Y-103494900I-150100J0D01*
G01*
X170269900Y-103494900D02*
G75*
G02*
X170570100Y-103494900I150100J0D01*
G01*
G04 #@! TO.C,RGB77*
X120640200Y-163945000D02*
G75*
G02*
X120340000Y-163945000I-150100J0D01*
G01*
X120340000Y-163945000D02*
G75*
G02*
X120640200Y-163945000I150100J0D01*
G01*
G04 #@! TO.C,RGB33*
X190120000Y-133565000D02*
G75*
G02*
X189819800Y-133565000I-150100J0D01*
G01*
X189819800Y-133565000D02*
G75*
G02*
X190120000Y-133565000I150100J0D01*
G01*
G04 #@! TO.C,RGB83*
X46120000Y-149565000D02*
G75*
G02*
X45819800Y-149565000I-150100J0D01*
G01*
X45819800Y-149565000D02*
G75*
G02*
X46120000Y-149565000I150100J0D01*
G01*
G04 #@! TO.C,RGB48*
X224630200Y-243395000D02*
G75*
G02*
X224330000Y-243395000I-150100J0D01*
G01*
X224330000Y-243395000D02*
G75*
G02*
X224630200Y-243395000I150100J0D01*
G01*
G04 #@! TO.C,RGB87*
X110120000Y-149565000D02*
G75*
G02*
X109819800Y-149565000I-150100J0D01*
G01*
X109819800Y-149565000D02*
G75*
G02*
X110120000Y-149565000I150100J0D01*
G01*
G04 #@! TO.C,RGB69*
X80640200Y-243395000D02*
G75*
G02*
X80340000Y-243395000I-150100J0D01*
G01*
X80340000Y-243395000D02*
G75*
G02*
X80640200Y-243395000I150100J0D01*
G01*
G04 #@! TO.C,RGB63*
X156190100Y-226015100D02*
G75*
G02*
X155889900Y-226015100I-150100J0D01*
G01*
X155889900Y-226015100D02*
G75*
G02*
X156190100Y-226015100I150100J0D01*
G01*
G04 #@! TO.C,RGB16*
X140190100Y-34015100D02*
G75*
G02*
X139889900Y-34015100I-150100J0D01*
G01*
X139889900Y-34015100D02*
G75*
G02*
X140190100Y-34015100I150100J0D01*
G01*
G04 #@! TO.C,RGB5*
X46120000Y-133565000D02*
G75*
G02*
X45819800Y-133565000I-150100J0D01*
G01*
X45819800Y-133565000D02*
G75*
G02*
X46120000Y-133565000I150100J0D01*
G01*
G04 #@! TO.C,RGB7*
X78120000Y-133565000D02*
G75*
G02*
X77819800Y-133565000I-150100J0D01*
G01*
X77819800Y-133565000D02*
G75*
G02*
X78120000Y-133565000I150100J0D01*
G01*
G04 #@! TO.C,RGB72*
X105540200Y-220295000D02*
G75*
G02*
X105240000Y-220295000I-150100J0D01*
G01*
X105240000Y-220295000D02*
G75*
G02*
X105540200Y-220295000I150100J0D01*
G01*
G04 #@! TO.C,RGB29*
X170570100Y-71494900D02*
G75*
G02*
X170269900Y-71494900I-150100J0D01*
G01*
X170269900Y-71494900D02*
G75*
G02*
X170570100Y-71494900I150100J0D01*
G01*
G04 #@! TO.C,RGB21*
X154570100Y-103494900D02*
G75*
G02*
X154269900Y-103494900I-150100J0D01*
G01*
X154269900Y-103494900D02*
G75*
G02*
X154570100Y-103494900I150100J0D01*
G01*
G04 #@! TO.C,RGB22*
X154570100Y-119494900D02*
G75*
G02*
X154269900Y-119494900I-150100J0D01*
G01*
X154269900Y-119494900D02*
G75*
G02*
X154570100Y-119494900I150100J0D01*
G01*
G04 #@! TO.C,RGB51*
X232640200Y-163945000D02*
G75*
G02*
X232340000Y-163945000I-150100J0D01*
G01*
X232340000Y-163945000D02*
G75*
G02*
X232640200Y-163945000I150100J0D01*
G01*
G04 #@! TO.C,RGB47*
X249530200Y-220295000D02*
G75*
G02*
X249230000Y-220295000I-150100J0D01*
G01*
X249230000Y-220295000D02*
G75*
G02*
X249530200Y-220295000I150100J0D01*
G01*
G04 #@! TO.C,RGB45*
X264640200Y-163945000D02*
G75*
G02*
X264340000Y-163945000I-150100J0D01*
G01*
X264340000Y-163945000D02*
G75*
G02*
X264640200Y-163945000I150100J0D01*
G01*
G04 #@! TO.C,RGB42*
X216640200Y-147945000D02*
G75*
G02*
X216340000Y-147945000I-150100J0D01*
G01*
X216340000Y-147945000D02*
G75*
G02*
X216640200Y-147945000I150100J0D01*
G01*
G04 #@! TO.C,RGB78*
X104640200Y-163945000D02*
G75*
G02*
X104340000Y-163945000I-150100J0D01*
G01*
X104340000Y-163945000D02*
G75*
G02*
X104640200Y-163945000I150100J0D01*
G01*
G04 #@! TO.C,RGB43*
X200640200Y-147945000D02*
G75*
G02*
X200340000Y-147945000I-150100J0D01*
G01*
X200340000Y-147945000D02*
G75*
G02*
X200640200Y-147945000I150100J0D01*
G01*
G04 #@! TO.C,RGB6*
X62120000Y-133565000D02*
G75*
G02*
X61819800Y-133565000I-150100J0D01*
G01*
X61819800Y-133565000D02*
G75*
G02*
X62120000Y-133565000I150100J0D01*
G01*
G04 #@! TO.C,RGB58*
X170570100Y-231494900D02*
G75*
G02*
X170269900Y-231494900I-150100J0D01*
G01*
X170269900Y-231494900D02*
G75*
G02*
X170570100Y-231494900I150100J0D01*
G01*
G04 #@! TO.C,RGB14*
X140190100Y-66015100D02*
G75*
G02*
X139889900Y-66015100I-150100J0D01*
G01*
X139889900Y-66015100D02*
G75*
G02*
X140190100Y-66015100I150100J0D01*
G01*
G04 #@! TO.C,RGB65*
X156190100Y-194015100D02*
G75*
G02*
X155889900Y-194015100I-150100J0D01*
G01*
X155889900Y-194015100D02*
G75*
G02*
X156190100Y-194015100I150100J0D01*
G01*
G04 #@! TO.C,RGB4*
X80640200Y-99395000D02*
G75*
G02*
X80340000Y-99395000I-150100J0D01*
G01*
X80340000Y-99395000D02*
G75*
G02*
X80640200Y-99395000I150100J0D01*
G01*
D11*
G04 #@! TO.C,SW3*
X177540900Y-19889000D02*
G75*
G02*
X177290900Y-19889000I-125000J0D01*
G01*
X177290900Y-19889000D02*
G75*
G02*
X177540900Y-19889000I125000J0D01*
G01*
X179240900Y-19889000D02*
G75*
G02*
X178990900Y-19889000I-125000J0D01*
G01*
X178990900Y-19889000D02*
G75*
G02*
X179240900Y-19889000I125000J0D01*
G01*
D10*
G04 #@! TO.C,RGB19*
X154570100Y-71494900D02*
G75*
G02*
X154269900Y-71494900I-150100J0D01*
G01*
X154269900Y-71494900D02*
G75*
G02*
X154570100Y-71494900I150100J0D01*
G01*
G04 #@! TO.C,RGB75*
X140190100Y-194015100D02*
G75*
G02*
X139889900Y-194015100I-150100J0D01*
G01*
X139889900Y-194015100D02*
G75*
G02*
X140190100Y-194015100I150100J0D01*
G01*
G04 #@! TO.C,RGB59*
X170570100Y-247494900D02*
G75*
G02*
X170269900Y-247494900I-150100J0D01*
G01*
X170269900Y-247494900D02*
G75*
G02*
X170570100Y-247494900I150100J0D01*
G01*
G04 #@! TO.C,RGB50*
X230110000Y-197315000D02*
G75*
G02*
X229809800Y-197315000I-150100J0D01*
G01*
X229809800Y-197315000D02*
G75*
G02*
X230110000Y-197315000I150100J0D01*
G01*
G04 #@! TO.C,RGB46*
X248640200Y-163945000D02*
G75*
G02*
X248340000Y-163945000I-150100J0D01*
G01*
X248340000Y-163945000D02*
G75*
G02*
X248640200Y-163945000I150100J0D01*
G01*
G04 #@! TO.C,RGB3*
X105540200Y-76295000D02*
G75*
G02*
X105240000Y-76295000I-150100J0D01*
G01*
X105240000Y-76295000D02*
G75*
G02*
X105540200Y-76295000I150100J0D01*
G01*
G04 #@! TO.C,RGB11*
X140190100Y-114015100D02*
G75*
G02*
X139889900Y-114015100I-150100J0D01*
G01*
X139889900Y-114015100D02*
G75*
G02*
X140190100Y-114015100I150100J0D01*
G01*
G04 #@! TO.C,RGB84*
X62120000Y-149565000D02*
G75*
G02*
X61819800Y-149565000I-150100J0D01*
G01*
X61819800Y-149565000D02*
G75*
G02*
X62120000Y-149565000I150100J0D01*
G01*
G04 #@! TO.C,RGB44*
X184640200Y-147945000D02*
G75*
G02*
X184340000Y-147945000I-150100J0D01*
G01*
X184340000Y-147945000D02*
G75*
G02*
X184640200Y-147945000I150100J0D01*
G01*
G04 #@! TO.C,RGB35*
X222120000Y-133565000D02*
G75*
G02*
X221819800Y-133565000I-150100J0D01*
G01*
X221819800Y-133565000D02*
G75*
G02*
X222120000Y-133565000I150100J0D01*
G01*
G04 #@! TO.C,RGB85*
X78120000Y-149565000D02*
G75*
G02*
X77819800Y-149565000I-150100J0D01*
G01*
X77819800Y-149565000D02*
G75*
G02*
X78120000Y-149565000I150100J0D01*
G01*
G04 #@! TO.C,RGB68*
X140190100Y-242015100D02*
G75*
G02*
X139889900Y-242015100I-150100J0D01*
G01*
X139889900Y-242015100D02*
G75*
G02*
X140190100Y-242015100I150100J0D01*
G01*
G04 #@! TO.C,RGB64*
X156190100Y-210015100D02*
G75*
G02*
X155889900Y-210015100I-150100J0D01*
G01*
X155889900Y-210015100D02*
G75*
G02*
X156190100Y-210015100I150100J0D01*
G01*
G04 #@! TO.C,RGB12*
X140190100Y-98015100D02*
G75*
G02*
X139889900Y-98015100I-150100J0D01*
G01*
X139889900Y-98015100D02*
G75*
G02*
X140190100Y-98015100I150100J0D01*
G01*
G04 #@! TO.C,RGB20*
X154570100Y-87494900D02*
G75*
G02*
X154269900Y-87494900I-150100J0D01*
G01*
X154269900Y-87494900D02*
G75*
G02*
X154570100Y-87494900I150100J0D01*
G01*
G04 #@! TO.C,RGB18*
X154570100Y-55494900D02*
G75*
G02*
X154269900Y-55494900I-150100J0D01*
G01*
X154269900Y-55494900D02*
G75*
G02*
X154570100Y-55494900I150100J0D01*
G01*
G04 #@! TO.C,RGB81*
X56640200Y-163945000D02*
G75*
G02*
X56340000Y-163945000I-150100J0D01*
G01*
X56340000Y-163945000D02*
G75*
G02*
X56640200Y-163945000I150100J0D01*
G01*
G04 #@! TO.C,RGB38*
X270120000Y-133565000D02*
G75*
G02*
X269819800Y-133565000I-150100J0D01*
G01*
X269819800Y-133565000D02*
G75*
G02*
X270120000Y-133565000I150100J0D01*
G01*
G04 #@! TO.C,RGB80*
X72640200Y-163945000D02*
G75*
G02*
X72340000Y-163945000I-150100J0D01*
G01*
X72340000Y-163945000D02*
G75*
G02*
X72640200Y-163945000I150100J0D01*
G01*
G04 #@! TO.C,RGB40*
X248640200Y-147945000D02*
G75*
G02*
X248340000Y-147945000I-150100J0D01*
G01*
X248340000Y-147945000D02*
G75*
G02*
X248640200Y-147945000I150100J0D01*
G01*
G04 #@! TO.C,RGB25*
X230110000Y-53315000D02*
G75*
G02*
X229809800Y-53315000I-150100J0D01*
G01*
X229809800Y-53315000D02*
G75*
G02*
X230110000Y-53315000I150100J0D01*
G01*
G04 #@! TO.C,RGB53*
X200640200Y-163945000D02*
G75*
G02*
X200340000Y-163945000I-150100J0D01*
G01*
X200340000Y-163945000D02*
G75*
G02*
X200640200Y-163945000I150100J0D01*
G01*
G04 #@! TO.C,RGB49*
X205860000Y-221915000D02*
G75*
G02*
X205559800Y-221915000I-150100J0D01*
G01*
X205559800Y-221915000D02*
G75*
G02*
X205860000Y-221915000I150100J0D01*
G01*
G04 #@! TO.C,RGB88*
X126120000Y-149565000D02*
G75*
G02*
X125819800Y-149565000I-150100J0D01*
G01*
X125819800Y-149565000D02*
G75*
G02*
X126120000Y-149565000I150100J0D01*
G01*
G04 #@! TO.C,RGB34*
X206120000Y-133565000D02*
G75*
G02*
X205819800Y-133565000I-150100J0D01*
G01*
X205819800Y-133565000D02*
G75*
G02*
X206120000Y-133565000I150100J0D01*
G01*
G04 #@! TO.C,RGB52*
X216640200Y-163945000D02*
G75*
G02*
X216340000Y-163945000I-150100J0D01*
G01*
X216340000Y-163945000D02*
G75*
G02*
X216640200Y-163945000I150100J0D01*
G01*
G04 #@! TO.C,RGB73*
X140190100Y-226015100D02*
G75*
G02*
X139889900Y-226015100I-150100J0D01*
G01*
X139889900Y-226015100D02*
G75*
G02*
X140190100Y-226015100I150100J0D01*
G01*
G04 #@! TO.C,RGB76*
X140190100Y-178015100D02*
G75*
G02*
X139889900Y-178015100I-150100J0D01*
G01*
X139889900Y-178015100D02*
G75*
G02*
X140190100Y-178015100I150100J0D01*
G01*
G04 #@! TO.C,RGB61*
X156190100Y-258015100D02*
G75*
G02*
X155889900Y-258015100I-150100J0D01*
G01*
X155889900Y-258015100D02*
G75*
G02*
X156190100Y-258015100I150100J0D01*
G01*
G04 #@! TO.C,RGB60*
X170570100Y-263494900D02*
G75*
G02*
X170269900Y-263494900I-150100J0D01*
G01*
X170269900Y-263494900D02*
G75*
G02*
X170570100Y-263494900I150100J0D01*
G01*
G04 #@! TO.C,RGB79*
X88640200Y-163945000D02*
G75*
G02*
X88340000Y-163945000I-150100J0D01*
G01*
X88340000Y-163945000D02*
G75*
G02*
X88640200Y-163945000I150100J0D01*
G01*
G04 #@! TO.C,RGB36*
X238120000Y-133565000D02*
G75*
G02*
X237819800Y-133565000I-150100J0D01*
G01*
X237819800Y-133565000D02*
G75*
G02*
X238120000Y-133565000I150100J0D01*
G01*
G04 #@! TO.C,RGB66*
X156190100Y-178015100D02*
G75*
G02*
X155889900Y-178015100I-150100J0D01*
G01*
X155889900Y-178015100D02*
G75*
G02*
X156190100Y-178015100I150100J0D01*
G01*
G04 #@! TD*
M02*
