G04 #@! TF.GenerationSoftware,KiCad,Pcbnew,8.0.1*
G04 #@! TF.CreationDate,2024-08-27T15:58:47+05:30*
G04 #@! TF.ProjectId,Ludo,4c75646f-2e6b-4696-9361-645f70636258,rev?*
G04 #@! TF.SameCoordinates,Original*
G04 #@! TF.FileFunction,Profile,NP*
%FSLAX46Y46*%
G04 Gerber Fmt 4.6, Leading zero omitted, Abs format (unit mm)*
G04 Created by KiCad (PCBNEW 8.0.1) date 2024-08-27 15:58:47*
%MOMM*%
%LPD*%
G01*
G04 APERTURE LIST*
G04 #@! TA.AperFunction,Profile*
%ADD10C,0.050000*%
G04 #@! TD*
G04 #@! TA.AperFunction,Profile*
%ADD11C,0.200000*%
G04 #@! TD*
G04 APERTURE END LIST*
D10*
X265230000Y-18755000D02*
G75*
G02*
X285230000Y-38755000I0J-20000000D01*
G01*
X45230000Y-278755000D02*
X265230000Y-278755000D01*
X285230000Y-258755000D02*
G75*
G02*
X265230000Y-278755000I-20000000J0D01*
G01*
D11*
X175230000Y-148755000D02*
G75*
G02*
X135230000Y-148755000I-20000000J0D01*
G01*
X135230000Y-148755000D02*
G75*
G02*
X175230000Y-148755000I20000000J0D01*
G01*
D10*
X25230000Y-38755000D02*
X25230000Y-258755000D01*
X25230000Y-38755000D02*
G75*
G02*
X45230000Y-18755000I20000000J0D01*
G01*
X45230000Y-278755000D02*
G75*
G02*
X25230000Y-258755000I0J20000000D01*
G01*
X285230000Y-258755000D02*
X285230000Y-38755000D01*
X265230000Y-18755000D02*
X45230000Y-18755000D01*
G04 #@! TO.C,RGB30*
X169630800Y-86153480D02*
X169630800Y-83353480D01*
X170081920Y-82954301D02*
X172373000Y-82954140D01*
X172370460Y-86560940D02*
X170081920Y-86555339D01*
X172827660Y-83408800D02*
X172827660Y-86103740D01*
X169630800Y-83353480D02*
G75*
G02*
X170081920Y-82954301I451122J-55322D01*
G01*
X170081920Y-86555339D02*
G75*
G02*
X169630805Y-86153479I-40J454089D01*
G01*
X172373000Y-82954140D02*
G75*
G02*
X172827660Y-83408800I-1J-454661D01*
G01*
X172827660Y-86103740D02*
G75*
G02*
X172370460Y-86560940I-457200J0D01*
G01*
G04 #@! TO.C,RGB54*
X185424060Y-165895460D02*
X185429661Y-163606920D01*
X185831520Y-163155800D02*
X188631520Y-163155800D01*
X188576200Y-166352660D02*
X185881260Y-166352660D01*
X189030699Y-163606920D02*
X189030860Y-165898000D01*
X185429661Y-163606920D02*
G75*
G02*
X185831521Y-163155805I454089J40D01*
G01*
X185881260Y-166352660D02*
G75*
G02*
X185424060Y-165895460I0J457200D01*
G01*
X188631520Y-163155800D02*
G75*
G02*
X189030699Y-163606920I-55322J-451122D01*
G01*
X189030860Y-165898000D02*
G75*
G02*
X188576200Y-166352660I-454661J1D01*
G01*
G04 #@! TO.C,RGB8*
X89429301Y-133903080D02*
X89429140Y-131612000D01*
X89883800Y-131157340D02*
X92578740Y-131157340D01*
X92628480Y-134354200D02*
X89828480Y-134354200D01*
X93035940Y-131614540D02*
X93030339Y-133903080D01*
X89429140Y-131612000D02*
G75*
G02*
X89883800Y-131157340I454661J-1D01*
G01*
X89828480Y-134354200D02*
G75*
G02*
X89429301Y-133903080I55322J451122D01*
G01*
X92578740Y-131157340D02*
G75*
G02*
X93035940Y-131614540I0J-457200D01*
G01*
X93030339Y-133903080D02*
G75*
G02*
X92628479Y-134354195I-454089J-40D01*
G01*
G04 #@! TO.C,RGB13*
X137632340Y-86101200D02*
X137632340Y-83406260D01*
X138089540Y-82949060D02*
X140378080Y-82954661D01*
X140378080Y-86555699D02*
X138087000Y-86555860D01*
X140829200Y-83356520D02*
X140829200Y-86156520D01*
X137632340Y-83406260D02*
G75*
G02*
X138089540Y-82949060I457200J0D01*
G01*
X138087000Y-86555860D02*
G75*
G02*
X137632340Y-86101200I1J454661D01*
G01*
X140378080Y-82954661D02*
G75*
G02*
X140829195Y-83356521I40J-454089D01*
G01*
X140829200Y-86156520D02*
G75*
G02*
X140378080Y-86555699I-451122J55322D01*
G01*
G04 #@! TO.C,RGB56*
X169630800Y-198153480D02*
X169630800Y-195353480D01*
X170081920Y-194954301D02*
X172373000Y-194954140D01*
X172370460Y-198560940D02*
X170081920Y-198555339D01*
X172827660Y-195408800D02*
X172827660Y-198103740D01*
X169630800Y-195353480D02*
G75*
G02*
X170081920Y-194954301I451122J-55322D01*
G01*
X170081920Y-198555339D02*
G75*
G02*
X169630805Y-198153479I-40J454089D01*
G01*
X172373000Y-194954140D02*
G75*
G02*
X172827660Y-195408800I-1J-454661D01*
G01*
X172827660Y-198103740D02*
G75*
G02*
X172370460Y-198560940I-457200J0D01*
G01*
G04 #@! TO.C,RGB62*
X153632340Y-246101200D02*
X153632340Y-243406260D01*
X154089540Y-242949060D02*
X156378080Y-242954661D01*
X156378080Y-246555699D02*
X154087000Y-246555860D01*
X156829200Y-243356520D02*
X156829200Y-246156520D01*
X153632340Y-243406260D02*
G75*
G02*
X154089540Y-242949060I457200J0D01*
G01*
X154087000Y-246555860D02*
G75*
G02*
X153632340Y-246101200I1J454661D01*
G01*
X156378080Y-242954661D02*
G75*
G02*
X156829195Y-243356521I40J-454089D01*
G01*
X156829200Y-246156520D02*
G75*
G02*
X156378080Y-246555699I-451122J55322D01*
G01*
G04 #@! TO.C,RGB67*
X137632340Y-262101200D02*
X137632340Y-259406260D01*
X138089540Y-258949060D02*
X140378080Y-258954661D01*
X140378080Y-262555699D02*
X138087000Y-262555860D01*
X140829200Y-259356520D02*
X140829200Y-262156520D01*
X137632340Y-259406260D02*
G75*
G02*
X138089540Y-258949060I457200J0D01*
G01*
X138087000Y-262555860D02*
G75*
G02*
X137632340Y-262101200I1J454661D01*
G01*
X140378080Y-258954661D02*
G75*
G02*
X140829195Y-259356521I40J-454089D01*
G01*
X140829200Y-262156520D02*
G75*
G02*
X140378080Y-262555699I-451122J55322D01*
G01*
G04 #@! TO.C,RGB71*
X81429301Y-197653080D02*
X81429140Y-195362000D01*
X81883800Y-194907340D02*
X84578740Y-194907340D01*
X84628480Y-198104200D02*
X81828480Y-198104200D01*
X85035940Y-195364540D02*
X85030339Y-197653080D01*
X81429140Y-195362000D02*
G75*
G02*
X81883800Y-194907340I454661J-1D01*
G01*
X81828480Y-198104200D02*
G75*
G02*
X81429301Y-197653080I55322J451122D01*
G01*
X84578740Y-194907340D02*
G75*
G02*
X85035940Y-195364540I0J-457200D01*
G01*
X85030339Y-197653080D02*
G75*
G02*
X84628479Y-198104195I-454089J-40D01*
G01*
G04 #@! TO.C,RGB32*
X169630800Y-118153480D02*
X169630800Y-115353480D01*
X170081920Y-114954301D02*
X172373000Y-114954140D01*
X172370460Y-118560940D02*
X170081920Y-118555339D01*
X172827660Y-115408800D02*
X172827660Y-118103740D01*
X169630800Y-115353480D02*
G75*
G02*
X170081920Y-114954301I451122J-55322D01*
G01*
X170081920Y-118555339D02*
G75*
G02*
X169630805Y-118153479I-40J454089D01*
G01*
X172373000Y-114954140D02*
G75*
G02*
X172827660Y-115408800I-1J-454661D01*
G01*
X172827660Y-118103740D02*
G75*
G02*
X172370460Y-118560940I-457200J0D01*
G01*
G04 #@! TO.C,RGB55*
X169630800Y-182153480D02*
X169630800Y-179353480D01*
X170081920Y-178954301D02*
X172373000Y-178954140D01*
X172370460Y-182560940D02*
X170081920Y-182555339D01*
X172827660Y-179408800D02*
X172827660Y-182103740D01*
X169630800Y-179353480D02*
G75*
G02*
X170081920Y-178954301I451122J-55322D01*
G01*
X170081920Y-182555339D02*
G75*
G02*
X169630805Y-182153479I-40J454089D01*
G01*
X172373000Y-178954140D02*
G75*
G02*
X172827660Y-179408800I-1J-454661D01*
G01*
X172827660Y-182103740D02*
G75*
G02*
X172370460Y-182560940I-457200J0D01*
G01*
G04 #@! TO.C,RGB57*
X169630800Y-214153480D02*
X169630800Y-211353480D01*
X170081920Y-210954301D02*
X172373000Y-210954140D01*
X172370460Y-214560940D02*
X170081920Y-214555339D01*
X172827660Y-211408800D02*
X172827660Y-214103740D01*
X169630800Y-211353480D02*
G75*
G02*
X170081920Y-210954301I451122J-55322D01*
G01*
X170081920Y-214555339D02*
G75*
G02*
X169630805Y-214153479I-40J454089D01*
G01*
X172373000Y-210954140D02*
G75*
G02*
X172827660Y-211408800I-1J-454661D01*
G01*
X172827660Y-214103740D02*
G75*
G02*
X172370460Y-214560940I-457200J0D01*
G01*
G04 #@! TO.C,RGB17*
X153630800Y-38153480D02*
X153630800Y-35353480D01*
X154081920Y-34954301D02*
X156373000Y-34954140D01*
X156370460Y-38560940D02*
X154081920Y-38555339D01*
X156827660Y-35408800D02*
X156827660Y-38103740D01*
X153630800Y-35353480D02*
G75*
G02*
X154081920Y-34954301I451122J-55322D01*
G01*
X154081920Y-38555339D02*
G75*
G02*
X153630805Y-38153479I-40J454089D01*
G01*
X156373000Y-34954140D02*
G75*
G02*
X156827660Y-35408800I-1J-454661D01*
G01*
X156827660Y-38103740D02*
G75*
G02*
X156370460Y-38560940I-457200J0D01*
G01*
G04 #@! TO.C,RGB39*
X265424060Y-149895460D02*
X265429661Y-147606920D01*
X265831520Y-147155800D02*
X268631520Y-147155800D01*
X268576200Y-150352660D02*
X265881260Y-150352660D01*
X269030699Y-147606920D02*
X269030860Y-149898000D01*
X265429661Y-147606920D02*
G75*
G02*
X265831521Y-147155805I454089J40D01*
G01*
X265881260Y-150352660D02*
G75*
G02*
X265424060Y-149895460I0J457200D01*
G01*
X268631520Y-147155800D02*
G75*
G02*
X269030699Y-147606920I-55322J-451122D01*
G01*
X269030860Y-149898000D02*
G75*
G02*
X268576200Y-150352660I-454661J1D01*
G01*
G04 #@! TO.C,RGB82*
X41424060Y-165895460D02*
X41429661Y-163606920D01*
X41831520Y-163155800D02*
X44631520Y-163155800D01*
X44576200Y-166352660D02*
X41881260Y-166352660D01*
X45030699Y-163606920D02*
X45030860Y-165898000D01*
X41429661Y-163606920D02*
G75*
G02*
X41831521Y-163155805I454089J40D01*
G01*
X41881260Y-166352660D02*
G75*
G02*
X41424060Y-165895460I0J457200D01*
G01*
X44631520Y-163155800D02*
G75*
G02*
X45030699Y-163606920I-55322J-451122D01*
G01*
X45030860Y-165898000D02*
G75*
G02*
X44576200Y-166352660I-454661J1D01*
G01*
G04 #@! TO.C,RGB10*
X121429301Y-133903080D02*
X121429140Y-131612000D01*
X121883800Y-131157340D02*
X124578740Y-131157340D01*
X124628480Y-134354200D02*
X121828480Y-134354200D01*
X125035940Y-131614540D02*
X125030339Y-133903080D01*
X121429140Y-131612000D02*
G75*
G02*
X121883800Y-131157340I454661J-1D01*
G01*
X121828480Y-134354200D02*
G75*
G02*
X121429301Y-133903080I55322J451122D01*
G01*
X124578740Y-131157340D02*
G75*
G02*
X125035940Y-131614540I0J-457200D01*
G01*
X125030339Y-133903080D02*
G75*
G02*
X124628479Y-134354195I-454089J-40D01*
G01*
G04 #@! TO.C,RGB70*
X57179301Y-222253080D02*
X57179140Y-219962000D01*
X57633800Y-219507340D02*
X60328740Y-219507340D01*
X60378480Y-222704200D02*
X57578480Y-222704200D01*
X60785940Y-219964540D02*
X60780339Y-222253080D01*
X57179140Y-219962000D02*
G75*
G02*
X57633800Y-219507340I454661J-1D01*
G01*
X57578480Y-222704200D02*
G75*
G02*
X57179301Y-222253080I55322J451122D01*
G01*
X60328740Y-219507340D02*
G75*
G02*
X60785940Y-219964540I0J-457200D01*
G01*
X60780339Y-222253080D02*
G75*
G02*
X60378479Y-222704195I-454089J-40D01*
G01*
G04 #@! TO.C,RGB2*
X81429301Y-53653080D02*
X81429140Y-51362000D01*
X81883800Y-50907340D02*
X84578740Y-50907340D01*
X84628480Y-54104200D02*
X81828480Y-54104200D01*
X85035940Y-51364540D02*
X85030339Y-53653080D01*
X81429140Y-51362000D02*
G75*
G02*
X81883800Y-50907340I454661J-1D01*
G01*
X81828480Y-54104200D02*
G75*
G02*
X81429301Y-53653080I55322J451122D01*
G01*
X84578740Y-50907340D02*
G75*
G02*
X85035940Y-51364540I0J-457200D01*
G01*
X85030339Y-53653080D02*
G75*
G02*
X84628479Y-54104195I-454089J-40D01*
G01*
G04 #@! TO.C,RGB23*
X169630800Y-38153480D02*
X169630800Y-35353480D01*
X170081920Y-34954301D02*
X172373000Y-34954140D01*
X172370460Y-38560940D02*
X170081920Y-38555339D01*
X172827660Y-35408800D02*
X172827660Y-38103740D01*
X169630800Y-35353480D02*
G75*
G02*
X170081920Y-34954301I451122J-55322D01*
G01*
X170081920Y-38555339D02*
G75*
G02*
X169630805Y-38153479I-40J454089D01*
G01*
X172373000Y-34954140D02*
G75*
G02*
X172827660Y-35408800I-1J-454661D01*
G01*
X172827660Y-38103740D02*
G75*
G02*
X172370460Y-38560940I-457200J0D01*
G01*
G04 #@! TO.C,RGB86*
X89429301Y-149903080D02*
X89429140Y-147612000D01*
X89883800Y-147157340D02*
X92578740Y-147157340D01*
X92628480Y-150354200D02*
X89828480Y-150354200D01*
X93035940Y-147614540D02*
X93030339Y-149903080D01*
X89429140Y-147612000D02*
G75*
G02*
X89883800Y-147157340I454661J-1D01*
G01*
X89828480Y-150354200D02*
G75*
G02*
X89429301Y-149903080I55322J451122D01*
G01*
X92578740Y-147157340D02*
G75*
G02*
X93035940Y-147614540I0J-457200D01*
G01*
X93030339Y-149903080D02*
G75*
G02*
X92628479Y-150354195I-454089J-40D01*
G01*
G04 #@! TO.C,RGB27*
X225414060Y-101345460D02*
X225419661Y-99056920D01*
X225821520Y-98605800D02*
X228621520Y-98605800D01*
X228566200Y-101802660D02*
X225871260Y-101802660D01*
X229020699Y-99056920D02*
X229020860Y-101348000D01*
X225419661Y-99056920D02*
G75*
G02*
X225821521Y-98605805I454089J40D01*
G01*
X225871260Y-101802660D02*
G75*
G02*
X225414060Y-101345460I0J457200D01*
G01*
X228621520Y-98605800D02*
G75*
G02*
X229020699Y-99056920I-55322J-451122D01*
G01*
X229020860Y-101348000D02*
G75*
G02*
X228566200Y-101802660I-454661J1D01*
G01*
G04 #@! TO.C,RGB74*
X137632340Y-214101200D02*
X137632340Y-211406260D01*
X138089540Y-210949060D02*
X140378080Y-210954661D01*
X140378080Y-214555699D02*
X138087000Y-214555860D01*
X140829200Y-211356520D02*
X140829200Y-214156520D01*
X137632340Y-211406260D02*
G75*
G02*
X138089540Y-210949060I457200J0D01*
G01*
X138087000Y-214555860D02*
G75*
G02*
X137632340Y-214101200I1J454661D01*
G01*
X140378080Y-210954661D02*
G75*
G02*
X140829195Y-211356521I40J-454089D01*
G01*
X140829200Y-214156520D02*
G75*
G02*
X140378080Y-214555699I-451122J55322D01*
G01*
G04 #@! TO.C,RGB26*
X250314060Y-78245460D02*
X250319661Y-75956920D01*
X250721520Y-75505800D02*
X253521520Y-75505800D01*
X253466200Y-78702660D02*
X250771260Y-78702660D01*
X253920699Y-75956920D02*
X253920860Y-78248000D01*
X250319661Y-75956920D02*
G75*
G02*
X250721521Y-75505805I454089J40D01*
G01*
X250771260Y-78702660D02*
G75*
G02*
X250314060Y-78245460I0J457200D01*
G01*
X253521520Y-75505800D02*
G75*
G02*
X253920699Y-75956920I-55322J-451122D01*
G01*
X253920860Y-78248000D02*
G75*
G02*
X253466200Y-78702660I-454661J1D01*
G01*
G04 #@! TO.C,RGB9*
X105429301Y-133903080D02*
X105429140Y-131612000D01*
X105883800Y-131157340D02*
X108578740Y-131157340D01*
X108628480Y-134354200D02*
X105828480Y-134354200D01*
X109035940Y-131614540D02*
X109030339Y-133903080D01*
X105429140Y-131612000D02*
G75*
G02*
X105883800Y-131157340I454661J-1D01*
G01*
X105828480Y-134354200D02*
G75*
G02*
X105429301Y-133903080I55322J451122D01*
G01*
X108578740Y-131157340D02*
G75*
G02*
X109035940Y-131614540I0J-457200D01*
G01*
X109030339Y-133903080D02*
G75*
G02*
X108628479Y-134354195I-454089J-40D01*
G01*
G04 #@! TO.C,RGB41*
X233424060Y-149895460D02*
X233429661Y-147606920D01*
X233831520Y-147155800D02*
X236631520Y-147155800D01*
X236576200Y-150352660D02*
X233881260Y-150352660D01*
X237030699Y-147606920D02*
X237030860Y-149898000D01*
X233429661Y-147606920D02*
G75*
G02*
X233831521Y-147155805I454089J40D01*
G01*
X233881260Y-150352660D02*
G75*
G02*
X233424060Y-149895460I0J457200D01*
G01*
X236631520Y-147155800D02*
G75*
G02*
X237030699Y-147606920I-55322J-451122D01*
G01*
X237030860Y-149898000D02*
G75*
G02*
X236576200Y-150352660I-454661J1D01*
G01*
G04 #@! TO.C,RGB28*
X201169301Y-78253080D02*
X201169140Y-75962000D01*
X201623800Y-75507340D02*
X204318740Y-75507340D01*
X204368480Y-78704200D02*
X201568480Y-78704200D01*
X204775940Y-75964540D02*
X204770339Y-78253080D01*
X201169140Y-75962000D02*
G75*
G02*
X201623800Y-75507340I454661J-1D01*
G01*
X201568480Y-78704200D02*
G75*
G02*
X201169301Y-78253080I55322J451122D01*
G01*
X204318740Y-75507340D02*
G75*
G02*
X204775940Y-75964540I0J-457200D01*
G01*
X204770339Y-78253080D02*
G75*
G02*
X204368479Y-78704195I-454089J-40D01*
G01*
G04 #@! TO.C,RGB37*
X249429301Y-133903080D02*
X249429140Y-131612000D01*
X249883800Y-131157340D02*
X252578740Y-131157340D01*
X252628480Y-134354200D02*
X249828480Y-134354200D01*
X253035940Y-131614540D02*
X253030339Y-133903080D01*
X249429140Y-131612000D02*
G75*
G02*
X249883800Y-131157340I454661J-1D01*
G01*
X249828480Y-134354200D02*
G75*
G02*
X249429301Y-133903080I55322J451122D01*
G01*
X252578740Y-131157340D02*
G75*
G02*
X253035940Y-131614540I0J-457200D01*
G01*
X253030339Y-133903080D02*
G75*
G02*
X252628479Y-134354195I-454089J-40D01*
G01*
G04 #@! TO.C,RGB15*
X137632340Y-54101200D02*
X137632340Y-51406260D01*
X138089540Y-50949060D02*
X140378080Y-50954661D01*
X140378080Y-54555699D02*
X138087000Y-54555860D01*
X140829200Y-51356520D02*
X140829200Y-54156520D01*
X137632340Y-51406260D02*
G75*
G02*
X138089540Y-50949060I457200J0D01*
G01*
X138087000Y-54555860D02*
G75*
G02*
X137632340Y-54101200I1J454661D01*
G01*
X140378080Y-50954661D02*
G75*
G02*
X140829195Y-51356521I40J-454089D01*
G01*
X140829200Y-54156520D02*
G75*
G02*
X140378080Y-54555699I-451122J55322D01*
G01*
G04 #@! TO.C,RGB24*
X169630800Y-54153480D02*
X169630800Y-51353480D01*
X170081920Y-50954301D02*
X172373000Y-50954140D01*
X172370460Y-54560940D02*
X170081920Y-54555339D01*
X172827660Y-51408800D02*
X172827660Y-54103740D01*
X169630800Y-51353480D02*
G75*
G02*
X170081920Y-50954301I451122J-55322D01*
G01*
X170081920Y-54555339D02*
G75*
G02*
X169630805Y-54153479I-40J454089D01*
G01*
X172373000Y-50954140D02*
G75*
G02*
X172827660Y-51408800I-1J-454661D01*
G01*
X172827660Y-54103740D02*
G75*
G02*
X172370460Y-54560940I-457200J0D01*
G01*
G04 #@! TO.C,RGB1*
X57179301Y-78253080D02*
X57179140Y-75962000D01*
X57633800Y-75507340D02*
X60328740Y-75507340D01*
X60378480Y-78704200D02*
X57578480Y-78704200D01*
X60785940Y-75964540D02*
X60780339Y-78253080D01*
X57179140Y-75962000D02*
G75*
G02*
X57633800Y-75507340I454661J-1D01*
G01*
X57578480Y-78704200D02*
G75*
G02*
X57179301Y-78253080I55322J451122D01*
G01*
X60328740Y-75507340D02*
G75*
G02*
X60785940Y-75964540I0J-457200D01*
G01*
X60780339Y-78253080D02*
G75*
G02*
X60378479Y-78704195I-454089J-40D01*
G01*
G04 #@! TO.C,RGB31*
X169630800Y-102153480D02*
X169630800Y-99353480D01*
X170081920Y-98954301D02*
X172373000Y-98954140D01*
X172370460Y-102560940D02*
X170081920Y-102555339D01*
X172827660Y-99408800D02*
X172827660Y-102103740D01*
X169630800Y-99353480D02*
G75*
G02*
X170081920Y-98954301I451122J-55322D01*
G01*
X170081920Y-102555339D02*
G75*
G02*
X169630805Y-102153479I-40J454089D01*
G01*
X172373000Y-98954140D02*
G75*
G02*
X172827660Y-99408800I-1J-454661D01*
G01*
X172827660Y-102103740D02*
G75*
G02*
X172370460Y-102560940I-457200J0D01*
G01*
G04 #@! TO.C,RGB77*
X121424060Y-165895460D02*
X121429661Y-163606920D01*
X121831520Y-163155800D02*
X124631520Y-163155800D01*
X124576200Y-166352660D02*
X121881260Y-166352660D01*
X125030699Y-163606920D02*
X125030860Y-165898000D01*
X121429661Y-163606920D02*
G75*
G02*
X121831521Y-163155805I454089J40D01*
G01*
X121881260Y-166352660D02*
G75*
G02*
X121424060Y-165895460I0J457200D01*
G01*
X124631520Y-163155800D02*
G75*
G02*
X125030699Y-163606920I-55322J-451122D01*
G01*
X125030860Y-165898000D02*
G75*
G02*
X124576200Y-166352660I-454661J1D01*
G01*
G04 #@! TO.C,RGB33*
X185429301Y-133903080D02*
X185429140Y-131612000D01*
X185883800Y-131157340D02*
X188578740Y-131157340D01*
X188628480Y-134354200D02*
X185828480Y-134354200D01*
X189035940Y-131614540D02*
X189030339Y-133903080D01*
X185429140Y-131612000D02*
G75*
G02*
X185883800Y-131157340I454661J-1D01*
G01*
X185828480Y-134354200D02*
G75*
G02*
X185429301Y-133903080I55322J451122D01*
G01*
X188578740Y-131157340D02*
G75*
G02*
X189035940Y-131614540I0J-457200D01*
G01*
X189030339Y-133903080D02*
G75*
G02*
X188628479Y-134354195I-454089J-40D01*
G01*
G04 #@! TO.C,RGB83*
X41429301Y-149903080D02*
X41429140Y-147612000D01*
X41883800Y-147157340D02*
X44578740Y-147157340D01*
X44628480Y-150354200D02*
X41828480Y-150354200D01*
X45035940Y-147614540D02*
X45030339Y-149903080D01*
X41429140Y-147612000D02*
G75*
G02*
X41883800Y-147157340I454661J-1D01*
G01*
X41828480Y-150354200D02*
G75*
G02*
X41429301Y-149903080I55322J451122D01*
G01*
X44578740Y-147157340D02*
G75*
G02*
X45035940Y-147614540I0J-457200D01*
G01*
X45030339Y-149903080D02*
G75*
G02*
X44628479Y-150354195I-454089J-40D01*
G01*
G04 #@! TO.C,RGB48*
X225414060Y-245345460D02*
X225419661Y-243056920D01*
X225821520Y-242605800D02*
X228621520Y-242605800D01*
X228566200Y-245802660D02*
X225871260Y-245802660D01*
X229020699Y-243056920D02*
X229020860Y-245348000D01*
X225419661Y-243056920D02*
G75*
G02*
X225821521Y-242605805I454089J40D01*
G01*
X225871260Y-245802660D02*
G75*
G02*
X225414060Y-245345460I0J457200D01*
G01*
X228621520Y-242605800D02*
G75*
G02*
X229020699Y-243056920I-55322J-451122D01*
G01*
X229020860Y-245348000D02*
G75*
G02*
X228566200Y-245802660I-454661J1D01*
G01*
G04 #@! TO.C,RGB87*
X105429301Y-149903080D02*
X105429140Y-147612000D01*
X105883800Y-147157340D02*
X108578740Y-147157340D01*
X108628480Y-150354200D02*
X105828480Y-150354200D01*
X109035940Y-147614540D02*
X109030339Y-149903080D01*
X105429140Y-147612000D02*
G75*
G02*
X105883800Y-147157340I454661J-1D01*
G01*
X105828480Y-150354200D02*
G75*
G02*
X105429301Y-149903080I55322J451122D01*
G01*
X108578740Y-147157340D02*
G75*
G02*
X109035940Y-147614540I0J-457200D01*
G01*
X109030339Y-149903080D02*
G75*
G02*
X108628479Y-150354195I-454089J-40D01*
G01*
G04 #@! TO.C,RGB69*
X81424060Y-245345460D02*
X81429661Y-243056920D01*
X81831520Y-242605800D02*
X84631520Y-242605800D01*
X84576200Y-245802660D02*
X81881260Y-245802660D01*
X85030699Y-243056920D02*
X85030860Y-245348000D01*
X81429661Y-243056920D02*
G75*
G02*
X81831521Y-242605805I454089J40D01*
G01*
X81881260Y-245802660D02*
G75*
G02*
X81424060Y-245345460I0J457200D01*
G01*
X84631520Y-242605800D02*
G75*
G02*
X85030699Y-243056920I-55322J-451122D01*
G01*
X85030860Y-245348000D02*
G75*
G02*
X84576200Y-245802660I-454661J1D01*
G01*
G04 #@! TO.C,RGB63*
X153632340Y-230101200D02*
X153632340Y-227406260D01*
X154089540Y-226949060D02*
X156378080Y-226954661D01*
X156378080Y-230555699D02*
X154087000Y-230555860D01*
X156829200Y-227356520D02*
X156829200Y-230156520D01*
X153632340Y-227406260D02*
G75*
G02*
X154089540Y-226949060I457200J0D01*
G01*
X154087000Y-230555860D02*
G75*
G02*
X153632340Y-230101200I1J454661D01*
G01*
X156378080Y-226954661D02*
G75*
G02*
X156829195Y-227356521I40J-454089D01*
G01*
X156829200Y-230156520D02*
G75*
G02*
X156378080Y-230555699I-451122J55322D01*
G01*
G04 #@! TO.C,RGB16*
X137632340Y-38101200D02*
X137632340Y-35406260D01*
X138089540Y-34949060D02*
X140378080Y-34954661D01*
X140378080Y-38555699D02*
X138087000Y-38555860D01*
X140829200Y-35356520D02*
X140829200Y-38156520D01*
X137632340Y-35406260D02*
G75*
G02*
X138089540Y-34949060I457200J0D01*
G01*
X138087000Y-38555860D02*
G75*
G02*
X137632340Y-38101200I1J454661D01*
G01*
X140378080Y-34954661D02*
G75*
G02*
X140829195Y-35356521I40J-454089D01*
G01*
X140829200Y-38156520D02*
G75*
G02*
X140378080Y-38555699I-451122J55322D01*
G01*
G04 #@! TO.C,RGB5*
X41429301Y-133903080D02*
X41429140Y-131612000D01*
X41883800Y-131157340D02*
X44578740Y-131157340D01*
X44628480Y-134354200D02*
X41828480Y-134354200D01*
X45035940Y-131614540D02*
X45030339Y-133903080D01*
X41429140Y-131612000D02*
G75*
G02*
X41883800Y-131157340I454661J-1D01*
G01*
X41828480Y-134354200D02*
G75*
G02*
X41429301Y-133903080I55322J451122D01*
G01*
X44578740Y-131157340D02*
G75*
G02*
X45035940Y-131614540I0J-457200D01*
G01*
X45030339Y-133903080D02*
G75*
G02*
X44628479Y-134354195I-454089J-40D01*
G01*
G04 #@! TO.C,RGB7*
X73429301Y-133903080D02*
X73429140Y-131612000D01*
X73883800Y-131157340D02*
X76578740Y-131157340D01*
X76628480Y-134354200D02*
X73828480Y-134354200D01*
X77035940Y-131614540D02*
X77030339Y-133903080D01*
X73429140Y-131612000D02*
G75*
G02*
X73883800Y-131157340I454661J-1D01*
G01*
X73828480Y-134354200D02*
G75*
G02*
X73429301Y-133903080I55322J451122D01*
G01*
X76578740Y-131157340D02*
G75*
G02*
X77035940Y-131614540I0J-457200D01*
G01*
X77030339Y-133903080D02*
G75*
G02*
X76628479Y-134354195I-454089J-40D01*
G01*
G04 #@! TO.C,RGB72*
X106324060Y-222245460D02*
X106329661Y-219956920D01*
X106731520Y-219505800D02*
X109531520Y-219505800D01*
X109476200Y-222702660D02*
X106781260Y-222702660D01*
X109930699Y-219956920D02*
X109930860Y-222248000D01*
X106329661Y-219956920D02*
G75*
G02*
X106731521Y-219505805I454089J40D01*
G01*
X106781260Y-222702660D02*
G75*
G02*
X106324060Y-222245460I0J457200D01*
G01*
X109531520Y-219505800D02*
G75*
G02*
X109930699Y-219956920I-55322J-451122D01*
G01*
X109930860Y-222248000D02*
G75*
G02*
X109476200Y-222702660I-454661J1D01*
G01*
G04 #@! TO.C,RGB29*
X169630800Y-70153480D02*
X169630800Y-67353480D01*
X170081920Y-66954301D02*
X172373000Y-66954140D01*
X172370460Y-70560940D02*
X170081920Y-70555339D01*
X172827660Y-67408800D02*
X172827660Y-70103740D01*
X169630800Y-67353480D02*
G75*
G02*
X170081920Y-66954301I451122J-55322D01*
G01*
X170081920Y-70555339D02*
G75*
G02*
X169630805Y-70153479I-40J454089D01*
G01*
X172373000Y-66954140D02*
G75*
G02*
X172827660Y-67408800I-1J-454661D01*
G01*
X172827660Y-70103740D02*
G75*
G02*
X172370460Y-70560940I-457200J0D01*
G01*
G04 #@! TO.C,RGB21*
X153630800Y-102153480D02*
X153630800Y-99353480D01*
X154081920Y-98954301D02*
X156373000Y-98954140D01*
X156370460Y-102560940D02*
X154081920Y-102555339D01*
X156827660Y-99408800D02*
X156827660Y-102103740D01*
X153630800Y-99353480D02*
G75*
G02*
X154081920Y-98954301I451122J-55322D01*
G01*
X154081920Y-102555339D02*
G75*
G02*
X153630805Y-102153479I-40J454089D01*
G01*
X156373000Y-98954140D02*
G75*
G02*
X156827660Y-99408800I-1J-454661D01*
G01*
X156827660Y-102103740D02*
G75*
G02*
X156370460Y-102560940I-457200J0D01*
G01*
G04 #@! TO.C,RGB22*
X153630800Y-118153480D02*
X153630800Y-115353480D01*
X154081920Y-114954301D02*
X156373000Y-114954140D01*
X156370460Y-118560940D02*
X154081920Y-118555339D01*
X156827660Y-115408800D02*
X156827660Y-118103740D01*
X153630800Y-115353480D02*
G75*
G02*
X154081920Y-114954301I451122J-55322D01*
G01*
X154081920Y-118555339D02*
G75*
G02*
X153630805Y-118153479I-40J454089D01*
G01*
X156373000Y-114954140D02*
G75*
G02*
X156827660Y-115408800I-1J-454661D01*
G01*
X156827660Y-118103740D02*
G75*
G02*
X156370460Y-118560940I-457200J0D01*
G01*
G04 #@! TO.C,RGB51*
X233424060Y-165895460D02*
X233429661Y-163606920D01*
X233831520Y-163155800D02*
X236631520Y-163155800D01*
X236576200Y-166352660D02*
X233881260Y-166352660D01*
X237030699Y-163606920D02*
X237030860Y-165898000D01*
X233429661Y-163606920D02*
G75*
G02*
X233831521Y-163155805I454089J40D01*
G01*
X233881260Y-166352660D02*
G75*
G02*
X233424060Y-165895460I0J457200D01*
G01*
X236631520Y-163155800D02*
G75*
G02*
X237030699Y-163606920I-55322J-451122D01*
G01*
X237030860Y-165898000D02*
G75*
G02*
X236576200Y-166352660I-454661J1D01*
G01*
G04 #@! TO.C,RGB47*
X250314060Y-222245460D02*
X250319661Y-219956920D01*
X250721520Y-219505800D02*
X253521520Y-219505800D01*
X253466200Y-222702660D02*
X250771260Y-222702660D01*
X253920699Y-219956920D02*
X253920860Y-222248000D01*
X250319661Y-219956920D02*
G75*
G02*
X250721521Y-219505805I454089J40D01*
G01*
X250771260Y-222702660D02*
G75*
G02*
X250314060Y-222245460I0J457200D01*
G01*
X253521520Y-219505800D02*
G75*
G02*
X253920699Y-219956920I-55322J-451122D01*
G01*
X253920860Y-222248000D02*
G75*
G02*
X253466200Y-222702660I-454661J1D01*
G01*
G04 #@! TO.C,RGB45*
X265424060Y-165895460D02*
X265429661Y-163606920D01*
X265831520Y-163155800D02*
X268631520Y-163155800D01*
X268576200Y-166352660D02*
X265881260Y-166352660D01*
X269030699Y-163606920D02*
X269030860Y-165898000D01*
X265429661Y-163606920D02*
G75*
G02*
X265831521Y-163155805I454089J40D01*
G01*
X265881260Y-166352660D02*
G75*
G02*
X265424060Y-165895460I0J457200D01*
G01*
X268631520Y-163155800D02*
G75*
G02*
X269030699Y-163606920I-55322J-451122D01*
G01*
X269030860Y-165898000D02*
G75*
G02*
X268576200Y-166352660I-454661J1D01*
G01*
G04 #@! TO.C,RGB42*
X217424060Y-149895460D02*
X217429661Y-147606920D01*
X217831520Y-147155800D02*
X220631520Y-147155800D01*
X220576200Y-150352660D02*
X217881260Y-150352660D01*
X221030699Y-147606920D02*
X221030860Y-149898000D01*
X217429661Y-147606920D02*
G75*
G02*
X217831521Y-147155805I454089J40D01*
G01*
X217881260Y-150352660D02*
G75*
G02*
X217424060Y-149895460I0J457200D01*
G01*
X220631520Y-147155800D02*
G75*
G02*
X221030699Y-147606920I-55322J-451122D01*
G01*
X221030860Y-149898000D02*
G75*
G02*
X220576200Y-150352660I-454661J1D01*
G01*
G04 #@! TO.C,RGB78*
X105424060Y-165895460D02*
X105429661Y-163606920D01*
X105831520Y-163155800D02*
X108631520Y-163155800D01*
X108576200Y-166352660D02*
X105881260Y-166352660D01*
X109030699Y-163606920D02*
X109030860Y-165898000D01*
X105429661Y-163606920D02*
G75*
G02*
X105831521Y-163155805I454089J40D01*
G01*
X105881260Y-166352660D02*
G75*
G02*
X105424060Y-165895460I0J457200D01*
G01*
X108631520Y-163155800D02*
G75*
G02*
X109030699Y-163606920I-55322J-451122D01*
G01*
X109030860Y-165898000D02*
G75*
G02*
X108576200Y-166352660I-454661J1D01*
G01*
G04 #@! TO.C,RGB43*
X201424060Y-149895460D02*
X201429661Y-147606920D01*
X201831520Y-147155800D02*
X204631520Y-147155800D01*
X204576200Y-150352660D02*
X201881260Y-150352660D01*
X205030699Y-147606920D02*
X205030860Y-149898000D01*
X201429661Y-147606920D02*
G75*
G02*
X201831521Y-147155805I454089J40D01*
G01*
X201881260Y-150352660D02*
G75*
G02*
X201424060Y-149895460I0J457200D01*
G01*
X204631520Y-147155800D02*
G75*
G02*
X205030699Y-147606920I-55322J-451122D01*
G01*
X205030860Y-149898000D02*
G75*
G02*
X204576200Y-150352660I-454661J1D01*
G01*
G04 #@! TO.C,RGB6*
X57429301Y-133903080D02*
X57429140Y-131612000D01*
X57883800Y-131157340D02*
X60578740Y-131157340D01*
X60628480Y-134354200D02*
X57828480Y-134354200D01*
X61035940Y-131614540D02*
X61030339Y-133903080D01*
X57429140Y-131612000D02*
G75*
G02*
X57883800Y-131157340I454661J-1D01*
G01*
X57828480Y-134354200D02*
G75*
G02*
X57429301Y-133903080I55322J451122D01*
G01*
X60578740Y-131157340D02*
G75*
G02*
X61035940Y-131614540I0J-457200D01*
G01*
X61030339Y-133903080D02*
G75*
G02*
X60628479Y-134354195I-454089J-40D01*
G01*
G04 #@! TO.C,RGB58*
X169630800Y-230153480D02*
X169630800Y-227353480D01*
X170081920Y-226954301D02*
X172373000Y-226954140D01*
X172370460Y-230560940D02*
X170081920Y-230555339D01*
X172827660Y-227408800D02*
X172827660Y-230103740D01*
X169630800Y-227353480D02*
G75*
G02*
X170081920Y-226954301I451122J-55322D01*
G01*
X170081920Y-230555339D02*
G75*
G02*
X169630805Y-230153479I-40J454089D01*
G01*
X172373000Y-226954140D02*
G75*
G02*
X172827660Y-227408800I-1J-454661D01*
G01*
X172827660Y-230103740D02*
G75*
G02*
X172370460Y-230560940I-457200J0D01*
G01*
G04 #@! TO.C,RGB14*
X137632340Y-70101200D02*
X137632340Y-67406260D01*
X138089540Y-66949060D02*
X140378080Y-66954661D01*
X140378080Y-70555699D02*
X138087000Y-70555860D01*
X140829200Y-67356520D02*
X140829200Y-70156520D01*
X137632340Y-67406260D02*
G75*
G02*
X138089540Y-66949060I457200J0D01*
G01*
X138087000Y-70555860D02*
G75*
G02*
X137632340Y-70101200I1J454661D01*
G01*
X140378080Y-66954661D02*
G75*
G02*
X140829195Y-67356521I40J-454089D01*
G01*
X140829200Y-70156520D02*
G75*
G02*
X140378080Y-70555699I-451122J55322D01*
G01*
G04 #@! TO.C,RGB65*
X153632340Y-198101200D02*
X153632340Y-195406260D01*
X154089540Y-194949060D02*
X156378080Y-194954661D01*
X156378080Y-198555699D02*
X154087000Y-198555860D01*
X156829200Y-195356520D02*
X156829200Y-198156520D01*
X153632340Y-195406260D02*
G75*
G02*
X154089540Y-194949060I457200J0D01*
G01*
X154087000Y-198555860D02*
G75*
G02*
X153632340Y-198101200I1J454661D01*
G01*
X156378080Y-194954661D02*
G75*
G02*
X156829195Y-195356521I40J-454089D01*
G01*
X156829200Y-198156520D02*
G75*
G02*
X156378080Y-198555699I-451122J55322D01*
G01*
G04 #@! TO.C,RGB4*
X81424060Y-101345460D02*
X81429661Y-99056920D01*
X81831520Y-98605800D02*
X84631520Y-98605800D01*
X84576200Y-101802660D02*
X81881260Y-101802660D01*
X85030699Y-99056920D02*
X85030860Y-101348000D01*
X81429661Y-99056920D02*
G75*
G02*
X81831521Y-98605805I454089J40D01*
G01*
X81881260Y-101802660D02*
G75*
G02*
X81424060Y-101345460I0J457200D01*
G01*
X84631520Y-98605800D02*
G75*
G02*
X85030699Y-99056920I-55322J-451122D01*
G01*
X85030860Y-101348000D02*
G75*
G02*
X84576200Y-101802660I-454661J1D01*
G01*
G04 #@! TO.C,RGB19*
X153630800Y-70153480D02*
X153630800Y-67353480D01*
X154081920Y-66954301D02*
X156373000Y-66954140D01*
X156370460Y-70560940D02*
X154081920Y-70555339D01*
X156827660Y-67408800D02*
X156827660Y-70103740D01*
X153630800Y-67353480D02*
G75*
G02*
X154081920Y-66954301I451122J-55322D01*
G01*
X154081920Y-70555339D02*
G75*
G02*
X153630805Y-70153479I-40J454089D01*
G01*
X156373000Y-66954140D02*
G75*
G02*
X156827660Y-67408800I-1J-454661D01*
G01*
X156827660Y-70103740D02*
G75*
G02*
X156370460Y-70560940I-457200J0D01*
G01*
G04 #@! TO.C,RGB75*
X137632340Y-198101200D02*
X137632340Y-195406260D01*
X138089540Y-194949060D02*
X140378080Y-194954661D01*
X140378080Y-198555699D02*
X138087000Y-198555860D01*
X140829200Y-195356520D02*
X140829200Y-198156520D01*
X137632340Y-195406260D02*
G75*
G02*
X138089540Y-194949060I457200J0D01*
G01*
X138087000Y-198555860D02*
G75*
G02*
X137632340Y-198101200I1J454661D01*
G01*
X140378080Y-194954661D02*
G75*
G02*
X140829195Y-195356521I40J-454089D01*
G01*
X140829200Y-198156520D02*
G75*
G02*
X140378080Y-198555699I-451122J55322D01*
G01*
G04 #@! TO.C,RGB59*
X169630800Y-246153480D02*
X169630800Y-243353480D01*
X170081920Y-242954301D02*
X172373000Y-242954140D01*
X172370460Y-246560940D02*
X170081920Y-246555339D01*
X172827660Y-243408800D02*
X172827660Y-246103740D01*
X169630800Y-243353480D02*
G75*
G02*
X170081920Y-242954301I451122J-55322D01*
G01*
X170081920Y-246555339D02*
G75*
G02*
X169630805Y-246153479I-40J454089D01*
G01*
X172373000Y-242954140D02*
G75*
G02*
X172827660Y-243408800I-1J-454661D01*
G01*
X172827660Y-246103740D02*
G75*
G02*
X172370460Y-246560940I-457200J0D01*
G01*
G04 #@! TO.C,RGB50*
X225419301Y-197653080D02*
X225419140Y-195362000D01*
X225873800Y-194907340D02*
X228568740Y-194907340D01*
X228618480Y-198104200D02*
X225818480Y-198104200D01*
X229025940Y-195364540D02*
X229020339Y-197653080D01*
X225419140Y-195362000D02*
G75*
G02*
X225873800Y-194907340I454661J-1D01*
G01*
X225818480Y-198104200D02*
G75*
G02*
X225419301Y-197653080I55322J451122D01*
G01*
X228568740Y-194907340D02*
G75*
G02*
X229025940Y-195364540I0J-457200D01*
G01*
X229020339Y-197653080D02*
G75*
G02*
X228618479Y-198104195I-454089J-40D01*
G01*
G04 #@! TO.C,RGB46*
X249424060Y-165895460D02*
X249429661Y-163606920D01*
X249831520Y-163155800D02*
X252631520Y-163155800D01*
X252576200Y-166352660D02*
X249881260Y-166352660D01*
X253030699Y-163606920D02*
X253030860Y-165898000D01*
X249429661Y-163606920D02*
G75*
G02*
X249831521Y-163155805I454089J40D01*
G01*
X249881260Y-166352660D02*
G75*
G02*
X249424060Y-165895460I0J457200D01*
G01*
X252631520Y-163155800D02*
G75*
G02*
X253030699Y-163606920I-55322J-451122D01*
G01*
X253030860Y-165898000D02*
G75*
G02*
X252576200Y-166352660I-454661J1D01*
G01*
G04 #@! TO.C,RGB3*
X106324060Y-78245460D02*
X106329661Y-75956920D01*
X106731520Y-75505800D02*
X109531520Y-75505800D01*
X109476200Y-78702660D02*
X106781260Y-78702660D01*
X109930699Y-75956920D02*
X109930860Y-78248000D01*
X106329661Y-75956920D02*
G75*
G02*
X106731521Y-75505805I454089J40D01*
G01*
X106781260Y-78702660D02*
G75*
G02*
X106324060Y-78245460I0J457200D01*
G01*
X109531520Y-75505800D02*
G75*
G02*
X109930699Y-75956920I-55322J-451122D01*
G01*
X109930860Y-78248000D02*
G75*
G02*
X109476200Y-78702660I-454661J1D01*
G01*
G04 #@! TO.C,RGB11*
X137632340Y-118101200D02*
X137632340Y-115406260D01*
X138089540Y-114949060D02*
X140378080Y-114954661D01*
X140378080Y-118555699D02*
X138087000Y-118555860D01*
X140829200Y-115356520D02*
X140829200Y-118156520D01*
X137632340Y-115406260D02*
G75*
G02*
X138089540Y-114949060I457200J0D01*
G01*
X138087000Y-118555860D02*
G75*
G02*
X137632340Y-118101200I1J454661D01*
G01*
X140378080Y-114954661D02*
G75*
G02*
X140829195Y-115356521I40J-454089D01*
G01*
X140829200Y-118156520D02*
G75*
G02*
X140378080Y-118555699I-451122J55322D01*
G01*
G04 #@! TO.C,RGB84*
X57429301Y-149903080D02*
X57429140Y-147612000D01*
X57883800Y-147157340D02*
X60578740Y-147157340D01*
X60628480Y-150354200D02*
X57828480Y-150354200D01*
X61035940Y-147614540D02*
X61030339Y-149903080D01*
X57429140Y-147612000D02*
G75*
G02*
X57883800Y-147157340I454661J-1D01*
G01*
X57828480Y-150354200D02*
G75*
G02*
X57429301Y-149903080I55322J451122D01*
G01*
X60578740Y-147157340D02*
G75*
G02*
X61035940Y-147614540I0J-457200D01*
G01*
X61030339Y-149903080D02*
G75*
G02*
X60628479Y-150354195I-454089J-40D01*
G01*
G04 #@! TO.C,RGB44*
X185424060Y-149895460D02*
X185429661Y-147606920D01*
X185831520Y-147155800D02*
X188631520Y-147155800D01*
X188576200Y-150352660D02*
X185881260Y-150352660D01*
X189030699Y-147606920D02*
X189030860Y-149898000D01*
X185429661Y-147606920D02*
G75*
G02*
X185831521Y-147155805I454089J40D01*
G01*
X185881260Y-150352660D02*
G75*
G02*
X185424060Y-149895460I0J457200D01*
G01*
X188631520Y-147155800D02*
G75*
G02*
X189030699Y-147606920I-55322J-451122D01*
G01*
X189030860Y-149898000D02*
G75*
G02*
X188576200Y-150352660I-454661J1D01*
G01*
G04 #@! TO.C,RGB35*
X217429301Y-133903080D02*
X217429140Y-131612000D01*
X217883800Y-131157340D02*
X220578740Y-131157340D01*
X220628480Y-134354200D02*
X217828480Y-134354200D01*
X221035940Y-131614540D02*
X221030339Y-133903080D01*
X217429140Y-131612000D02*
G75*
G02*
X217883800Y-131157340I454661J-1D01*
G01*
X217828480Y-134354200D02*
G75*
G02*
X217429301Y-133903080I55322J451122D01*
G01*
X220578740Y-131157340D02*
G75*
G02*
X221035940Y-131614540I0J-457200D01*
G01*
X221030339Y-133903080D02*
G75*
G02*
X220628479Y-134354195I-454089J-40D01*
G01*
G04 #@! TO.C,RGB85*
X73429301Y-149903080D02*
X73429140Y-147612000D01*
X73883800Y-147157340D02*
X76578740Y-147157340D01*
X76628480Y-150354200D02*
X73828480Y-150354200D01*
X77035940Y-147614540D02*
X77030339Y-149903080D01*
X73429140Y-147612000D02*
G75*
G02*
X73883800Y-147157340I454661J-1D01*
G01*
X73828480Y-150354200D02*
G75*
G02*
X73429301Y-149903080I55322J451122D01*
G01*
X76578740Y-147157340D02*
G75*
G02*
X77035940Y-147614540I0J-457200D01*
G01*
X77030339Y-149903080D02*
G75*
G02*
X76628479Y-150354195I-454089J-40D01*
G01*
G04 #@! TO.C,RGB68*
X137632340Y-246101200D02*
X137632340Y-243406260D01*
X138089540Y-242949060D02*
X140378080Y-242954661D01*
X140378080Y-246555699D02*
X138087000Y-246555860D01*
X140829200Y-243356520D02*
X140829200Y-246156520D01*
X137632340Y-243406260D02*
G75*
G02*
X138089540Y-242949060I457200J0D01*
G01*
X138087000Y-246555860D02*
G75*
G02*
X137632340Y-246101200I1J454661D01*
G01*
X140378080Y-242954661D02*
G75*
G02*
X140829195Y-243356521I40J-454089D01*
G01*
X140829200Y-246156520D02*
G75*
G02*
X140378080Y-246555699I-451122J55322D01*
G01*
G04 #@! TO.C,RGB64*
X153632340Y-214101200D02*
X153632340Y-211406260D01*
X154089540Y-210949060D02*
X156378080Y-210954661D01*
X156378080Y-214555699D02*
X154087000Y-214555860D01*
X156829200Y-211356520D02*
X156829200Y-214156520D01*
X153632340Y-211406260D02*
G75*
G02*
X154089540Y-210949060I457200J0D01*
G01*
X154087000Y-214555860D02*
G75*
G02*
X153632340Y-214101200I1J454661D01*
G01*
X156378080Y-210954661D02*
G75*
G02*
X156829195Y-211356521I40J-454089D01*
G01*
X156829200Y-214156520D02*
G75*
G02*
X156378080Y-214555699I-451122J55322D01*
G01*
G04 #@! TO.C,RGB12*
X137632340Y-102101200D02*
X137632340Y-99406260D01*
X138089540Y-98949060D02*
X140378080Y-98954661D01*
X140378080Y-102555699D02*
X138087000Y-102555860D01*
X140829200Y-99356520D02*
X140829200Y-102156520D01*
X137632340Y-99406260D02*
G75*
G02*
X138089540Y-98949060I457200J0D01*
G01*
X138087000Y-102555860D02*
G75*
G02*
X137632340Y-102101200I1J454661D01*
G01*
X140378080Y-98954661D02*
G75*
G02*
X140829195Y-99356521I40J-454089D01*
G01*
X140829200Y-102156520D02*
G75*
G02*
X140378080Y-102555699I-451122J55322D01*
G01*
G04 #@! TO.C,RGB20*
X153630800Y-86153480D02*
X153630800Y-83353480D01*
X154081920Y-82954301D02*
X156373000Y-82954140D01*
X156370460Y-86560940D02*
X154081920Y-86555339D01*
X156827660Y-83408800D02*
X156827660Y-86103740D01*
X153630800Y-83353480D02*
G75*
G02*
X154081920Y-82954301I451122J-55322D01*
G01*
X154081920Y-86555339D02*
G75*
G02*
X153630805Y-86153479I-40J454089D01*
G01*
X156373000Y-82954140D02*
G75*
G02*
X156827660Y-83408800I-1J-454661D01*
G01*
X156827660Y-86103740D02*
G75*
G02*
X156370460Y-86560940I-457200J0D01*
G01*
G04 #@! TO.C,RGB18*
X153630800Y-54153480D02*
X153630800Y-51353480D01*
X154081920Y-50954301D02*
X156373000Y-50954140D01*
X156370460Y-54560940D02*
X154081920Y-54555339D01*
X156827660Y-51408800D02*
X156827660Y-54103740D01*
X153630800Y-51353480D02*
G75*
G02*
X154081920Y-50954301I451122J-55322D01*
G01*
X154081920Y-54555339D02*
G75*
G02*
X153630805Y-54153479I-40J454089D01*
G01*
X156373000Y-50954140D02*
G75*
G02*
X156827660Y-51408800I-1J-454661D01*
G01*
X156827660Y-54103740D02*
G75*
G02*
X156370460Y-54560940I-457200J0D01*
G01*
G04 #@! TO.C,RGB81*
X57424060Y-165895460D02*
X57429661Y-163606920D01*
X57831520Y-163155800D02*
X60631520Y-163155800D01*
X60576200Y-166352660D02*
X57881260Y-166352660D01*
X61030699Y-163606920D02*
X61030860Y-165898000D01*
X57429661Y-163606920D02*
G75*
G02*
X57831521Y-163155805I454089J40D01*
G01*
X57881260Y-166352660D02*
G75*
G02*
X57424060Y-165895460I0J457200D01*
G01*
X60631520Y-163155800D02*
G75*
G02*
X61030699Y-163606920I-55322J-451122D01*
G01*
X61030860Y-165898000D02*
G75*
G02*
X60576200Y-166352660I-454661J1D01*
G01*
G04 #@! TO.C,RGB38*
X265429301Y-133903080D02*
X265429140Y-131612000D01*
X265883800Y-131157340D02*
X268578740Y-131157340D01*
X268628480Y-134354200D02*
X265828480Y-134354200D01*
X269035940Y-131614540D02*
X269030339Y-133903080D01*
X265429140Y-131612000D02*
G75*
G02*
X265883800Y-131157340I454661J-1D01*
G01*
X265828480Y-134354200D02*
G75*
G02*
X265429301Y-133903080I55322J451122D01*
G01*
X268578740Y-131157340D02*
G75*
G02*
X269035940Y-131614540I0J-457200D01*
G01*
X269030339Y-133903080D02*
G75*
G02*
X268628479Y-134354195I-454089J-40D01*
G01*
G04 #@! TO.C,RGB80*
X73424060Y-165895460D02*
X73429661Y-163606920D01*
X73831520Y-163155800D02*
X76631520Y-163155800D01*
X76576200Y-166352660D02*
X73881260Y-166352660D01*
X77030699Y-163606920D02*
X77030860Y-165898000D01*
X73429661Y-163606920D02*
G75*
G02*
X73831521Y-163155805I454089J40D01*
G01*
X73881260Y-166352660D02*
G75*
G02*
X73424060Y-165895460I0J457200D01*
G01*
X76631520Y-163155800D02*
G75*
G02*
X77030699Y-163606920I-55322J-451122D01*
G01*
X77030860Y-165898000D02*
G75*
G02*
X76576200Y-166352660I-454661J1D01*
G01*
G04 #@! TO.C,RGB40*
X249424060Y-149895460D02*
X249429661Y-147606920D01*
X249831520Y-147155800D02*
X252631520Y-147155800D01*
X252576200Y-150352660D02*
X249881260Y-150352660D01*
X253030699Y-147606920D02*
X253030860Y-149898000D01*
X249429661Y-147606920D02*
G75*
G02*
X249831521Y-147155805I454089J40D01*
G01*
X249881260Y-150352660D02*
G75*
G02*
X249424060Y-149895460I0J457200D01*
G01*
X252631520Y-147155800D02*
G75*
G02*
X253030699Y-147606920I-55322J-451122D01*
G01*
X253030860Y-149898000D02*
G75*
G02*
X252576200Y-150352660I-454661J1D01*
G01*
G04 #@! TO.C,RGB25*
X225419301Y-53653080D02*
X225419140Y-51362000D01*
X225873800Y-50907340D02*
X228568740Y-50907340D01*
X228618480Y-54104200D02*
X225818480Y-54104200D01*
X229025940Y-51364540D02*
X229020339Y-53653080D01*
X225419140Y-51362000D02*
G75*
G02*
X225873800Y-50907340I454661J-1D01*
G01*
X225818480Y-54104200D02*
G75*
G02*
X225419301Y-53653080I55322J451122D01*
G01*
X228568740Y-50907340D02*
G75*
G02*
X229025940Y-51364540I0J-457200D01*
G01*
X229020339Y-53653080D02*
G75*
G02*
X228618479Y-54104195I-454089J-40D01*
G01*
G04 #@! TO.C,RGB53*
X201424060Y-165895460D02*
X201429661Y-163606920D01*
X201831520Y-163155800D02*
X204631520Y-163155800D01*
X204576200Y-166352660D02*
X201881260Y-166352660D01*
X205030699Y-163606920D02*
X205030860Y-165898000D01*
X201429661Y-163606920D02*
G75*
G02*
X201831521Y-163155805I454089J40D01*
G01*
X201881260Y-166352660D02*
G75*
G02*
X201424060Y-165895460I0J457200D01*
G01*
X204631520Y-163155800D02*
G75*
G02*
X205030699Y-163606920I-55322J-451122D01*
G01*
X205030860Y-165898000D02*
G75*
G02*
X204576200Y-166352660I-454661J1D01*
G01*
G04 #@! TO.C,RGB49*
X201169301Y-222253080D02*
X201169140Y-219962000D01*
X201623800Y-219507340D02*
X204318740Y-219507340D01*
X204368480Y-222704200D02*
X201568480Y-222704200D01*
X204775940Y-219964540D02*
X204770339Y-222253080D01*
X201169140Y-219962000D02*
G75*
G02*
X201623800Y-219507340I454661J-1D01*
G01*
X201568480Y-222704200D02*
G75*
G02*
X201169301Y-222253080I55322J451122D01*
G01*
X204318740Y-219507340D02*
G75*
G02*
X204775940Y-219964540I0J-457200D01*
G01*
X204770339Y-222253080D02*
G75*
G02*
X204368479Y-222704195I-454089J-40D01*
G01*
G04 #@! TO.C,RGB88*
X121429301Y-149903080D02*
X121429140Y-147612000D01*
X121883800Y-147157340D02*
X124578740Y-147157340D01*
X124628480Y-150354200D02*
X121828480Y-150354200D01*
X125035940Y-147614540D02*
X125030339Y-149903080D01*
X121429140Y-147612000D02*
G75*
G02*
X121883800Y-147157340I454661J-1D01*
G01*
X121828480Y-150354200D02*
G75*
G02*
X121429301Y-149903080I55322J451122D01*
G01*
X124578740Y-147157340D02*
G75*
G02*
X125035940Y-147614540I0J-457200D01*
G01*
X125030339Y-149903080D02*
G75*
G02*
X124628479Y-150354195I-454089J-40D01*
G01*
G04 #@! TO.C,RGB34*
X201429301Y-133903080D02*
X201429140Y-131612000D01*
X201883800Y-131157340D02*
X204578740Y-131157340D01*
X204628480Y-134354200D02*
X201828480Y-134354200D01*
X205035940Y-131614540D02*
X205030339Y-133903080D01*
X201429140Y-131612000D02*
G75*
G02*
X201883800Y-131157340I454661J-1D01*
G01*
X201828480Y-134354200D02*
G75*
G02*
X201429301Y-133903080I55322J451122D01*
G01*
X204578740Y-131157340D02*
G75*
G02*
X205035940Y-131614540I0J-457200D01*
G01*
X205030339Y-133903080D02*
G75*
G02*
X204628479Y-134354195I-454089J-40D01*
G01*
G04 #@! TO.C,RGB52*
X217424060Y-165895460D02*
X217429661Y-163606920D01*
X217831520Y-163155800D02*
X220631520Y-163155800D01*
X220576200Y-166352660D02*
X217881260Y-166352660D01*
X221030699Y-163606920D02*
X221030860Y-165898000D01*
X217429661Y-163606920D02*
G75*
G02*
X217831521Y-163155805I454089J40D01*
G01*
X217881260Y-166352660D02*
G75*
G02*
X217424060Y-165895460I0J457200D01*
G01*
X220631520Y-163155800D02*
G75*
G02*
X221030699Y-163606920I-55322J-451122D01*
G01*
X221030860Y-165898000D02*
G75*
G02*
X220576200Y-166352660I-454661J1D01*
G01*
G04 #@! TO.C,RGB73*
X137632340Y-230101200D02*
X137632340Y-227406260D01*
X138089540Y-226949060D02*
X140378080Y-226954661D01*
X140378080Y-230555699D02*
X138087000Y-230555860D01*
X140829200Y-227356520D02*
X140829200Y-230156520D01*
X137632340Y-227406260D02*
G75*
G02*
X138089540Y-226949060I457200J0D01*
G01*
X138087000Y-230555860D02*
G75*
G02*
X137632340Y-230101200I1J454661D01*
G01*
X140378080Y-226954661D02*
G75*
G02*
X140829195Y-227356521I40J-454089D01*
G01*
X140829200Y-230156520D02*
G75*
G02*
X140378080Y-230555699I-451122J55322D01*
G01*
G04 #@! TO.C,RGB76*
X137632340Y-182101200D02*
X137632340Y-179406260D01*
X138089540Y-178949060D02*
X140378080Y-178954661D01*
X140378080Y-182555699D02*
X138087000Y-182555860D01*
X140829200Y-179356520D02*
X140829200Y-182156520D01*
X137632340Y-179406260D02*
G75*
G02*
X138089540Y-178949060I457200J0D01*
G01*
X138087000Y-182555860D02*
G75*
G02*
X137632340Y-182101200I1J454661D01*
G01*
X140378080Y-178954661D02*
G75*
G02*
X140829195Y-179356521I40J-454089D01*
G01*
X140829200Y-182156520D02*
G75*
G02*
X140378080Y-182555699I-451122J55322D01*
G01*
G04 #@! TO.C,RGB61*
X153632340Y-262101200D02*
X153632340Y-259406260D01*
X154089540Y-258949060D02*
X156378080Y-258954661D01*
X156378080Y-262555699D02*
X154087000Y-262555860D01*
X156829200Y-259356520D02*
X156829200Y-262156520D01*
X153632340Y-259406260D02*
G75*
G02*
X154089540Y-258949060I457200J0D01*
G01*
X154087000Y-262555860D02*
G75*
G02*
X153632340Y-262101200I1J454661D01*
G01*
X156378080Y-258954661D02*
G75*
G02*
X156829195Y-259356521I40J-454089D01*
G01*
X156829200Y-262156520D02*
G75*
G02*
X156378080Y-262555699I-451122J55322D01*
G01*
G04 #@! TO.C,RGB60*
X169630800Y-262153480D02*
X169630800Y-259353480D01*
X170081920Y-258954301D02*
X172373000Y-258954140D01*
X172370460Y-262560940D02*
X170081920Y-262555339D01*
X172827660Y-259408800D02*
X172827660Y-262103740D01*
X169630800Y-259353480D02*
G75*
G02*
X170081920Y-258954301I451122J-55322D01*
G01*
X170081920Y-262555339D02*
G75*
G02*
X169630805Y-262153479I-40J454089D01*
G01*
X172373000Y-258954140D02*
G75*
G02*
X172827660Y-259408800I-1J-454661D01*
G01*
X172827660Y-262103740D02*
G75*
G02*
X172370460Y-262560940I-457200J0D01*
G01*
G04 #@! TO.C,RGB79*
X89424060Y-165895460D02*
X89429661Y-163606920D01*
X89831520Y-163155800D02*
X92631520Y-163155800D01*
X92576200Y-166352660D02*
X89881260Y-166352660D01*
X93030699Y-163606920D02*
X93030860Y-165898000D01*
X89429661Y-163606920D02*
G75*
G02*
X89831521Y-163155805I454089J40D01*
G01*
X89881260Y-166352660D02*
G75*
G02*
X89424060Y-165895460I0J457200D01*
G01*
X92631520Y-163155800D02*
G75*
G02*
X93030699Y-163606920I-55322J-451122D01*
G01*
X93030860Y-165898000D02*
G75*
G02*
X92576200Y-166352660I-454661J1D01*
G01*
G04 #@! TO.C,RGB36*
X233429301Y-133903080D02*
X233429140Y-131612000D01*
X233883800Y-131157340D02*
X236578740Y-131157340D01*
X236628480Y-134354200D02*
X233828480Y-134354200D01*
X237035940Y-131614540D02*
X237030339Y-133903080D01*
X233429140Y-131612000D02*
G75*
G02*
X233883800Y-131157340I454661J-1D01*
G01*
X233828480Y-134354200D02*
G75*
G02*
X233429301Y-133903080I55322J451122D01*
G01*
X236578740Y-131157340D02*
G75*
G02*
X237035940Y-131614540I0J-457200D01*
G01*
X237030339Y-133903080D02*
G75*
G02*
X236628479Y-134354195I-454089J-40D01*
G01*
G04 #@! TO.C,RGB66*
X153632340Y-182101200D02*
X153632340Y-179406260D01*
X154089540Y-178949060D02*
X156378080Y-178954661D01*
X156378080Y-182555699D02*
X154087000Y-182555860D01*
X156829200Y-179356520D02*
X156829200Y-182156520D01*
X153632340Y-179406260D02*
G75*
G02*
X154089540Y-178949060I457200J0D01*
G01*
X154087000Y-182555860D02*
G75*
G02*
X153632340Y-182101200I1J454661D01*
G01*
X156378080Y-178954661D02*
G75*
G02*
X156829195Y-179356521I40J-454089D01*
G01*
X156829200Y-182156520D02*
G75*
G02*
X156378080Y-182555699I-451122J55322D01*
G01*
G04 #@! TD*
M02*
