G04 #@! TF.GenerationSoftware,KiCad,Pcbnew,8.0.1*
G04 #@! TF.CreationDate,2024-08-27T15:58:47+05:30*
G04 #@! TF.ProjectId,Ludo,4c75646f-2e6b-4696-9361-645f70636258,rev?*
G04 #@! TF.SameCoordinates,Original*
G04 #@! TF.FileFunction,Soldermask,Bot*
G04 #@! TF.FilePolarity,Negative*
%FSLAX46Y46*%
G04 Gerber Fmt 4.6, Leading zero omitted, Abs format (unit mm)*
G04 Created by KiCad (PCBNEW 8.0.1) date 2024-08-27 15:58:47*
%MOMM*%
%LPD*%
G01*
G04 APERTURE LIST*
G04 Aperture macros list*
%AMRoundRect*
0 Rectangle with rounded corners*
0 $1 Rounding radius*
0 $2 $3 $4 $5 $6 $7 $8 $9 X,Y pos of 4 corners*
0 Add a 4 corners polygon primitive as box body*
4,1,4,$2,$3,$4,$5,$6,$7,$8,$9,$2,$3,0*
0 Add four circle primitives for the rounded corners*
1,1,$1+$1,$2,$3*
1,1,$1+$1,$4,$5*
1,1,$1+$1,$6,$7*
1,1,$1+$1,$8,$9*
0 Add four rect primitives between the rounded corners*
20,1,$1+$1,$2,$3,$4,$5,0*
20,1,$1+$1,$4,$5,$6,$7,0*
20,1,$1+$1,$6,$7,$8,$9,0*
20,1,$1+$1,$8,$9,$2,$3,0*%
%AMRotRect*
0 Rectangle, with rotation*
0 The origin of the aperture is its center*
0 $1 length*
0 $2 width*
0 $3 Rotation angle, in degrees counterclockwise*
0 Add horizontal line*
21,1,$1,$2,0,0,$3*%
G04 Aperture macros list end*
%ADD10C,0.000000*%
%ADD11RoundRect,0.225000X-0.225000X-0.250000X0.225000X-0.250000X0.225000X0.250000X-0.225000X0.250000X0*%
%ADD12RoundRect,0.225000X0.225000X0.250000X-0.225000X0.250000X-0.225000X-0.250000X0.225000X-0.250000X0*%
%ADD13RoundRect,0.050800X0.410000X0.750000X-0.410000X0.750000X-0.410000X-0.750000X0.410000X-0.750000X0*%
%ADD14RoundRect,0.050800X0.750000X-0.410000X0.750000X0.410000X-0.750000X0.410000X-0.750000X-0.410000X0*%
%ADD15RoundRect,0.050800X-0.750000X0.410000X-0.750000X-0.410000X0.750000X-0.410000X0.750000X0.410000X0*%
%ADD16RoundRect,0.200000X-0.275000X0.200000X-0.275000X-0.200000X0.275000X-0.200000X0.275000X0.200000X0*%
%ADD17RoundRect,0.050800X-0.410000X-0.750000X0.410000X-0.750000X0.410000X0.750000X-0.410000X0.750000X0*%
%ADD18C,0.750000*%
%ADD19R,2.000000X0.800000*%
%ADD20R,3.400000X2.150000*%
%ADD21RoundRect,0.225000X0.250000X-0.225000X0.250000X0.225000X-0.250000X0.225000X-0.250000X-0.225000X0*%
%ADD22RoundRect,0.225000X0.017678X-0.335876X0.335876X-0.017678X-0.017678X0.335876X-0.335876X0.017678X0*%
%ADD23RoundRect,0.200000X-0.200000X-0.275000X0.200000X-0.275000X0.200000X0.275000X-0.200000X0.275000X0*%
%ADD24RoundRect,0.250000X-0.250000X-0.475000X0.250000X-0.475000X0.250000X0.475000X-0.250000X0.475000X0*%
%ADD25RotRect,0.800000X1.750000X315.000000*%
%ADD26RotRect,0.700000X1.750000X315.000000*%
%ADD27C,0.650000*%
%ADD28R,0.600000X1.450000*%
%ADD29R,0.300000X1.450000*%
%ADD30O,1.000000X1.600000*%
%ADD31O,1.000000X2.100000*%
%ADD32RoundRect,0.250000X0.250000X1.500000X-0.250000X1.500000X-0.250000X-1.500000X0.250000X-1.500000X0*%
%ADD33RoundRect,0.250001X0.499999X1.449999X-0.499999X1.449999X-0.499999X-1.449999X0.499999X-1.449999X0*%
%ADD34RoundRect,0.225000X-0.250000X0.225000X-0.250000X-0.225000X0.250000X-0.225000X0.250000X0.225000X0*%
%ADD35R,1.750000X0.600000*%
%ADD36R,2.410000X3.300000*%
%ADD37RoundRect,0.218750X-0.256250X0.218750X-0.256250X-0.218750X0.256250X-0.218750X0.256250X0.218750X0*%
%ADD38RoundRect,0.250000X-0.250000X-1.500000X0.250000X-1.500000X0.250000X1.500000X-0.250000X1.500000X0*%
%ADD39RoundRect,0.250001X-0.499999X-1.449999X0.499999X-1.449999X0.499999X1.449999X-0.499999X1.449999X0*%
%ADD40RoundRect,0.218750X0.256250X-0.218750X0.256250X0.218750X-0.256250X0.218750X-0.256250X-0.218750X0*%
%ADD41RotRect,0.800000X1.750000X135.000000*%
%ADD42RotRect,0.700000X1.750000X135.000000*%
%ADD43RoundRect,0.200000X0.275000X-0.200000X0.275000X0.200000X-0.275000X0.200000X-0.275000X-0.200000X0*%
%ADD44C,0.700000*%
%ADD45RoundRect,0.050800X-0.600000X-0.650000X0.600000X-0.650000X0.600000X0.650000X-0.600000X0.650000X0*%
%ADD46RoundRect,0.050800X0.450000X0.600000X-0.450000X0.600000X-0.450000X-0.600000X0.450000X-0.600000X0*%
%ADD47RoundRect,0.050800X-0.450000X-0.600000X0.450000X-0.600000X0.450000X0.600000X-0.450000X0.600000X0*%
%ADD48RoundRect,0.225000X-0.017678X0.335876X-0.335876X0.017678X0.017678X-0.335876X0.335876X-0.017678X0*%
%ADD49R,1.500000X0.900000*%
%ADD50R,0.900000X1.500000*%
%ADD51C,0.600000*%
%ADD52R,3.900000X3.900000*%
%ADD53RoundRect,0.150000X-0.150000X0.512500X-0.150000X-0.512500X0.150000X-0.512500X0.150000X0.512500X0*%
G04 APERTURE END LIST*
D10*
G36*
X265062380Y-18784220D02*
G01*
X265511199Y-18786701D01*
X266407932Y-18826974D01*
X267301956Y-18907437D01*
X268191469Y-19027930D01*
X269074681Y-19188209D01*
X269949812Y-19387952D01*
X270815101Y-19626757D01*
X271668805Y-19904142D01*
X272509204Y-20219549D01*
X273334607Y-20572343D01*
X274143350Y-20961813D01*
X274933805Y-21387175D01*
X275704381Y-21847573D01*
X276453525Y-22342078D01*
X277179729Y-22869696D01*
X277881530Y-23429364D01*
X278557515Y-24019954D01*
X279206322Y-24640278D01*
X279826646Y-25289085D01*
X280417236Y-25965070D01*
X280976904Y-26666871D01*
X281504522Y-27393075D01*
X281999027Y-28142219D01*
X282459425Y-28912795D01*
X282884787Y-29703250D01*
X283274257Y-30511993D01*
X283627051Y-31337396D01*
X283942458Y-32177795D01*
X284219843Y-33031499D01*
X284458648Y-33896788D01*
X284658391Y-34771919D01*
X284818670Y-35655131D01*
X284939163Y-36544644D01*
X285019626Y-37438668D01*
X285059899Y-38335401D01*
X285062380Y-38784220D01*
X285062380Y-258784220D01*
X285059899Y-259233039D01*
X285019626Y-260129772D01*
X284939163Y-261023796D01*
X284818670Y-261913309D01*
X284658391Y-262796521D01*
X284458648Y-263671652D01*
X284219843Y-264536941D01*
X283942458Y-265390645D01*
X283627051Y-266231044D01*
X283274257Y-267056447D01*
X282884787Y-267865190D01*
X282459425Y-268655645D01*
X281999027Y-269426221D01*
X281504522Y-270175365D01*
X280976904Y-270901569D01*
X280417236Y-271603370D01*
X279826646Y-272279355D01*
X279206322Y-272928162D01*
X278557515Y-273548486D01*
X277881530Y-274139076D01*
X277179729Y-274698744D01*
X276453525Y-275226362D01*
X275704381Y-275720867D01*
X274933805Y-276181265D01*
X274143350Y-276606627D01*
X273334607Y-276996097D01*
X272509204Y-277348891D01*
X271668805Y-277664298D01*
X270815101Y-277941683D01*
X269949812Y-278180488D01*
X269074681Y-278380231D01*
X268191469Y-278540510D01*
X267301956Y-278661003D01*
X266407932Y-278741466D01*
X265511199Y-278781739D01*
X265062380Y-278784220D01*
X45062380Y-278784220D01*
X44613562Y-278781703D01*
X43716830Y-278741430D01*
X42822808Y-278660967D01*
X41933297Y-278540474D01*
X41050086Y-278380195D01*
X40174957Y-278180453D01*
X39309669Y-277941648D01*
X38455967Y-277664264D01*
X37615569Y-277348857D01*
X36790168Y-276996064D01*
X35981427Y-276606594D01*
X35190973Y-276181233D01*
X34420399Y-275720836D01*
X33671256Y-275226332D01*
X32945053Y-274698715D01*
X32243254Y-274139048D01*
X31567270Y-273548459D01*
X30918464Y-272928136D01*
X30298141Y-272279330D01*
X29707552Y-271603346D01*
X29147885Y-270901547D01*
X28620268Y-270175344D01*
X28125764Y-269426201D01*
X27665367Y-268655627D01*
X27240006Y-267865173D01*
X26850536Y-267056432D01*
X26497743Y-266231031D01*
X26182336Y-265390633D01*
X25904952Y-264536931D01*
X25666147Y-263671643D01*
X25466405Y-262796514D01*
X25306126Y-261913303D01*
X25185633Y-261023792D01*
X25105170Y-260129770D01*
X25064897Y-259233038D01*
X25062380Y-258784220D01*
X25062380Y-38784220D01*
X25064897Y-38335402D01*
X25105170Y-37438670D01*
X25185633Y-36544648D01*
X25306126Y-35655137D01*
X25466405Y-34771926D01*
X25666147Y-33896797D01*
X25904952Y-33031509D01*
X26182336Y-32177807D01*
X26497743Y-31337409D01*
X26850536Y-30512008D01*
X27240006Y-29703267D01*
X27665367Y-28912813D01*
X28125764Y-28142239D01*
X28620268Y-27393096D01*
X29147885Y-26666893D01*
X29707552Y-25965094D01*
X30298141Y-25289110D01*
X30918464Y-24640304D01*
X31567270Y-24019981D01*
X32243254Y-23429392D01*
X32945053Y-22869725D01*
X33671256Y-22342108D01*
X34420399Y-21847604D01*
X35190973Y-21387207D01*
X35981427Y-20961846D01*
X36790168Y-20572376D01*
X37615569Y-20219583D01*
X38455967Y-19904176D01*
X39309669Y-19626792D01*
X40174957Y-19387987D01*
X41050086Y-19188245D01*
X41933297Y-19027966D01*
X42822808Y-18907473D01*
X43716830Y-18827010D01*
X44613562Y-18786737D01*
X45062380Y-18784220D01*
X92634000Y-18780420D01*
X92626380Y-23781680D01*
X45062380Y-23784220D01*
X44669658Y-23786790D01*
X43885292Y-23827897D01*
X43104152Y-23909998D01*
X42328379Y-24032868D01*
X41560099Y-24196171D01*
X40801420Y-24399459D01*
X40054419Y-24642174D01*
X39321145Y-24923652D01*
X38603607Y-25243120D01*
X37903772Y-25599704D01*
X37223558Y-25992425D01*
X36564830Y-26420208D01*
X35929393Y-26881880D01*
X35318990Y-27376176D01*
X34735292Y-27901739D01*
X34179899Y-28457132D01*
X33654336Y-29040830D01*
X33160040Y-29651233D01*
X32698368Y-30286670D01*
X32270585Y-30945398D01*
X31877864Y-31625612D01*
X31521280Y-32325447D01*
X31201812Y-33042985D01*
X30920334Y-33776259D01*
X30677619Y-34523260D01*
X30474331Y-35281939D01*
X30311028Y-36050219D01*
X30188158Y-36825992D01*
X30106057Y-37607132D01*
X30064950Y-38391498D01*
X30062380Y-38784220D01*
X30062380Y-258784220D01*
X30064950Y-259176942D01*
X30106057Y-259961308D01*
X30188158Y-260742448D01*
X30311028Y-261518221D01*
X30474331Y-262286501D01*
X30677619Y-263045180D01*
X30920334Y-263792181D01*
X31201812Y-264525455D01*
X31521280Y-265242993D01*
X31877864Y-265942828D01*
X32270585Y-266623042D01*
X32698368Y-267281770D01*
X33160040Y-267917207D01*
X33654336Y-268527610D01*
X34179899Y-269111308D01*
X34735292Y-269666701D01*
X35318990Y-270192264D01*
X35929393Y-270686560D01*
X36564830Y-271148232D01*
X37223558Y-271576015D01*
X37903772Y-271968736D01*
X38603607Y-272325320D01*
X39321145Y-272644788D01*
X40054419Y-272926266D01*
X40801420Y-273168981D01*
X41560099Y-273372269D01*
X42328379Y-273535572D01*
X43104152Y-273658442D01*
X43885292Y-273740543D01*
X44669658Y-273781650D01*
X45062380Y-273784220D01*
X265062380Y-273784220D01*
X265455102Y-273781650D01*
X266239468Y-273740543D01*
X267020609Y-273658442D01*
X267796381Y-273535571D01*
X268564661Y-273372269D01*
X269323340Y-273168981D01*
X270070341Y-272926266D01*
X270803615Y-272644788D01*
X271521153Y-272325319D01*
X272220988Y-271968736D01*
X272901202Y-271576014D01*
X273559930Y-271148231D01*
X274195367Y-270686559D01*
X274805771Y-270192264D01*
X275389468Y-269666700D01*
X275944861Y-269111308D01*
X276470425Y-268527610D01*
X276964720Y-267917206D01*
X277426392Y-267281769D01*
X277854175Y-266623041D01*
X278246896Y-265942827D01*
X278603480Y-265242992D01*
X278922948Y-264525455D01*
X279204426Y-263792180D01*
X279447141Y-263045179D01*
X279650429Y-262286500D01*
X279813732Y-261518220D01*
X279936602Y-260742448D01*
X280018703Y-259961307D01*
X280059810Y-259176941D01*
X280062380Y-258784219D01*
X280062380Y-38784220D01*
X280059854Y-38391497D01*
X280018747Y-37607128D01*
X279936645Y-36825986D01*
X279813774Y-36050211D01*
X279650471Y-35281929D01*
X279447183Y-34523247D01*
X279204467Y-33776244D01*
X278922989Y-33042968D01*
X278603519Y-32325428D01*
X278246935Y-31625591D01*
X277854212Y-30945375D01*
X277426428Y-30286645D01*
X276964755Y-29651207D01*
X276470458Y-29040801D01*
X275944892Y-28457101D01*
X275389499Y-27901708D01*
X274805799Y-27376142D01*
X274195393Y-26881845D01*
X273559955Y-26420172D01*
X272901225Y-25992388D01*
X272221009Y-25599665D01*
X271521172Y-25243081D01*
X270803632Y-24923611D01*
X270070356Y-24642133D01*
X269323353Y-24399417D01*
X268564671Y-24196129D01*
X267796389Y-24032826D01*
X267020614Y-23909955D01*
X266239472Y-23827853D01*
X265455103Y-23786746D01*
X265062380Y-23784220D01*
X187661000Y-23767000D01*
X187623000Y-18775000D01*
X265062380Y-18784220D01*
G37*
D11*
G04 #@! TO.C,C28*
X205765000Y-79825000D03*
X207315000Y-79825000D03*
G04 #@! TD*
D12*
G04 #@! TO.C,C83*
X45920000Y-152525000D03*
X44370000Y-152525000D03*
G04 #@! TD*
D13*
G04 #@! TO.C,RGB30*
X170479900Y-87555100D03*
X171980100Y-87555100D03*
X171980100Y-81954900D03*
X170480700Y-81953380D03*
X170479900Y-81954900D03*
G04 #@! TD*
D14*
G04 #@! TO.C,RGB54*
X184429900Y-164004900D03*
X184429900Y-165505100D03*
X190030100Y-165505100D03*
X190031620Y-164005700D03*
X190030100Y-164004900D03*
G04 #@! TD*
D15*
G04 #@! TO.C,RGB8*
X94030100Y-133505100D03*
X94030100Y-132004900D03*
X88429900Y-132004900D03*
X88428380Y-133504300D03*
X88429900Y-133505100D03*
G04 #@! TD*
D16*
G04 #@! TO.C,R2*
X145670000Y-26440000D03*
X145670000Y-28090000D03*
G04 #@! TD*
G04 #@! TO.C,R4*
X118887840Y-25662360D03*
X118887840Y-27312360D03*
G04 #@! TD*
D12*
G04 #@! TO.C,C32*
X168295000Y-119545000D03*
X166745000Y-119545000D03*
G04 #@! TD*
D17*
G04 #@! TO.C,RGB13*
X139980100Y-81954900D03*
X138479900Y-81954900D03*
X138479900Y-87555100D03*
X139979300Y-87556620D03*
X139980100Y-87555100D03*
G04 #@! TD*
D13*
G04 #@! TO.C,RGB56*
X170479900Y-199555100D03*
X171980100Y-199555100D03*
X171980100Y-193954900D03*
X170480700Y-193953380D03*
X170479900Y-193954900D03*
G04 #@! TD*
D11*
G04 #@! TO.C,C1*
X61815000Y-79415000D03*
X63365000Y-79415000D03*
G04 #@! TD*
G04 #@! TO.C,C74*
X142255000Y-209895000D03*
X143805000Y-209895000D03*
G04 #@! TD*
D18*
G04 #@! TO.C,SW2*
X120607840Y-21817360D03*
X118807840Y-21817360D03*
D19*
X119707840Y-19717360D03*
X119707840Y-23917360D03*
G04 #@! TD*
D20*
G04 #@! TO.C,L1*
X206067000Y-38792000D03*
X206067000Y-32942000D03*
G04 #@! TD*
D17*
G04 #@! TO.C,RGB62*
X155980100Y-241954900D03*
X154479900Y-241954900D03*
X154479900Y-247555100D03*
X155979300Y-247556620D03*
X155980100Y-247555100D03*
G04 #@! TD*
G04 #@! TO.C,RGB67*
X139980100Y-257954900D03*
X138479900Y-257954900D03*
X138479900Y-263555100D03*
X139979300Y-263556620D03*
X139980100Y-263555100D03*
G04 #@! TD*
D15*
G04 #@! TO.C,RGB71*
X86030100Y-197255100D03*
X86030100Y-195754900D03*
X80429900Y-195754900D03*
X80428380Y-197254300D03*
X80429900Y-197255100D03*
G04 #@! TD*
D13*
G04 #@! TO.C,RGB32*
X170479900Y-119555100D03*
X171980100Y-119555100D03*
X171980100Y-113954900D03*
X170480700Y-113953380D03*
X170479900Y-113954900D03*
G04 #@! TD*
D11*
G04 #@! TO.C,C7*
X78047000Y-135585000D03*
X79597000Y-135585000D03*
G04 #@! TD*
D21*
G04 #@! TO.C,C94*
X116937840Y-28062360D03*
X116937840Y-26512360D03*
G04 #@! TD*
D13*
G04 #@! TO.C,RGB55*
X170479900Y-183555100D03*
X171980100Y-183555100D03*
X171980100Y-177954900D03*
X170480700Y-177953380D03*
X170479900Y-177954900D03*
G04 #@! TD*
D11*
G04 #@! TO.C,C76*
X142255000Y-177915000D03*
X143805000Y-177915000D03*
G04 #@! TD*
D22*
G04 #@! TO.C,C96*
X128801992Y-126593008D03*
X129898008Y-125496992D03*
G04 #@! TD*
D11*
G04 #@! TO.C,C13*
X142335000Y-81945000D03*
X143885000Y-81945000D03*
G04 #@! TD*
D13*
G04 #@! TO.C,RGB57*
X170479900Y-215555100D03*
X171980100Y-215555100D03*
X171980100Y-209954900D03*
X170480700Y-209953380D03*
X170479900Y-209954900D03*
G04 #@! TD*
D23*
G04 #@! TO.C,R5*
X117243020Y-41818140D03*
X118893020Y-41818140D03*
G04 #@! TD*
D24*
G04 #@! TO.C,C91*
X124558020Y-34463140D03*
X126458020Y-34463140D03*
G04 #@! TD*
D21*
G04 #@! TO.C,C93*
X115337840Y-28082360D03*
X115337840Y-26532360D03*
G04 #@! TD*
D25*
G04 #@! TO.C,IC1*
X134369132Y-124468978D03*
D26*
X135302513Y-125402359D03*
X136200538Y-126300385D03*
X137098564Y-127198411D03*
X137996589Y-128096436D03*
X138894615Y-128994462D03*
X139792641Y-129892487D03*
D25*
X140726022Y-130825868D03*
X136730868Y-134821022D03*
D26*
X135797487Y-133887641D03*
X134899462Y-132989615D03*
X134001436Y-132091589D03*
X133103411Y-131193564D03*
X132205385Y-130295538D03*
X131307359Y-129397513D03*
D25*
X130373978Y-128464132D03*
G04 #@! TD*
D11*
G04 #@! TO.C,C71*
X86110000Y-200025000D03*
X87660000Y-200025000D03*
G04 #@! TD*
D27*
G04 #@! TO.C,J2*
X152340000Y-25547360D03*
X158120000Y-25547360D03*
D28*
X151980000Y-26992360D03*
X152780000Y-26992360D03*
D29*
X153980000Y-26992360D03*
X154980000Y-26992360D03*
X155480000Y-26992360D03*
X156480000Y-26992360D03*
D28*
X157680000Y-26992360D03*
X158480000Y-26992360D03*
X158480000Y-26992360D03*
X157680000Y-26992360D03*
D29*
X156980000Y-26992360D03*
X155980000Y-26992360D03*
X154480000Y-26992360D03*
X153480000Y-26992360D03*
D28*
X152780000Y-26992360D03*
X151980000Y-26992360D03*
D30*
X150910000Y-21897360D03*
D31*
X150910000Y-26077360D03*
D30*
X159550000Y-21897360D03*
D31*
X159550000Y-26077360D03*
G04 #@! TD*
D12*
G04 #@! TO.C,C52*
X216425000Y-162095000D03*
X214875000Y-162095000D03*
G04 #@! TD*
D11*
G04 #@! TO.C,C9*
X110039000Y-135585000D03*
X111589000Y-135585000D03*
G04 #@! TD*
D13*
G04 #@! TO.C,RGB17*
X154479900Y-39555100D03*
X155980100Y-39555100D03*
X155980100Y-33954900D03*
X154480700Y-33953380D03*
X154479900Y-33954900D03*
G04 #@! TD*
D32*
G04 #@! TO.C,J4*
X215967000Y-33331000D03*
X213967000Y-33331000D03*
D33*
X218317000Y-39081000D03*
X211617000Y-39081000D03*
G04 #@! TD*
D14*
G04 #@! TO.C,RGB39*
X264429900Y-148004900D03*
X264429900Y-149505100D03*
X270030100Y-149505100D03*
X270031620Y-148005700D03*
X270030100Y-148004900D03*
G04 #@! TD*
D11*
G04 #@! TO.C,C63*
X158395000Y-225935000D03*
X159945000Y-225935000D03*
G04 #@! TD*
G04 #@! TO.C,C64*
X158395000Y-209955000D03*
X159945000Y-209955000D03*
G04 #@! TD*
D14*
G04 #@! TO.C,RGB82*
X40429900Y-164004900D03*
X40429900Y-165505100D03*
X46030100Y-165505100D03*
X46031620Y-164005700D03*
X46030100Y-164004900D03*
G04 #@! TD*
D34*
G04 #@! TO.C,C90*
X128048020Y-32898140D03*
X128048020Y-34448140D03*
G04 #@! TD*
D35*
G04 #@! TO.C,U1*
X195381000Y-37464000D03*
X195381000Y-36194000D03*
X195381000Y-34924000D03*
X195381000Y-33654000D03*
X200981000Y-33654000D03*
X200981000Y-34924000D03*
X200981000Y-36194000D03*
X200981000Y-37464000D03*
D36*
X198181000Y-35559000D03*
G04 #@! TD*
D12*
G04 #@! TO.C,C44*
X184475000Y-145685000D03*
X182925000Y-145685000D03*
G04 #@! TD*
G04 #@! TO.C,C27*
X224505000Y-96815000D03*
X222955000Y-96815000D03*
G04 #@! TD*
D15*
G04 #@! TO.C,RGB10*
X126030100Y-133505100D03*
X126030100Y-132004900D03*
X120429900Y-132004900D03*
X120428380Y-133504300D03*
X120429900Y-133505100D03*
G04 #@! TD*
D11*
G04 #@! TO.C,C11*
X142335000Y-113955000D03*
X143885000Y-113955000D03*
G04 #@! TD*
D12*
G04 #@! TO.C,C55*
X168195000Y-183535000D03*
X166645000Y-183535000D03*
G04 #@! TD*
G04 #@! TO.C,C21*
X152265000Y-103555000D03*
X150715000Y-103555000D03*
G04 #@! TD*
D11*
G04 #@! TO.C,C73*
X142255000Y-225955000D03*
X143805000Y-225955000D03*
G04 #@! TD*
D15*
G04 #@! TO.C,RGB70*
X61780100Y-221855100D03*
X61780100Y-220354900D03*
X56179900Y-220354900D03*
X56178380Y-221854300D03*
X56179900Y-221855100D03*
G04 #@! TD*
G04 #@! TO.C,RGB2*
X86030100Y-53255100D03*
X86030100Y-51754900D03*
X80429900Y-51754900D03*
X80428380Y-53254300D03*
X80429900Y-53255100D03*
G04 #@! TD*
D12*
G04 #@! TO.C,C40*
X248460000Y-145685000D03*
X246910000Y-145685000D03*
G04 #@! TD*
D13*
G04 #@! TO.C,RGB23*
X170479900Y-39555100D03*
X171980100Y-39555100D03*
X171980100Y-33954900D03*
X170480700Y-33953380D03*
X170479900Y-33954900D03*
G04 #@! TD*
D37*
G04 #@! TO.C,D1*
X164795000Y-20580500D03*
X164795000Y-22155500D03*
G04 #@! TD*
D15*
G04 #@! TO.C,RGB86*
X94030100Y-149505100D03*
X94030100Y-148004900D03*
X88429900Y-148004900D03*
X88428380Y-149504300D03*
X88429900Y-149505100D03*
G04 #@! TD*
D14*
G04 #@! TO.C,RGB27*
X224419900Y-99454900D03*
X224419900Y-100955100D03*
X230020100Y-100955100D03*
X230021620Y-99455700D03*
X230020100Y-99454900D03*
G04 #@! TD*
D17*
G04 #@! TO.C,RGB74*
X139980100Y-209954900D03*
X138479900Y-209954900D03*
X138479900Y-215555100D03*
X139979300Y-215556620D03*
X139980100Y-215555100D03*
G04 #@! TD*
D14*
G04 #@! TO.C,RGB26*
X249319900Y-76354900D03*
X249319900Y-77855100D03*
X254920100Y-77855100D03*
X254921620Y-76355700D03*
X254920100Y-76354900D03*
G04 #@! TD*
D15*
G04 #@! TO.C,RGB9*
X110030100Y-133505100D03*
X110030100Y-132004900D03*
X104429900Y-132004900D03*
X104428380Y-133504300D03*
X104429900Y-133505100D03*
G04 #@! TD*
D12*
G04 #@! TO.C,C87*
X109945000Y-151945000D03*
X108395000Y-151945000D03*
G04 #@! TD*
D11*
G04 #@! TO.C,C33*
X189880000Y-135775000D03*
X191430000Y-135775000D03*
G04 #@! TD*
D12*
G04 #@! TO.C,C18*
X152265000Y-55565000D03*
X150715000Y-55565000D03*
G04 #@! TD*
G04 #@! TO.C,C46*
X248555000Y-162095000D03*
X247005000Y-162095000D03*
G04 #@! TD*
D11*
G04 #@! TO.C,C50*
X229955000Y-199805000D03*
X231505000Y-199805000D03*
G04 #@! TD*
D12*
G04 #@! TO.C,C104*
X199504000Y-38915000D03*
X197954000Y-38915000D03*
G04 #@! TD*
D14*
G04 #@! TO.C,RGB41*
X232429900Y-148004900D03*
X232429900Y-149505100D03*
X238030100Y-149505100D03*
X238031620Y-148005700D03*
X238030100Y-148004900D03*
G04 #@! TD*
D12*
G04 #@! TO.C,C19*
X152265000Y-71445000D03*
X150715000Y-71445000D03*
G04 #@! TD*
G04 #@! TO.C,C29*
X168295000Y-71555000D03*
X166745000Y-71555000D03*
G04 #@! TD*
G04 #@! TO.C,C22*
X152265000Y-119585000D03*
X150715000Y-119585000D03*
G04 #@! TD*
D15*
G04 #@! TO.C,RGB28*
X205770100Y-77855100D03*
X205770100Y-76354900D03*
X200169900Y-76354900D03*
X200168380Y-77854300D03*
X200169900Y-77855100D03*
G04 #@! TD*
D37*
G04 #@! TO.C,LED2*
X122147840Y-20029860D03*
X122147840Y-21604860D03*
G04 #@! TD*
D12*
G04 #@! TO.C,C53*
X200465000Y-162095000D03*
X198915000Y-162095000D03*
G04 #@! TD*
D15*
G04 #@! TO.C,RGB37*
X254030100Y-133505100D03*
X254030100Y-132004900D03*
X248429900Y-132004900D03*
X248428380Y-133504300D03*
X248429900Y-133505100D03*
G04 #@! TD*
D17*
G04 #@! TO.C,RGB15*
X139980100Y-49954900D03*
X138479900Y-49954900D03*
X138479900Y-55555100D03*
X139979300Y-55556620D03*
X139980100Y-55555100D03*
G04 #@! TD*
D37*
G04 #@! TO.C,D3*
X169975000Y-20580500D03*
X169975000Y-22155500D03*
G04 #@! TD*
D13*
G04 #@! TO.C,RGB24*
X170479900Y-55555100D03*
X171980100Y-55555100D03*
X171980100Y-49954900D03*
X170480700Y-49953380D03*
X170479900Y-49954900D03*
G04 #@! TD*
D12*
G04 #@! TO.C,C30*
X168295000Y-87585000D03*
X166745000Y-87585000D03*
G04 #@! TD*
D15*
G04 #@! TO.C,RGB1*
X61780100Y-77855100D03*
X61780100Y-76354900D03*
X56179900Y-76354900D03*
X56178380Y-77854300D03*
X56179900Y-77855100D03*
G04 #@! TD*
D13*
G04 #@! TO.C,RGB31*
X170479900Y-103555100D03*
X171980100Y-103555100D03*
X171980100Y-97954900D03*
X170480700Y-97953380D03*
X170479900Y-97954900D03*
G04 #@! TD*
D12*
G04 #@! TO.C,C17*
X152265000Y-39535000D03*
X150715000Y-39535000D03*
G04 #@! TD*
D11*
G04 #@! TO.C,C8*
X94043000Y-135585000D03*
X95593000Y-135585000D03*
G04 #@! TD*
D14*
G04 #@! TO.C,RGB77*
X120429900Y-164004900D03*
X120429900Y-165505100D03*
X126030100Y-165505100D03*
X126031620Y-164005700D03*
X126030100Y-164004900D03*
G04 #@! TD*
D11*
G04 #@! TO.C,C92*
X124773020Y-36283140D03*
X126323020Y-36283140D03*
G04 #@! TD*
D12*
G04 #@! TO.C,C59*
X168195000Y-247585000D03*
X166645000Y-247585000D03*
G04 #@! TD*
D38*
G04 #@! TO.C,J1*
X223341000Y-39008000D03*
X225341000Y-39008000D03*
D39*
X220991000Y-33258000D03*
X227691000Y-33258000D03*
G04 #@! TD*
D11*
G04 #@! TO.C,C38*
X270015000Y-135775000D03*
X271565000Y-135775000D03*
G04 #@! TD*
D23*
G04 #@! TO.C,R6*
X117263020Y-43398140D03*
X118913020Y-43398140D03*
G04 #@! TD*
D15*
G04 #@! TO.C,RGB33*
X190030100Y-133505100D03*
X190030100Y-132004900D03*
X184429900Y-132004900D03*
X184428380Y-133504300D03*
X184429900Y-133505100D03*
G04 #@! TD*
G04 #@! TO.C,RGB83*
X46030100Y-149505100D03*
X46030100Y-148004900D03*
X40429900Y-148004900D03*
X40428380Y-149504300D03*
X40429900Y-149505100D03*
G04 #@! TD*
D14*
G04 #@! TO.C,RGB48*
X224419900Y-243454900D03*
X224419900Y-244955100D03*
X230020100Y-244955100D03*
X230021620Y-243455700D03*
X230020100Y-243454900D03*
G04 #@! TD*
D23*
G04 #@! TO.C,R8*
X193169000Y-41723000D03*
X194819000Y-41723000D03*
G04 #@! TD*
D40*
G04 #@! TO.C,D4*
X172565000Y-22115500D03*
X172565000Y-20540500D03*
G04 #@! TD*
D15*
G04 #@! TO.C,RGB87*
X110030100Y-149505100D03*
X110030100Y-148004900D03*
X104429900Y-148004900D03*
X104428380Y-149504300D03*
X104429900Y-149505100D03*
G04 #@! TD*
D11*
G04 #@! TO.C,C49*
X205905000Y-223815000D03*
X207455000Y-223815000D03*
G04 #@! TD*
D14*
G04 #@! TO.C,RGB69*
X80429900Y-243454900D03*
X80429900Y-244955100D03*
X86030100Y-244955100D03*
X86031620Y-243455700D03*
X86030100Y-243454900D03*
G04 #@! TD*
D21*
G04 #@! TO.C,C100*
X204663000Y-30749000D03*
X204663000Y-29199000D03*
G04 #@! TD*
D17*
G04 #@! TO.C,RGB63*
X155980100Y-225954900D03*
X154479900Y-225954900D03*
X154479900Y-231555100D03*
X155979300Y-231556620D03*
X155980100Y-231555100D03*
G04 #@! TD*
D32*
G04 #@! TO.C,J3*
X115650000Y-51550000D03*
X113650000Y-51550000D03*
X111650000Y-51550000D03*
X109650000Y-51550000D03*
X107650000Y-51550000D03*
X105650000Y-51550000D03*
X103650000Y-51550000D03*
X101650000Y-51550000D03*
D33*
X118000000Y-57300000D03*
X99300000Y-57300000D03*
G04 #@! TD*
D18*
G04 #@! TO.C,SW1*
X115907840Y-21957360D03*
X114107840Y-21957360D03*
D19*
X115007840Y-19857360D03*
X115007840Y-24057360D03*
G04 #@! TD*
D11*
G04 #@! TO.C,C15*
X142795000Y-50015000D03*
X144345000Y-50015000D03*
G04 #@! TD*
D12*
G04 #@! TO.C,C43*
X200425000Y-145685000D03*
X198875000Y-145685000D03*
G04 #@! TD*
D17*
G04 #@! TO.C,RGB16*
X139980100Y-33954900D03*
X138479900Y-33954900D03*
X138479900Y-39555100D03*
X139979300Y-39556620D03*
X139980100Y-39555100D03*
G04 #@! TD*
D15*
G04 #@! TO.C,RGB5*
X46030100Y-133505100D03*
X46030100Y-132004900D03*
X40429900Y-132004900D03*
X40428380Y-133504300D03*
X40429900Y-133505100D03*
G04 #@! TD*
D11*
G04 #@! TO.C,C4*
X80435000Y-97445000D03*
X81985000Y-97445000D03*
G04 #@! TD*
D12*
G04 #@! TO.C,C69*
X80445000Y-240645000D03*
X78895000Y-240645000D03*
G04 #@! TD*
D15*
G04 #@! TO.C,RGB7*
X78030100Y-133505100D03*
X78030100Y-132004900D03*
X72429900Y-132004900D03*
X72428380Y-133504300D03*
X72429900Y-133505100D03*
G04 #@! TD*
D37*
G04 #@! TO.C,D5*
X182794000Y-19905500D03*
X182794000Y-21480500D03*
G04 #@! TD*
D12*
G04 #@! TO.C,C79*
X88460000Y-161925000D03*
X86910000Y-161925000D03*
G04 #@! TD*
D14*
G04 #@! TO.C,RGB72*
X105329900Y-220354900D03*
X105329900Y-221855100D03*
X110930100Y-221855100D03*
X110931620Y-220355700D03*
X110930100Y-220354900D03*
G04 #@! TD*
D12*
G04 #@! TO.C,C48*
X225185000Y-240205000D03*
X223635000Y-240205000D03*
G04 #@! TD*
D41*
G04 #@! TO.C,IC2*
X137893381Y-173588381D03*
D42*
X136960000Y-172655000D03*
X136061975Y-171756974D03*
X135163949Y-170858948D03*
X134265924Y-169960923D03*
X133367898Y-169062897D03*
X132469872Y-168164872D03*
D41*
X131536491Y-167231491D03*
X135531645Y-163236337D03*
D42*
X136465026Y-164169718D03*
X137363051Y-165067744D03*
X138261077Y-165965770D03*
X139159102Y-166863795D03*
X140057128Y-167761821D03*
X140955154Y-168659846D03*
D41*
X141888535Y-169593227D03*
G04 #@! TD*
D11*
G04 #@! TO.C,C10*
X126035000Y-135585000D03*
X127585000Y-135585000D03*
G04 #@! TD*
D13*
G04 #@! TO.C,RGB29*
X170479900Y-71555100D03*
X171980100Y-71555100D03*
X171980100Y-65954900D03*
X170480700Y-65953380D03*
X170479900Y-65954900D03*
G04 #@! TD*
D11*
G04 #@! TO.C,C12*
X142335000Y-98005000D03*
X143885000Y-98005000D03*
G04 #@! TD*
D13*
G04 #@! TO.C,RGB21*
X154479900Y-103555100D03*
X155980100Y-103555100D03*
X155980100Y-97954900D03*
X154480700Y-97953380D03*
X154479900Y-97954900D03*
G04 #@! TD*
G04 #@! TO.C,RGB22*
X154479900Y-119555100D03*
X155980100Y-119555100D03*
X155980100Y-113954900D03*
X154480700Y-113953380D03*
X154479900Y-113954900D03*
G04 #@! TD*
D11*
G04 #@! TO.C,C68*
X142255000Y-241915000D03*
X143805000Y-241915000D03*
G04 #@! TD*
D14*
G04 #@! TO.C,RGB51*
X232429900Y-164004900D03*
X232429900Y-165505100D03*
X238030100Y-165505100D03*
X238031620Y-164005700D03*
X238030100Y-164004900D03*
G04 #@! TD*
D12*
G04 #@! TO.C,C39*
X264505000Y-145685000D03*
X262955000Y-145685000D03*
G04 #@! TD*
G04 #@! TO.C,C80*
X72435000Y-161925000D03*
X70885000Y-161925000D03*
G04 #@! TD*
G04 #@! TO.C,C24*
X168295000Y-55585000D03*
X166745000Y-55585000D03*
G04 #@! TD*
D11*
G04 #@! TO.C,C66*
X158395000Y-177985000D03*
X159945000Y-177985000D03*
G04 #@! TD*
D14*
G04 #@! TO.C,RGB47*
X249319900Y-220354900D03*
X249319900Y-221855100D03*
X254920100Y-221855100D03*
X254921620Y-220355700D03*
X254920100Y-220354900D03*
G04 #@! TD*
G04 #@! TO.C,RGB45*
X264429900Y-164004900D03*
X264429900Y-165505100D03*
X270030100Y-165505100D03*
X270031620Y-164005700D03*
X270030100Y-164004900D03*
G04 #@! TD*
D11*
G04 #@! TO.C,C34*
X206000000Y-135775000D03*
X207550000Y-135775000D03*
G04 #@! TD*
D14*
G04 #@! TO.C,RGB42*
X216429900Y-148004900D03*
X216429900Y-149505100D03*
X222030100Y-149505100D03*
X222031620Y-148005700D03*
X222030100Y-148004900D03*
G04 #@! TD*
D11*
G04 #@! TO.C,C75*
X142255000Y-193945000D03*
X143805000Y-193945000D03*
G04 #@! TD*
G04 #@! TO.C,C36*
X237850000Y-135775000D03*
X239400000Y-135775000D03*
G04 #@! TD*
D14*
G04 #@! TO.C,RGB78*
X104429900Y-164004900D03*
X104429900Y-165505100D03*
X110030100Y-165505100D03*
X110031620Y-164005700D03*
X110030100Y-164004900D03*
G04 #@! TD*
D11*
G04 #@! TO.C,C16*
X142335000Y-33965000D03*
X143885000Y-33965000D03*
G04 #@! TD*
D43*
G04 #@! TO.C,R10*
X199435000Y-32127000D03*
X199435000Y-30477000D03*
G04 #@! TD*
D11*
G04 #@! TO.C,C2*
X86025000Y-55115000D03*
X87575000Y-55115000D03*
G04 #@! TD*
D14*
G04 #@! TO.C,RGB43*
X200429900Y-148004900D03*
X200429900Y-149505100D03*
X206030100Y-149505100D03*
X206031620Y-148005700D03*
X206030100Y-148004900D03*
G04 #@! TD*
D12*
G04 #@! TO.C,C41*
X232375000Y-145685000D03*
X230825000Y-145685000D03*
G04 #@! TD*
D11*
G04 #@! TO.C,C61*
X158395000Y-257995000D03*
X159945000Y-257995000D03*
G04 #@! TD*
D15*
G04 #@! TO.C,RGB6*
X62030100Y-133505100D03*
X62030100Y-132004900D03*
X56429900Y-132004900D03*
X56428380Y-133504300D03*
X56429900Y-133505100D03*
G04 #@! TD*
D43*
G04 #@! TO.C,R9*
X200975000Y-32123000D03*
X200975000Y-30473000D03*
G04 #@! TD*
D12*
G04 #@! TO.C,C60*
X168195000Y-263545000D03*
X166645000Y-263545000D03*
G04 #@! TD*
D11*
G04 #@! TO.C,C72*
X105355000Y-217715000D03*
X106905000Y-217715000D03*
G04 #@! TD*
D12*
G04 #@! TO.C,C42*
X216450000Y-145685000D03*
X214900000Y-145685000D03*
G04 #@! TD*
G04 #@! TO.C,C51*
X232410000Y-162095000D03*
X230860000Y-162095000D03*
G04 #@! TD*
D13*
G04 #@! TO.C,RGB58*
X170479900Y-231555100D03*
X171980100Y-231555100D03*
X171980100Y-225954900D03*
X170480700Y-225953380D03*
X170479900Y-225954900D03*
G04 #@! TD*
D12*
G04 #@! TO.C,C31*
X168295000Y-103605000D03*
X166745000Y-103605000D03*
G04 #@! TD*
D17*
G04 #@! TO.C,RGB14*
X139980100Y-65954900D03*
X138479900Y-65954900D03*
X138479900Y-71555100D03*
X139979300Y-71556620D03*
X139980100Y-71555100D03*
G04 #@! TD*
G04 #@! TO.C,RGB65*
X155980100Y-193954900D03*
X154479900Y-193954900D03*
X154479900Y-199555100D03*
X155979300Y-199556620D03*
X155980100Y-199555100D03*
G04 #@! TD*
D14*
G04 #@! TO.C,RGB4*
X80429900Y-99454900D03*
X80429900Y-100955100D03*
X86030100Y-100955100D03*
X86031620Y-99455700D03*
X86030100Y-99454900D03*
G04 #@! TD*
D11*
G04 #@! TO.C,C14*
X142775000Y-66035000D03*
X144325000Y-66035000D03*
G04 #@! TD*
G04 #@! TO.C,C25*
X229965000Y-55025000D03*
X231515000Y-55025000D03*
G04 #@! TD*
D44*
G04 #@! TO.C,SW3*
X179115900Y-19889000D03*
X177415900Y-19889000D03*
D45*
X179940900Y-21439000D03*
X176590900Y-21439000D03*
D46*
X180566000Y-19889000D03*
D47*
X175966000Y-19889000D03*
G04 #@! TD*
D11*
G04 #@! TO.C,C6*
X62051000Y-135585000D03*
X63601000Y-135585000D03*
G04 #@! TD*
D12*
G04 #@! TO.C,C84*
X61875000Y-152525000D03*
X60325000Y-152525000D03*
G04 #@! TD*
G04 #@! TO.C,C58*
X168195000Y-231555000D03*
X166645000Y-231555000D03*
G04 #@! TD*
D13*
G04 #@! TO.C,RGB19*
X154479900Y-71555100D03*
X155980100Y-71555100D03*
X155980100Y-65954900D03*
X154480700Y-65953380D03*
X154479900Y-65954900D03*
G04 #@! TD*
D11*
G04 #@! TO.C,C62*
X158395000Y-241985000D03*
X159945000Y-241985000D03*
G04 #@! TD*
D17*
G04 #@! TO.C,RGB75*
X139980100Y-193954900D03*
X138479900Y-193954900D03*
X138479900Y-199555100D03*
X139979300Y-199556620D03*
X139980100Y-199555100D03*
G04 #@! TD*
D16*
G04 #@! TO.C,R3*
X120437840Y-25662360D03*
X120437840Y-27312360D03*
G04 #@! TD*
D11*
G04 #@! TO.C,C99*
X193213000Y-40150000D03*
X194763000Y-40150000D03*
G04 #@! TD*
D13*
G04 #@! TO.C,RGB59*
X170479900Y-247555100D03*
X171980100Y-247555100D03*
X171980100Y-241954900D03*
X170480700Y-241953380D03*
X170479900Y-241954900D03*
G04 #@! TD*
D12*
G04 #@! TO.C,C102*
X199509000Y-40456000D03*
X197959000Y-40456000D03*
G04 #@! TD*
G04 #@! TO.C,C103*
X199511000Y-41970000D03*
X197961000Y-41970000D03*
G04 #@! TD*
D15*
G04 #@! TO.C,RGB50*
X230020100Y-197255100D03*
X230020100Y-195754900D03*
X224419900Y-195754900D03*
X224418380Y-197254300D03*
X224419900Y-197255100D03*
G04 #@! TD*
D14*
G04 #@! TO.C,RGB46*
X248429900Y-164004900D03*
X248429900Y-165505100D03*
X254030100Y-165505100D03*
X254031620Y-164005700D03*
X254030100Y-164004900D03*
G04 #@! TD*
D11*
G04 #@! TO.C,C35*
X222000000Y-135775000D03*
X223550000Y-135775000D03*
G04 #@! TD*
D14*
G04 #@! TO.C,RGB3*
X105329900Y-76354900D03*
X105329900Y-77855100D03*
X110930100Y-77855100D03*
X110931620Y-76355700D03*
X110930100Y-76354900D03*
G04 #@! TD*
D11*
G04 #@! TO.C,C5*
X46055000Y-135585000D03*
X47605000Y-135585000D03*
G04 #@! TD*
D17*
G04 #@! TO.C,RGB11*
X139980100Y-113954900D03*
X138479900Y-113954900D03*
X138479900Y-119555100D03*
X139979300Y-119556620D03*
X139980100Y-119555100D03*
G04 #@! TD*
D15*
G04 #@! TO.C,RGB84*
X62030100Y-149505100D03*
X62030100Y-148004900D03*
X56429900Y-148004900D03*
X56428380Y-149504300D03*
X56429900Y-149505100D03*
G04 #@! TD*
D12*
G04 #@! TO.C,C54*
X184515000Y-162095000D03*
X182965000Y-162095000D03*
G04 #@! TD*
G04 #@! TO.C,C47*
X249385000Y-217445000D03*
X247835000Y-217445000D03*
G04 #@! TD*
D11*
G04 #@! TO.C,C65*
X158395000Y-193955000D03*
X159945000Y-193955000D03*
G04 #@! TD*
D14*
G04 #@! TO.C,RGB44*
X184429900Y-148004900D03*
X184429900Y-149505100D03*
X190030100Y-149505100D03*
X190031620Y-148005700D03*
X190030100Y-148004900D03*
G04 #@! TD*
D34*
G04 #@! TO.C,C89*
X128058020Y-29873140D03*
X128058020Y-31423140D03*
G04 #@! TD*
D15*
G04 #@! TO.C,RGB35*
X222030100Y-133505100D03*
X222030100Y-132004900D03*
X216429900Y-132004900D03*
X216428380Y-133504300D03*
X216429900Y-133505100D03*
G04 #@! TD*
D12*
G04 #@! TO.C,C20*
X152265000Y-87585000D03*
X150715000Y-87585000D03*
G04 #@! TD*
D15*
G04 #@! TO.C,RGB85*
X78030100Y-149505100D03*
X78030100Y-148004900D03*
X72429900Y-148004900D03*
X72428380Y-149504300D03*
X72429900Y-149505100D03*
G04 #@! TD*
D17*
G04 #@! TO.C,RGB68*
X139980100Y-241954900D03*
X138479900Y-241954900D03*
X138479900Y-247555100D03*
X139979300Y-247556620D03*
X139980100Y-247555100D03*
G04 #@! TD*
G04 #@! TO.C,RGB64*
X155980100Y-209954900D03*
X154479900Y-209954900D03*
X154479900Y-215555100D03*
X155979300Y-215556620D03*
X155980100Y-215555100D03*
G04 #@! TD*
G04 #@! TO.C,RGB12*
X139980100Y-97954900D03*
X138479900Y-97954900D03*
X138479900Y-103555100D03*
X139979300Y-103556620D03*
X139980100Y-103555100D03*
G04 #@! TD*
D48*
G04 #@! TO.C,C97*
X144038008Y-170906992D03*
X142941992Y-172003008D03*
G04 #@! TD*
D13*
G04 #@! TO.C,RGB20*
X154479900Y-87555100D03*
X155980100Y-87555100D03*
X155980100Y-81954900D03*
X154480700Y-81953380D03*
X154479900Y-81954900D03*
G04 #@! TD*
D11*
G04 #@! TO.C,C67*
X142255000Y-257865000D03*
X143805000Y-257865000D03*
G04 #@! TD*
D12*
G04 #@! TO.C,C56*
X168195000Y-199525000D03*
X166645000Y-199525000D03*
G04 #@! TD*
D43*
G04 #@! TO.C,R11*
X206279000Y-30779000D03*
X206279000Y-29129000D03*
G04 #@! TD*
D21*
G04 #@! TO.C,C95*
X117337840Y-22532360D03*
X117337840Y-20982360D03*
G04 #@! TD*
D13*
G04 #@! TO.C,RGB18*
X154479900Y-55555100D03*
X155980100Y-55555100D03*
X155980100Y-49954900D03*
X154480700Y-49953380D03*
X154479900Y-49954900D03*
G04 #@! TD*
D49*
G04 #@! TO.C,U3*
X111238020Y-26648140D03*
X111238020Y-27918140D03*
X111238020Y-29188140D03*
X111238020Y-30458140D03*
X111238020Y-31728140D03*
X111238020Y-32998140D03*
X111238020Y-34268140D03*
X111238020Y-35538140D03*
X111238020Y-36808140D03*
X111238020Y-38078140D03*
X111238020Y-39348140D03*
X111238020Y-40618140D03*
X111238020Y-41888140D03*
X111238020Y-43158140D03*
D50*
X109473020Y-44408140D03*
X108203020Y-44408140D03*
X106933020Y-44408140D03*
X105663020Y-44408140D03*
X104393020Y-44408140D03*
X103123020Y-44408140D03*
X101853020Y-44408140D03*
X100583020Y-44408140D03*
X99313020Y-44408140D03*
X98043020Y-44408140D03*
X96773020Y-44408140D03*
X95503020Y-44408140D03*
D49*
X93738020Y-43158140D03*
X93738020Y-41888140D03*
X93738020Y-40618140D03*
X93738020Y-39348140D03*
X93738020Y-38078140D03*
X93738020Y-36808140D03*
X93738020Y-35538140D03*
X93738020Y-34268140D03*
X93738020Y-32998140D03*
X93738020Y-31728140D03*
X93738020Y-30458140D03*
X93738020Y-29188140D03*
X93738020Y-27918140D03*
X93738020Y-26648140D03*
D51*
X105388020Y-35068140D03*
X105388020Y-33668140D03*
X104688020Y-35768140D03*
X104688020Y-34368140D03*
X104688020Y-32968140D03*
X103988020Y-35068140D03*
D52*
X103988020Y-34368140D03*
D51*
X103988020Y-33668140D03*
X103288020Y-35768140D03*
X103288020Y-34368140D03*
X103288020Y-32968140D03*
X102588020Y-35068140D03*
X102588020Y-33668140D03*
G04 #@! TD*
D12*
G04 #@! TO.C,C77*
X120475000Y-161925000D03*
X118925000Y-161925000D03*
G04 #@! TD*
D21*
G04 #@! TO.C,C98*
X196281000Y-41757000D03*
X196281000Y-40207000D03*
G04 #@! TD*
D12*
G04 #@! TO.C,C86*
X93835000Y-152525000D03*
X92285000Y-152525000D03*
G04 #@! TD*
D14*
G04 #@! TO.C,RGB81*
X56429900Y-164004900D03*
X56429900Y-165505100D03*
X62030100Y-165505100D03*
X62031620Y-164005700D03*
X62030100Y-164004900D03*
G04 #@! TD*
D15*
G04 #@! TO.C,RGB38*
X270030100Y-133505100D03*
X270030100Y-132004900D03*
X264429900Y-132004900D03*
X264428380Y-133504300D03*
X264429900Y-133505100D03*
G04 #@! TD*
D16*
G04 #@! TO.C,R7*
X122057840Y-25612360D03*
X122057840Y-27262360D03*
G04 #@! TD*
D14*
G04 #@! TO.C,RGB80*
X72429900Y-164004900D03*
X72429900Y-165505100D03*
X78030100Y-165505100D03*
X78031620Y-164005700D03*
X78030100Y-164004900D03*
G04 #@! TD*
D21*
G04 #@! TO.C,C101*
X207862000Y-30713000D03*
X207862000Y-29163000D03*
G04 #@! TD*
D14*
G04 #@! TO.C,RGB40*
X248429900Y-148004900D03*
X248429900Y-149505100D03*
X254030100Y-149505100D03*
X254031620Y-148005700D03*
X254030100Y-148004900D03*
G04 #@! TD*
D12*
G04 #@! TO.C,C23*
X168295000Y-39545000D03*
X166745000Y-39545000D03*
G04 #@! TD*
D11*
G04 #@! TO.C,C3*
X105345000Y-73825000D03*
X106895000Y-73825000D03*
G04 #@! TD*
G04 #@! TO.C,C70*
X61775000Y-224145000D03*
X63325000Y-224145000D03*
G04 #@! TD*
D15*
G04 #@! TO.C,RGB25*
X230020100Y-53255100D03*
X230020100Y-51754900D03*
X224419900Y-51754900D03*
X224418380Y-53254300D03*
X224419900Y-53255100D03*
G04 #@! TD*
D12*
G04 #@! TO.C,C57*
X168195000Y-215565000D03*
X166645000Y-215565000D03*
G04 #@! TD*
G04 #@! TO.C,C78*
X104435000Y-161925000D03*
X102885000Y-161925000D03*
G04 #@! TD*
D53*
G04 #@! TO.C,U6*
X124558020Y-30063140D03*
X125508020Y-30063140D03*
X126458020Y-30063140D03*
X126458020Y-32338140D03*
X124558020Y-32338140D03*
G04 #@! TD*
D14*
G04 #@! TO.C,RGB53*
X200429900Y-164004900D03*
X200429900Y-165505100D03*
X206030100Y-165505100D03*
X206031620Y-164005700D03*
X206030100Y-164004900D03*
G04 #@! TD*
D15*
G04 #@! TO.C,RGB49*
X205770100Y-221855100D03*
X205770100Y-220354900D03*
X200169900Y-220354900D03*
X200168380Y-221854300D03*
X200169900Y-221855100D03*
G04 #@! TD*
D12*
G04 #@! TO.C,C45*
X264425000Y-162095000D03*
X262875000Y-162095000D03*
G04 #@! TD*
G04 #@! TO.C,C26*
X249345000Y-74105000D03*
X247795000Y-74105000D03*
G04 #@! TD*
G04 #@! TO.C,C82*
X40480000Y-161925000D03*
X38930000Y-161925000D03*
G04 #@! TD*
D15*
G04 #@! TO.C,RGB88*
X126030100Y-149505100D03*
X126030100Y-148004900D03*
X120429900Y-148004900D03*
X120428380Y-149504300D03*
X120429900Y-149505100D03*
G04 #@! TD*
D16*
G04 #@! TO.C,R1*
X147380000Y-26470000D03*
X147380000Y-28120000D03*
G04 #@! TD*
D12*
G04 #@! TO.C,C81*
X56445000Y-161925000D03*
X54895000Y-161925000D03*
G04 #@! TD*
G04 #@! TO.C,C88*
X126015000Y-152445000D03*
X124465000Y-152445000D03*
G04 #@! TD*
D15*
G04 #@! TO.C,RGB34*
X206030100Y-133505100D03*
X206030100Y-132004900D03*
X200429900Y-132004900D03*
X200428380Y-133504300D03*
X200429900Y-133505100D03*
G04 #@! TD*
D14*
G04 #@! TO.C,RGB52*
X216429900Y-164004900D03*
X216429900Y-165505100D03*
X222030100Y-165505100D03*
X222031620Y-164005700D03*
X222030100Y-164004900D03*
G04 #@! TD*
D40*
G04 #@! TO.C,D2*
X167385000Y-22115500D03*
X167385000Y-20540500D03*
G04 #@! TD*
D17*
G04 #@! TO.C,RGB73*
X139980100Y-225954900D03*
X138479900Y-225954900D03*
X138479900Y-231555100D03*
X139979300Y-231556620D03*
X139980100Y-231555100D03*
G04 #@! TD*
D12*
G04 #@! TO.C,C85*
X77905000Y-152525000D03*
X76355000Y-152525000D03*
G04 #@! TD*
D17*
G04 #@! TO.C,RGB76*
X139980100Y-177954900D03*
X138479900Y-177954900D03*
X138479900Y-183555100D03*
X139979300Y-183556620D03*
X139980100Y-183555100D03*
G04 #@! TD*
D11*
G04 #@! TO.C,C37*
X253945000Y-135775000D03*
X255495000Y-135775000D03*
G04 #@! TD*
D17*
G04 #@! TO.C,RGB61*
X155980100Y-257954900D03*
X154479900Y-257954900D03*
X154479900Y-263555100D03*
X155979300Y-263556620D03*
X155980100Y-263555100D03*
G04 #@! TD*
D13*
G04 #@! TO.C,RGB60*
X170479900Y-263555100D03*
X171980100Y-263555100D03*
X171980100Y-257954900D03*
X170480700Y-257953380D03*
X170479900Y-257954900D03*
G04 #@! TD*
D14*
G04 #@! TO.C,RGB79*
X88429900Y-164004900D03*
X88429900Y-165505100D03*
X94030100Y-165505100D03*
X94031620Y-164005700D03*
X94030100Y-164004900D03*
G04 #@! TD*
D15*
G04 #@! TO.C,RGB36*
X238030100Y-133505100D03*
X238030100Y-132004900D03*
X232429900Y-132004900D03*
X232428380Y-133504300D03*
X232429900Y-133505100D03*
G04 #@! TD*
D17*
G04 #@! TO.C,RGB66*
X155980100Y-177954900D03*
X154479900Y-177954900D03*
X154479900Y-183555100D03*
X155979300Y-183556620D03*
X155980100Y-183555100D03*
G04 #@! TD*
G36*
X148513039Y-18774685D02*
G01*
X148558794Y-18827489D01*
X148570000Y-18879000D01*
X148570000Y-23660847D01*
X148550315Y-23727886D01*
X148497511Y-23773641D01*
X148445848Y-23784847D01*
X124213349Y-23755151D01*
X124146334Y-23735384D01*
X124100644Y-23682524D01*
X124089502Y-23631651D01*
X124070500Y-18919144D01*
X124089914Y-18852026D01*
X124142533Y-18806058D01*
X124194145Y-18794645D01*
X138069650Y-18755001D01*
X138070004Y-18755000D01*
X148446000Y-18755000D01*
X148513039Y-18774685D01*
G37*
M02*
