G04 #@! TF.GenerationSoftware,KiCad,Pcbnew,8.0.1*
G04 #@! TF.CreationDate,2024-08-27T15:58:46+05:30*
G04 #@! TF.ProjectId,Ludo,4c75646f-2e6b-4696-9361-645f70636258,rev?*
G04 #@! TF.SameCoordinates,Original*
G04 #@! TF.FileFunction,Paste,Bot*
G04 #@! TF.FilePolarity,Positive*
%FSLAX46Y46*%
G04 Gerber Fmt 4.6, Leading zero omitted, Abs format (unit mm)*
G04 Created by KiCad (PCBNEW 8.0.1) date 2024-08-27 15:58:46*
%MOMM*%
%LPD*%
G01*
G04 APERTURE LIST*
G04 Aperture macros list*
%AMRoundRect*
0 Rectangle with rounded corners*
0 $1 Rounding radius*
0 $2 $3 $4 $5 $6 $7 $8 $9 X,Y pos of 4 corners*
0 Add a 4 corners polygon primitive as box body*
4,1,4,$2,$3,$4,$5,$6,$7,$8,$9,$2,$3,0*
0 Add four circle primitives for the rounded corners*
1,1,$1+$1,$2,$3*
1,1,$1+$1,$4,$5*
1,1,$1+$1,$6,$7*
1,1,$1+$1,$8,$9*
0 Add four rect primitives between the rounded corners*
20,1,$1+$1,$2,$3,$4,$5,0*
20,1,$1+$1,$4,$5,$6,$7,0*
20,1,$1+$1,$6,$7,$8,$9,0*
20,1,$1+$1,$8,$9,$2,$3,0*%
%AMRotRect*
0 Rectangle, with rotation*
0 The origin of the aperture is its center*
0 $1 length*
0 $2 width*
0 $3 Rotation angle, in degrees counterclockwise*
0 Add horizontal line*
21,1,$1,$2,0,0,$3*%
G04 Aperture macros list end*
%ADD10C,0.010000*%
%ADD11RoundRect,0.225000X-0.225000X-0.250000X0.225000X-0.250000X0.225000X0.250000X-0.225000X0.250000X0*%
%ADD12RoundRect,0.225000X0.225000X0.250000X-0.225000X0.250000X-0.225000X-0.250000X0.225000X-0.250000X0*%
%ADD13R,0.820000X1.500000*%
%ADD14R,1.500000X0.820000*%
%ADD15RoundRect,0.200000X-0.275000X0.200000X-0.275000X-0.200000X0.275000X-0.200000X0.275000X0.200000X0*%
%ADD16R,2.000000X0.800000*%
%ADD17R,3.400000X2.150000*%
%ADD18RoundRect,0.225000X0.250000X-0.225000X0.250000X0.225000X-0.250000X0.225000X-0.250000X-0.225000X0*%
%ADD19RoundRect,0.225000X0.017678X-0.335876X0.335876X-0.017678X-0.017678X0.335876X-0.335876X0.017678X0*%
%ADD20RoundRect,0.200000X-0.200000X-0.275000X0.200000X-0.275000X0.200000X0.275000X-0.200000X0.275000X0*%
%ADD21RoundRect,0.250000X-0.250000X-0.475000X0.250000X-0.475000X0.250000X0.475000X-0.250000X0.475000X0*%
%ADD22RotRect,0.800000X1.750000X315.000000*%
%ADD23RotRect,0.700000X1.750000X315.000000*%
%ADD24R,0.600000X1.450000*%
%ADD25R,0.300000X1.450000*%
%ADD26RoundRect,0.250000X0.250000X1.500000X-0.250000X1.500000X-0.250000X-1.500000X0.250000X-1.500000X0*%
%ADD27RoundRect,0.250001X0.499999X1.449999X-0.499999X1.449999X-0.499999X-1.449999X0.499999X-1.449999X0*%
%ADD28RoundRect,0.225000X-0.250000X0.225000X-0.250000X-0.225000X0.250000X-0.225000X0.250000X0.225000X0*%
%ADD29R,1.750000X0.600000*%
%ADD30RoundRect,0.218750X-0.256250X0.218750X-0.256250X-0.218750X0.256250X-0.218750X0.256250X0.218750X0*%
%ADD31RoundRect,0.250000X-0.250000X-1.500000X0.250000X-1.500000X0.250000X1.500000X-0.250000X1.500000X0*%
%ADD32RoundRect,0.250001X-0.499999X-1.449999X0.499999X-1.449999X0.499999X1.449999X-0.499999X1.449999X0*%
%ADD33RoundRect,0.218750X0.256250X-0.218750X0.256250X0.218750X-0.256250X0.218750X-0.256250X-0.218750X0*%
%ADD34RotRect,0.800000X1.750000X135.000000*%
%ADD35RotRect,0.700000X1.750000X135.000000*%
%ADD36RoundRect,0.200000X0.275000X-0.200000X0.275000X0.200000X-0.275000X0.200000X-0.275000X-0.200000X0*%
%ADD37R,1.200000X1.300000*%
%ADD38R,0.900000X1.200000*%
%ADD39RoundRect,0.225000X-0.017678X0.335876X-0.335876X0.017678X0.017678X-0.335876X0.335876X-0.017678X0*%
%ADD40R,0.900000X0.900000*%
%ADD41R,1.500000X0.900000*%
%ADD42R,0.900000X1.500000*%
%ADD43RoundRect,0.150000X-0.150000X0.512500X-0.150000X-0.512500X0.150000X-0.512500X0.150000X0.512500X0*%
G04 APERTURE END LIST*
D10*
G04 #@! TO.C,U1*
X198481000Y-35859000D02*
X197881000Y-35859000D01*
X197881000Y-35259000D01*
X198481000Y-35259000D01*
X198481000Y-35859000D01*
G36*
X198481000Y-35859000D02*
G01*
X197881000Y-35859000D01*
X197881000Y-35259000D01*
X198481000Y-35259000D01*
X198481000Y-35859000D01*
G37*
G04 #@! TD*
D11*
G04 #@! TO.C,C28*
X205765000Y-79825000D03*
X207315000Y-79825000D03*
G04 #@! TD*
D12*
G04 #@! TO.C,C83*
X45920000Y-152525000D03*
X44370000Y-152525000D03*
G04 #@! TD*
D13*
G04 #@! TO.C,RGB30*
X170479900Y-87555100D03*
X171980100Y-87555100D03*
X171980100Y-81954900D03*
X170480700Y-81953380D03*
X170479900Y-81954900D03*
G04 #@! TD*
D14*
G04 #@! TO.C,RGB54*
X184429900Y-164004900D03*
X184429900Y-165505100D03*
X190030100Y-165505100D03*
X190031620Y-164005700D03*
X190030100Y-164004900D03*
G04 #@! TD*
G04 #@! TO.C,RGB8*
X94030100Y-133505100D03*
X94030100Y-132004900D03*
X88429900Y-132004900D03*
X88428380Y-133504300D03*
X88429900Y-133505100D03*
G04 #@! TD*
D15*
G04 #@! TO.C,R2*
X145670000Y-26440000D03*
X145670000Y-28090000D03*
G04 #@! TD*
G04 #@! TO.C,R4*
X118887840Y-25662360D03*
X118887840Y-27312360D03*
G04 #@! TD*
D12*
G04 #@! TO.C,C32*
X168295000Y-119545000D03*
X166745000Y-119545000D03*
G04 #@! TD*
D13*
G04 #@! TO.C,RGB13*
X139980100Y-81954900D03*
X138479900Y-81954900D03*
X138479900Y-87555100D03*
X139979300Y-87556620D03*
X139980100Y-87555100D03*
G04 #@! TD*
G04 #@! TO.C,RGB56*
X170479900Y-199555100D03*
X171980100Y-199555100D03*
X171980100Y-193954900D03*
X170480700Y-193953380D03*
X170479900Y-193954900D03*
G04 #@! TD*
D11*
G04 #@! TO.C,C1*
X61815000Y-79415000D03*
X63365000Y-79415000D03*
G04 #@! TD*
G04 #@! TO.C,C74*
X142255000Y-209895000D03*
X143805000Y-209895000D03*
G04 #@! TD*
D16*
G04 #@! TO.C,SW2*
X119707840Y-19717360D03*
X119707840Y-23917360D03*
G04 #@! TD*
D17*
G04 #@! TO.C,L1*
X206067000Y-38792000D03*
X206067000Y-32942000D03*
G04 #@! TD*
D13*
G04 #@! TO.C,RGB62*
X155980100Y-241954900D03*
X154479900Y-241954900D03*
X154479900Y-247555100D03*
X155979300Y-247556620D03*
X155980100Y-247555100D03*
G04 #@! TD*
G04 #@! TO.C,RGB67*
X139980100Y-257954900D03*
X138479900Y-257954900D03*
X138479900Y-263555100D03*
X139979300Y-263556620D03*
X139980100Y-263555100D03*
G04 #@! TD*
D14*
G04 #@! TO.C,RGB71*
X86030100Y-197255100D03*
X86030100Y-195754900D03*
X80429900Y-195754900D03*
X80428380Y-197254300D03*
X80429900Y-197255100D03*
G04 #@! TD*
D13*
G04 #@! TO.C,RGB32*
X170479900Y-119555100D03*
X171980100Y-119555100D03*
X171980100Y-113954900D03*
X170480700Y-113953380D03*
X170479900Y-113954900D03*
G04 #@! TD*
D11*
G04 #@! TO.C,C7*
X78047000Y-135585000D03*
X79597000Y-135585000D03*
G04 #@! TD*
D18*
G04 #@! TO.C,C94*
X116937840Y-28062360D03*
X116937840Y-26512360D03*
G04 #@! TD*
D13*
G04 #@! TO.C,RGB55*
X170479900Y-183555100D03*
X171980100Y-183555100D03*
X171980100Y-177954900D03*
X170480700Y-177953380D03*
X170479900Y-177954900D03*
G04 #@! TD*
D11*
G04 #@! TO.C,C76*
X142255000Y-177915000D03*
X143805000Y-177915000D03*
G04 #@! TD*
D19*
G04 #@! TO.C,C96*
X128801992Y-126593008D03*
X129898008Y-125496992D03*
G04 #@! TD*
D11*
G04 #@! TO.C,C13*
X142335000Y-81945000D03*
X143885000Y-81945000D03*
G04 #@! TD*
D13*
G04 #@! TO.C,RGB57*
X170479900Y-215555100D03*
X171980100Y-215555100D03*
X171980100Y-209954900D03*
X170480700Y-209953380D03*
X170479900Y-209954900D03*
G04 #@! TD*
D20*
G04 #@! TO.C,R5*
X117243020Y-41818140D03*
X118893020Y-41818140D03*
G04 #@! TD*
D21*
G04 #@! TO.C,C91*
X124558020Y-34463140D03*
X126458020Y-34463140D03*
G04 #@! TD*
D18*
G04 #@! TO.C,C93*
X115337840Y-28082360D03*
X115337840Y-26532360D03*
G04 #@! TD*
D22*
G04 #@! TO.C,IC1*
X134369132Y-124468978D03*
D23*
X135302513Y-125402359D03*
X136200538Y-126300385D03*
X137098564Y-127198411D03*
X137996589Y-128096436D03*
X138894615Y-128994462D03*
X139792641Y-129892487D03*
D22*
X140726022Y-130825868D03*
X136730868Y-134821022D03*
D23*
X135797487Y-133887641D03*
X134899462Y-132989615D03*
X134001436Y-132091589D03*
X133103411Y-131193564D03*
X132205385Y-130295538D03*
X131307359Y-129397513D03*
D22*
X130373978Y-128464132D03*
G04 #@! TD*
D11*
G04 #@! TO.C,C71*
X86110000Y-200025000D03*
X87660000Y-200025000D03*
G04 #@! TD*
D24*
G04 #@! TO.C,J2*
X151980000Y-26992360D03*
X152780000Y-26992360D03*
D25*
X153980000Y-26992360D03*
X154980000Y-26992360D03*
X155480000Y-26992360D03*
X156480000Y-26992360D03*
D24*
X157680000Y-26992360D03*
X158480000Y-26992360D03*
X158480000Y-26992360D03*
X157680000Y-26992360D03*
D25*
X156980000Y-26992360D03*
X155980000Y-26992360D03*
X154480000Y-26992360D03*
X153480000Y-26992360D03*
D24*
X152780000Y-26992360D03*
X151980000Y-26992360D03*
G04 #@! TD*
D12*
G04 #@! TO.C,C52*
X216425000Y-162095000D03*
X214875000Y-162095000D03*
G04 #@! TD*
D11*
G04 #@! TO.C,C9*
X110039000Y-135585000D03*
X111589000Y-135585000D03*
G04 #@! TD*
D13*
G04 #@! TO.C,RGB17*
X154479900Y-39555100D03*
X155980100Y-39555100D03*
X155980100Y-33954900D03*
X154480700Y-33953380D03*
X154479900Y-33954900D03*
G04 #@! TD*
D26*
G04 #@! TO.C,J4*
X215967000Y-33331000D03*
X213967000Y-33331000D03*
D27*
X218317000Y-39081000D03*
X211617000Y-39081000D03*
G04 #@! TD*
D14*
G04 #@! TO.C,RGB39*
X264429900Y-148004900D03*
X264429900Y-149505100D03*
X270030100Y-149505100D03*
X270031620Y-148005700D03*
X270030100Y-148004900D03*
G04 #@! TD*
D11*
G04 #@! TO.C,C63*
X158395000Y-225935000D03*
X159945000Y-225935000D03*
G04 #@! TD*
G04 #@! TO.C,C64*
X158395000Y-209955000D03*
X159945000Y-209955000D03*
G04 #@! TD*
D14*
G04 #@! TO.C,RGB82*
X40429900Y-164004900D03*
X40429900Y-165505100D03*
X46030100Y-165505100D03*
X46031620Y-164005700D03*
X46030100Y-164004900D03*
G04 #@! TD*
D28*
G04 #@! TO.C,C90*
X128048020Y-32898140D03*
X128048020Y-34448140D03*
G04 #@! TD*
D29*
G04 #@! TO.C,U1*
X195381000Y-37464000D03*
X195381000Y-36194000D03*
X195381000Y-34924000D03*
X195381000Y-33654000D03*
X200981000Y-33654000D03*
X200981000Y-34924000D03*
X200981000Y-36194000D03*
X200981000Y-37464000D03*
G04 #@! TD*
D12*
G04 #@! TO.C,C44*
X184475000Y-145685000D03*
X182925000Y-145685000D03*
G04 #@! TD*
G04 #@! TO.C,C27*
X224505000Y-96815000D03*
X222955000Y-96815000D03*
G04 #@! TD*
D14*
G04 #@! TO.C,RGB10*
X126030100Y-133505100D03*
X126030100Y-132004900D03*
X120429900Y-132004900D03*
X120428380Y-133504300D03*
X120429900Y-133505100D03*
G04 #@! TD*
D11*
G04 #@! TO.C,C11*
X142335000Y-113955000D03*
X143885000Y-113955000D03*
G04 #@! TD*
D12*
G04 #@! TO.C,C55*
X168195000Y-183535000D03*
X166645000Y-183535000D03*
G04 #@! TD*
G04 #@! TO.C,C21*
X152265000Y-103555000D03*
X150715000Y-103555000D03*
G04 #@! TD*
D11*
G04 #@! TO.C,C73*
X142255000Y-225955000D03*
X143805000Y-225955000D03*
G04 #@! TD*
D14*
G04 #@! TO.C,RGB70*
X61780100Y-221855100D03*
X61780100Y-220354900D03*
X56179900Y-220354900D03*
X56178380Y-221854300D03*
X56179900Y-221855100D03*
G04 #@! TD*
G04 #@! TO.C,RGB2*
X86030100Y-53255100D03*
X86030100Y-51754900D03*
X80429900Y-51754900D03*
X80428380Y-53254300D03*
X80429900Y-53255100D03*
G04 #@! TD*
D12*
G04 #@! TO.C,C40*
X248460000Y-145685000D03*
X246910000Y-145685000D03*
G04 #@! TD*
D13*
G04 #@! TO.C,RGB23*
X170479900Y-39555100D03*
X171980100Y-39555100D03*
X171980100Y-33954900D03*
X170480700Y-33953380D03*
X170479900Y-33954900D03*
G04 #@! TD*
D30*
G04 #@! TO.C,D1*
X164795000Y-20580500D03*
X164795000Y-22155500D03*
G04 #@! TD*
D14*
G04 #@! TO.C,RGB86*
X94030100Y-149505100D03*
X94030100Y-148004900D03*
X88429900Y-148004900D03*
X88428380Y-149504300D03*
X88429900Y-149505100D03*
G04 #@! TD*
G04 #@! TO.C,RGB27*
X224419900Y-99454900D03*
X224419900Y-100955100D03*
X230020100Y-100955100D03*
X230021620Y-99455700D03*
X230020100Y-99454900D03*
G04 #@! TD*
D13*
G04 #@! TO.C,RGB74*
X139980100Y-209954900D03*
X138479900Y-209954900D03*
X138479900Y-215555100D03*
X139979300Y-215556620D03*
X139980100Y-215555100D03*
G04 #@! TD*
D14*
G04 #@! TO.C,RGB26*
X249319900Y-76354900D03*
X249319900Y-77855100D03*
X254920100Y-77855100D03*
X254921620Y-76355700D03*
X254920100Y-76354900D03*
G04 #@! TD*
G04 #@! TO.C,RGB9*
X110030100Y-133505100D03*
X110030100Y-132004900D03*
X104429900Y-132004900D03*
X104428380Y-133504300D03*
X104429900Y-133505100D03*
G04 #@! TD*
D12*
G04 #@! TO.C,C87*
X109945000Y-151945000D03*
X108395000Y-151945000D03*
G04 #@! TD*
D11*
G04 #@! TO.C,C33*
X189880000Y-135775000D03*
X191430000Y-135775000D03*
G04 #@! TD*
D12*
G04 #@! TO.C,C18*
X152265000Y-55565000D03*
X150715000Y-55565000D03*
G04 #@! TD*
G04 #@! TO.C,C46*
X248555000Y-162095000D03*
X247005000Y-162095000D03*
G04 #@! TD*
D11*
G04 #@! TO.C,C50*
X229955000Y-199805000D03*
X231505000Y-199805000D03*
G04 #@! TD*
D12*
G04 #@! TO.C,C104*
X199504000Y-38915000D03*
X197954000Y-38915000D03*
G04 #@! TD*
D14*
G04 #@! TO.C,RGB41*
X232429900Y-148004900D03*
X232429900Y-149505100D03*
X238030100Y-149505100D03*
X238031620Y-148005700D03*
X238030100Y-148004900D03*
G04 #@! TD*
D12*
G04 #@! TO.C,C19*
X152265000Y-71445000D03*
X150715000Y-71445000D03*
G04 #@! TD*
G04 #@! TO.C,C29*
X168295000Y-71555000D03*
X166745000Y-71555000D03*
G04 #@! TD*
G04 #@! TO.C,C22*
X152265000Y-119585000D03*
X150715000Y-119585000D03*
G04 #@! TD*
D14*
G04 #@! TO.C,RGB28*
X205770100Y-77855100D03*
X205770100Y-76354900D03*
X200169900Y-76354900D03*
X200168380Y-77854300D03*
X200169900Y-77855100D03*
G04 #@! TD*
D30*
G04 #@! TO.C,LED2*
X122147840Y-20029860D03*
X122147840Y-21604860D03*
G04 #@! TD*
D12*
G04 #@! TO.C,C53*
X200465000Y-162095000D03*
X198915000Y-162095000D03*
G04 #@! TD*
D14*
G04 #@! TO.C,RGB37*
X254030100Y-133505100D03*
X254030100Y-132004900D03*
X248429900Y-132004900D03*
X248428380Y-133504300D03*
X248429900Y-133505100D03*
G04 #@! TD*
D13*
G04 #@! TO.C,RGB15*
X139980100Y-49954900D03*
X138479900Y-49954900D03*
X138479900Y-55555100D03*
X139979300Y-55556620D03*
X139980100Y-55555100D03*
G04 #@! TD*
D30*
G04 #@! TO.C,D3*
X169975000Y-20580500D03*
X169975000Y-22155500D03*
G04 #@! TD*
D13*
G04 #@! TO.C,RGB24*
X170479900Y-55555100D03*
X171980100Y-55555100D03*
X171980100Y-49954900D03*
X170480700Y-49953380D03*
X170479900Y-49954900D03*
G04 #@! TD*
D12*
G04 #@! TO.C,C30*
X168295000Y-87585000D03*
X166745000Y-87585000D03*
G04 #@! TD*
D14*
G04 #@! TO.C,RGB1*
X61780100Y-77855100D03*
X61780100Y-76354900D03*
X56179900Y-76354900D03*
X56178380Y-77854300D03*
X56179900Y-77855100D03*
G04 #@! TD*
D13*
G04 #@! TO.C,RGB31*
X170479900Y-103555100D03*
X171980100Y-103555100D03*
X171980100Y-97954900D03*
X170480700Y-97953380D03*
X170479900Y-97954900D03*
G04 #@! TD*
D12*
G04 #@! TO.C,C17*
X152265000Y-39535000D03*
X150715000Y-39535000D03*
G04 #@! TD*
D11*
G04 #@! TO.C,C8*
X94043000Y-135585000D03*
X95593000Y-135585000D03*
G04 #@! TD*
D14*
G04 #@! TO.C,RGB77*
X120429900Y-164004900D03*
X120429900Y-165505100D03*
X126030100Y-165505100D03*
X126031620Y-164005700D03*
X126030100Y-164004900D03*
G04 #@! TD*
D11*
G04 #@! TO.C,C92*
X124773020Y-36283140D03*
X126323020Y-36283140D03*
G04 #@! TD*
D12*
G04 #@! TO.C,C59*
X168195000Y-247585000D03*
X166645000Y-247585000D03*
G04 #@! TD*
D31*
G04 #@! TO.C,J1*
X223341000Y-39008000D03*
X225341000Y-39008000D03*
D32*
X220991000Y-33258000D03*
X227691000Y-33258000D03*
G04 #@! TD*
D11*
G04 #@! TO.C,C38*
X270015000Y-135775000D03*
X271565000Y-135775000D03*
G04 #@! TD*
D20*
G04 #@! TO.C,R6*
X117263020Y-43398140D03*
X118913020Y-43398140D03*
G04 #@! TD*
D14*
G04 #@! TO.C,RGB33*
X190030100Y-133505100D03*
X190030100Y-132004900D03*
X184429900Y-132004900D03*
X184428380Y-133504300D03*
X184429900Y-133505100D03*
G04 #@! TD*
G04 #@! TO.C,RGB83*
X46030100Y-149505100D03*
X46030100Y-148004900D03*
X40429900Y-148004900D03*
X40428380Y-149504300D03*
X40429900Y-149505100D03*
G04 #@! TD*
G04 #@! TO.C,RGB48*
X224419900Y-243454900D03*
X224419900Y-244955100D03*
X230020100Y-244955100D03*
X230021620Y-243455700D03*
X230020100Y-243454900D03*
G04 #@! TD*
D20*
G04 #@! TO.C,R8*
X193169000Y-41723000D03*
X194819000Y-41723000D03*
G04 #@! TD*
D33*
G04 #@! TO.C,D4*
X172565000Y-22115500D03*
X172565000Y-20540500D03*
G04 #@! TD*
D14*
G04 #@! TO.C,RGB87*
X110030100Y-149505100D03*
X110030100Y-148004900D03*
X104429900Y-148004900D03*
X104428380Y-149504300D03*
X104429900Y-149505100D03*
G04 #@! TD*
D11*
G04 #@! TO.C,C49*
X205905000Y-223815000D03*
X207455000Y-223815000D03*
G04 #@! TD*
D14*
G04 #@! TO.C,RGB69*
X80429900Y-243454900D03*
X80429900Y-244955100D03*
X86030100Y-244955100D03*
X86031620Y-243455700D03*
X86030100Y-243454900D03*
G04 #@! TD*
D18*
G04 #@! TO.C,C100*
X204663000Y-30749000D03*
X204663000Y-29199000D03*
G04 #@! TD*
D13*
G04 #@! TO.C,RGB63*
X155980100Y-225954900D03*
X154479900Y-225954900D03*
X154479900Y-231555100D03*
X155979300Y-231556620D03*
X155980100Y-231555100D03*
G04 #@! TD*
D26*
G04 #@! TO.C,J3*
X115650000Y-51550000D03*
X113650000Y-51550000D03*
X111650000Y-51550000D03*
X109650000Y-51550000D03*
X107650000Y-51550000D03*
X105650000Y-51550000D03*
X103650000Y-51550000D03*
X101650000Y-51550000D03*
D27*
X118000000Y-57300000D03*
X99300000Y-57300000D03*
G04 #@! TD*
D16*
G04 #@! TO.C,SW1*
X115007840Y-19857360D03*
X115007840Y-24057360D03*
G04 #@! TD*
D11*
G04 #@! TO.C,C15*
X142795000Y-50015000D03*
X144345000Y-50015000D03*
G04 #@! TD*
D12*
G04 #@! TO.C,C43*
X200425000Y-145685000D03*
X198875000Y-145685000D03*
G04 #@! TD*
D13*
G04 #@! TO.C,RGB16*
X139980100Y-33954900D03*
X138479900Y-33954900D03*
X138479900Y-39555100D03*
X139979300Y-39556620D03*
X139980100Y-39555100D03*
G04 #@! TD*
D14*
G04 #@! TO.C,RGB5*
X46030100Y-133505100D03*
X46030100Y-132004900D03*
X40429900Y-132004900D03*
X40428380Y-133504300D03*
X40429900Y-133505100D03*
G04 #@! TD*
D11*
G04 #@! TO.C,C4*
X80435000Y-97445000D03*
X81985000Y-97445000D03*
G04 #@! TD*
D12*
G04 #@! TO.C,C69*
X80445000Y-240645000D03*
X78895000Y-240645000D03*
G04 #@! TD*
D14*
G04 #@! TO.C,RGB7*
X78030100Y-133505100D03*
X78030100Y-132004900D03*
X72429900Y-132004900D03*
X72428380Y-133504300D03*
X72429900Y-133505100D03*
G04 #@! TD*
D30*
G04 #@! TO.C,D5*
X182794000Y-19905500D03*
X182794000Y-21480500D03*
G04 #@! TD*
D12*
G04 #@! TO.C,C79*
X88460000Y-161925000D03*
X86910000Y-161925000D03*
G04 #@! TD*
D14*
G04 #@! TO.C,RGB72*
X105329900Y-220354900D03*
X105329900Y-221855100D03*
X110930100Y-221855100D03*
X110931620Y-220355700D03*
X110930100Y-220354900D03*
G04 #@! TD*
D12*
G04 #@! TO.C,C48*
X225185000Y-240205000D03*
X223635000Y-240205000D03*
G04 #@! TD*
D34*
G04 #@! TO.C,IC2*
X137893381Y-173588381D03*
D35*
X136960000Y-172655000D03*
X136061975Y-171756974D03*
X135163949Y-170858948D03*
X134265924Y-169960923D03*
X133367898Y-169062897D03*
X132469872Y-168164872D03*
D34*
X131536491Y-167231491D03*
X135531645Y-163236337D03*
D35*
X136465026Y-164169718D03*
X137363051Y-165067744D03*
X138261077Y-165965770D03*
X139159102Y-166863795D03*
X140057128Y-167761821D03*
X140955154Y-168659846D03*
D34*
X141888535Y-169593227D03*
G04 #@! TD*
D11*
G04 #@! TO.C,C10*
X126035000Y-135585000D03*
X127585000Y-135585000D03*
G04 #@! TD*
D13*
G04 #@! TO.C,RGB29*
X170479900Y-71555100D03*
X171980100Y-71555100D03*
X171980100Y-65954900D03*
X170480700Y-65953380D03*
X170479900Y-65954900D03*
G04 #@! TD*
D11*
G04 #@! TO.C,C12*
X142335000Y-98005000D03*
X143885000Y-98005000D03*
G04 #@! TD*
D13*
G04 #@! TO.C,RGB21*
X154479900Y-103555100D03*
X155980100Y-103555100D03*
X155980100Y-97954900D03*
X154480700Y-97953380D03*
X154479900Y-97954900D03*
G04 #@! TD*
G04 #@! TO.C,RGB22*
X154479900Y-119555100D03*
X155980100Y-119555100D03*
X155980100Y-113954900D03*
X154480700Y-113953380D03*
X154479900Y-113954900D03*
G04 #@! TD*
D11*
G04 #@! TO.C,C68*
X142255000Y-241915000D03*
X143805000Y-241915000D03*
G04 #@! TD*
D14*
G04 #@! TO.C,RGB51*
X232429900Y-164004900D03*
X232429900Y-165505100D03*
X238030100Y-165505100D03*
X238031620Y-164005700D03*
X238030100Y-164004900D03*
G04 #@! TD*
D12*
G04 #@! TO.C,C39*
X264505000Y-145685000D03*
X262955000Y-145685000D03*
G04 #@! TD*
G04 #@! TO.C,C80*
X72435000Y-161925000D03*
X70885000Y-161925000D03*
G04 #@! TD*
G04 #@! TO.C,C24*
X168295000Y-55585000D03*
X166745000Y-55585000D03*
G04 #@! TD*
D11*
G04 #@! TO.C,C66*
X158395000Y-177985000D03*
X159945000Y-177985000D03*
G04 #@! TD*
D14*
G04 #@! TO.C,RGB47*
X249319900Y-220354900D03*
X249319900Y-221855100D03*
X254920100Y-221855100D03*
X254921620Y-220355700D03*
X254920100Y-220354900D03*
G04 #@! TD*
G04 #@! TO.C,RGB45*
X264429900Y-164004900D03*
X264429900Y-165505100D03*
X270030100Y-165505100D03*
X270031620Y-164005700D03*
X270030100Y-164004900D03*
G04 #@! TD*
D11*
G04 #@! TO.C,C34*
X206000000Y-135775000D03*
X207550000Y-135775000D03*
G04 #@! TD*
D14*
G04 #@! TO.C,RGB42*
X216429900Y-148004900D03*
X216429900Y-149505100D03*
X222030100Y-149505100D03*
X222031620Y-148005700D03*
X222030100Y-148004900D03*
G04 #@! TD*
D11*
G04 #@! TO.C,C75*
X142255000Y-193945000D03*
X143805000Y-193945000D03*
G04 #@! TD*
G04 #@! TO.C,C36*
X237850000Y-135775000D03*
X239400000Y-135775000D03*
G04 #@! TD*
D14*
G04 #@! TO.C,RGB78*
X104429900Y-164004900D03*
X104429900Y-165505100D03*
X110030100Y-165505100D03*
X110031620Y-164005700D03*
X110030100Y-164004900D03*
G04 #@! TD*
D11*
G04 #@! TO.C,C16*
X142335000Y-33965000D03*
X143885000Y-33965000D03*
G04 #@! TD*
D36*
G04 #@! TO.C,R10*
X199435000Y-32127000D03*
X199435000Y-30477000D03*
G04 #@! TD*
D11*
G04 #@! TO.C,C2*
X86025000Y-55115000D03*
X87575000Y-55115000D03*
G04 #@! TD*
D14*
G04 #@! TO.C,RGB43*
X200429900Y-148004900D03*
X200429900Y-149505100D03*
X206030100Y-149505100D03*
X206031620Y-148005700D03*
X206030100Y-148004900D03*
G04 #@! TD*
D12*
G04 #@! TO.C,C41*
X232375000Y-145685000D03*
X230825000Y-145685000D03*
G04 #@! TD*
D11*
G04 #@! TO.C,C61*
X158395000Y-257995000D03*
X159945000Y-257995000D03*
G04 #@! TD*
D14*
G04 #@! TO.C,RGB6*
X62030100Y-133505100D03*
X62030100Y-132004900D03*
X56429900Y-132004900D03*
X56428380Y-133504300D03*
X56429900Y-133505100D03*
G04 #@! TD*
D36*
G04 #@! TO.C,R9*
X200975000Y-32123000D03*
X200975000Y-30473000D03*
G04 #@! TD*
D12*
G04 #@! TO.C,C60*
X168195000Y-263545000D03*
X166645000Y-263545000D03*
G04 #@! TD*
D11*
G04 #@! TO.C,C72*
X105355000Y-217715000D03*
X106905000Y-217715000D03*
G04 #@! TD*
D12*
G04 #@! TO.C,C42*
X216450000Y-145685000D03*
X214900000Y-145685000D03*
G04 #@! TD*
G04 #@! TO.C,C51*
X232410000Y-162095000D03*
X230860000Y-162095000D03*
G04 #@! TD*
D13*
G04 #@! TO.C,RGB58*
X170479900Y-231555100D03*
X171980100Y-231555100D03*
X171980100Y-225954900D03*
X170480700Y-225953380D03*
X170479900Y-225954900D03*
G04 #@! TD*
D12*
G04 #@! TO.C,C31*
X168295000Y-103605000D03*
X166745000Y-103605000D03*
G04 #@! TD*
D13*
G04 #@! TO.C,RGB14*
X139980100Y-65954900D03*
X138479900Y-65954900D03*
X138479900Y-71555100D03*
X139979300Y-71556620D03*
X139980100Y-71555100D03*
G04 #@! TD*
G04 #@! TO.C,RGB65*
X155980100Y-193954900D03*
X154479900Y-193954900D03*
X154479900Y-199555100D03*
X155979300Y-199556620D03*
X155980100Y-199555100D03*
G04 #@! TD*
D14*
G04 #@! TO.C,RGB4*
X80429900Y-99454900D03*
X80429900Y-100955100D03*
X86030100Y-100955100D03*
X86031620Y-99455700D03*
X86030100Y-99454900D03*
G04 #@! TD*
D11*
G04 #@! TO.C,C14*
X142775000Y-66035000D03*
X144325000Y-66035000D03*
G04 #@! TD*
G04 #@! TO.C,C25*
X229965000Y-55025000D03*
X231515000Y-55025000D03*
G04 #@! TD*
D37*
G04 #@! TO.C,SW3*
X179940900Y-21439000D03*
X176590900Y-21439000D03*
D38*
X180566000Y-19889000D03*
X175966000Y-19889000D03*
G04 #@! TD*
D11*
G04 #@! TO.C,C6*
X62051000Y-135585000D03*
X63601000Y-135585000D03*
G04 #@! TD*
D12*
G04 #@! TO.C,C84*
X61875000Y-152525000D03*
X60325000Y-152525000D03*
G04 #@! TD*
G04 #@! TO.C,C58*
X168195000Y-231555000D03*
X166645000Y-231555000D03*
G04 #@! TD*
D13*
G04 #@! TO.C,RGB19*
X154479900Y-71555100D03*
X155980100Y-71555100D03*
X155980100Y-65954900D03*
X154480700Y-65953380D03*
X154479900Y-65954900D03*
G04 #@! TD*
D11*
G04 #@! TO.C,C62*
X158395000Y-241985000D03*
X159945000Y-241985000D03*
G04 #@! TD*
D13*
G04 #@! TO.C,RGB75*
X139980100Y-193954900D03*
X138479900Y-193954900D03*
X138479900Y-199555100D03*
X139979300Y-199556620D03*
X139980100Y-199555100D03*
G04 #@! TD*
D15*
G04 #@! TO.C,R3*
X120437840Y-25662360D03*
X120437840Y-27312360D03*
G04 #@! TD*
D11*
G04 #@! TO.C,C99*
X193213000Y-40150000D03*
X194763000Y-40150000D03*
G04 #@! TD*
D13*
G04 #@! TO.C,RGB59*
X170479900Y-247555100D03*
X171980100Y-247555100D03*
X171980100Y-241954900D03*
X170480700Y-241953380D03*
X170479900Y-241954900D03*
G04 #@! TD*
D12*
G04 #@! TO.C,C102*
X199509000Y-40456000D03*
X197959000Y-40456000D03*
G04 #@! TD*
G04 #@! TO.C,C103*
X199511000Y-41970000D03*
X197961000Y-41970000D03*
G04 #@! TD*
D14*
G04 #@! TO.C,RGB50*
X230020100Y-197255100D03*
X230020100Y-195754900D03*
X224419900Y-195754900D03*
X224418380Y-197254300D03*
X224419900Y-197255100D03*
G04 #@! TD*
G04 #@! TO.C,RGB46*
X248429900Y-164004900D03*
X248429900Y-165505100D03*
X254030100Y-165505100D03*
X254031620Y-164005700D03*
X254030100Y-164004900D03*
G04 #@! TD*
D11*
G04 #@! TO.C,C35*
X222000000Y-135775000D03*
X223550000Y-135775000D03*
G04 #@! TD*
D14*
G04 #@! TO.C,RGB3*
X105329900Y-76354900D03*
X105329900Y-77855100D03*
X110930100Y-77855100D03*
X110931620Y-76355700D03*
X110930100Y-76354900D03*
G04 #@! TD*
D11*
G04 #@! TO.C,C5*
X46055000Y-135585000D03*
X47605000Y-135585000D03*
G04 #@! TD*
D13*
G04 #@! TO.C,RGB11*
X139980100Y-113954900D03*
X138479900Y-113954900D03*
X138479900Y-119555100D03*
X139979300Y-119556620D03*
X139980100Y-119555100D03*
G04 #@! TD*
D14*
G04 #@! TO.C,RGB84*
X62030100Y-149505100D03*
X62030100Y-148004900D03*
X56429900Y-148004900D03*
X56428380Y-149504300D03*
X56429900Y-149505100D03*
G04 #@! TD*
D12*
G04 #@! TO.C,C54*
X184515000Y-162095000D03*
X182965000Y-162095000D03*
G04 #@! TD*
G04 #@! TO.C,C47*
X249385000Y-217445000D03*
X247835000Y-217445000D03*
G04 #@! TD*
D11*
G04 #@! TO.C,C65*
X158395000Y-193955000D03*
X159945000Y-193955000D03*
G04 #@! TD*
D14*
G04 #@! TO.C,RGB44*
X184429900Y-148004900D03*
X184429900Y-149505100D03*
X190030100Y-149505100D03*
X190031620Y-148005700D03*
X190030100Y-148004900D03*
G04 #@! TD*
D28*
G04 #@! TO.C,C89*
X128058020Y-29873140D03*
X128058020Y-31423140D03*
G04 #@! TD*
D14*
G04 #@! TO.C,RGB35*
X222030100Y-133505100D03*
X222030100Y-132004900D03*
X216429900Y-132004900D03*
X216428380Y-133504300D03*
X216429900Y-133505100D03*
G04 #@! TD*
D12*
G04 #@! TO.C,C20*
X152265000Y-87585000D03*
X150715000Y-87585000D03*
G04 #@! TD*
D14*
G04 #@! TO.C,RGB85*
X78030100Y-149505100D03*
X78030100Y-148004900D03*
X72429900Y-148004900D03*
X72428380Y-149504300D03*
X72429900Y-149505100D03*
G04 #@! TD*
D13*
G04 #@! TO.C,RGB68*
X139980100Y-241954900D03*
X138479900Y-241954900D03*
X138479900Y-247555100D03*
X139979300Y-247556620D03*
X139980100Y-247555100D03*
G04 #@! TD*
G04 #@! TO.C,RGB64*
X155980100Y-209954900D03*
X154479900Y-209954900D03*
X154479900Y-215555100D03*
X155979300Y-215556620D03*
X155980100Y-215555100D03*
G04 #@! TD*
G04 #@! TO.C,RGB12*
X139980100Y-97954900D03*
X138479900Y-97954900D03*
X138479900Y-103555100D03*
X139979300Y-103556620D03*
X139980100Y-103555100D03*
G04 #@! TD*
D39*
G04 #@! TO.C,C97*
X144038008Y-170906992D03*
X142941992Y-172003008D03*
G04 #@! TD*
D13*
G04 #@! TO.C,RGB20*
X154479900Y-87555100D03*
X155980100Y-87555100D03*
X155980100Y-81954900D03*
X154480700Y-81953380D03*
X154479900Y-81954900D03*
G04 #@! TD*
D11*
G04 #@! TO.C,C67*
X142255000Y-257865000D03*
X143805000Y-257865000D03*
G04 #@! TD*
D12*
G04 #@! TO.C,C56*
X168195000Y-199525000D03*
X166645000Y-199525000D03*
G04 #@! TD*
D36*
G04 #@! TO.C,R11*
X206279000Y-30779000D03*
X206279000Y-29129000D03*
G04 #@! TD*
D18*
G04 #@! TO.C,C95*
X117337840Y-22532360D03*
X117337840Y-20982360D03*
G04 #@! TD*
D13*
G04 #@! TO.C,RGB18*
X154479900Y-55555100D03*
X155980100Y-55555100D03*
X155980100Y-49954900D03*
X154480700Y-49953380D03*
X154479900Y-49954900D03*
G04 #@! TD*
D40*
G04 #@! TO.C,U3*
X105388020Y-35768140D03*
X105388020Y-34368140D03*
X105388020Y-32968140D03*
X103988020Y-35768140D03*
X103988020Y-34368140D03*
X103988020Y-32968140D03*
X102588020Y-35768140D03*
X102588020Y-34368140D03*
X102588020Y-32968140D03*
D41*
X111238020Y-26648140D03*
X111238020Y-27918140D03*
X111238020Y-29188140D03*
X111238020Y-30458140D03*
X111238020Y-31728140D03*
X111238020Y-32998140D03*
X111238020Y-34268140D03*
X111238020Y-35538140D03*
X111238020Y-36808140D03*
X111238020Y-38078140D03*
X111238020Y-39348140D03*
X111238020Y-40618140D03*
X111238020Y-41888140D03*
X111238020Y-43158140D03*
D42*
X109473020Y-44408140D03*
X108203020Y-44408140D03*
X106933020Y-44408140D03*
X105663020Y-44408140D03*
X104393020Y-44408140D03*
X103123020Y-44408140D03*
X101853020Y-44408140D03*
X100583020Y-44408140D03*
X99313020Y-44408140D03*
X98043020Y-44408140D03*
X96773020Y-44408140D03*
X95503020Y-44408140D03*
D41*
X93738020Y-43158140D03*
X93738020Y-41888140D03*
X93738020Y-40618140D03*
X93738020Y-39348140D03*
X93738020Y-38078140D03*
X93738020Y-36808140D03*
X93738020Y-35538140D03*
X93738020Y-34268140D03*
X93738020Y-32998140D03*
X93738020Y-31728140D03*
X93738020Y-30458140D03*
X93738020Y-29188140D03*
X93738020Y-27918140D03*
X93738020Y-26648140D03*
G04 #@! TD*
D12*
G04 #@! TO.C,C77*
X120475000Y-161925000D03*
X118925000Y-161925000D03*
G04 #@! TD*
D18*
G04 #@! TO.C,C98*
X196281000Y-41757000D03*
X196281000Y-40207000D03*
G04 #@! TD*
D12*
G04 #@! TO.C,C86*
X93835000Y-152525000D03*
X92285000Y-152525000D03*
G04 #@! TD*
D14*
G04 #@! TO.C,RGB81*
X56429900Y-164004900D03*
X56429900Y-165505100D03*
X62030100Y-165505100D03*
X62031620Y-164005700D03*
X62030100Y-164004900D03*
G04 #@! TD*
G04 #@! TO.C,RGB38*
X270030100Y-133505100D03*
X270030100Y-132004900D03*
X264429900Y-132004900D03*
X264428380Y-133504300D03*
X264429900Y-133505100D03*
G04 #@! TD*
D15*
G04 #@! TO.C,R7*
X122057840Y-25612360D03*
X122057840Y-27262360D03*
G04 #@! TD*
D14*
G04 #@! TO.C,RGB80*
X72429900Y-164004900D03*
X72429900Y-165505100D03*
X78030100Y-165505100D03*
X78031620Y-164005700D03*
X78030100Y-164004900D03*
G04 #@! TD*
D18*
G04 #@! TO.C,C101*
X207862000Y-30713000D03*
X207862000Y-29163000D03*
G04 #@! TD*
D14*
G04 #@! TO.C,RGB40*
X248429900Y-148004900D03*
X248429900Y-149505100D03*
X254030100Y-149505100D03*
X254031620Y-148005700D03*
X254030100Y-148004900D03*
G04 #@! TD*
D12*
G04 #@! TO.C,C23*
X168295000Y-39545000D03*
X166745000Y-39545000D03*
G04 #@! TD*
D11*
G04 #@! TO.C,C3*
X105345000Y-73825000D03*
X106895000Y-73825000D03*
G04 #@! TD*
G04 #@! TO.C,C70*
X61775000Y-224145000D03*
X63325000Y-224145000D03*
G04 #@! TD*
D14*
G04 #@! TO.C,RGB25*
X230020100Y-53255100D03*
X230020100Y-51754900D03*
X224419900Y-51754900D03*
X224418380Y-53254300D03*
X224419900Y-53255100D03*
G04 #@! TD*
D12*
G04 #@! TO.C,C57*
X168195000Y-215565000D03*
X166645000Y-215565000D03*
G04 #@! TD*
G04 #@! TO.C,C78*
X104435000Y-161925000D03*
X102885000Y-161925000D03*
G04 #@! TD*
D43*
G04 #@! TO.C,U6*
X124558020Y-30063140D03*
X125508020Y-30063140D03*
X126458020Y-30063140D03*
X126458020Y-32338140D03*
X124558020Y-32338140D03*
G04 #@! TD*
D14*
G04 #@! TO.C,RGB53*
X200429900Y-164004900D03*
X200429900Y-165505100D03*
X206030100Y-165505100D03*
X206031620Y-164005700D03*
X206030100Y-164004900D03*
G04 #@! TD*
G04 #@! TO.C,RGB49*
X205770100Y-221855100D03*
X205770100Y-220354900D03*
X200169900Y-220354900D03*
X200168380Y-221854300D03*
X200169900Y-221855100D03*
G04 #@! TD*
D12*
G04 #@! TO.C,C45*
X264425000Y-162095000D03*
X262875000Y-162095000D03*
G04 #@! TD*
G04 #@! TO.C,C26*
X249345000Y-74105000D03*
X247795000Y-74105000D03*
G04 #@! TD*
G04 #@! TO.C,C82*
X40480000Y-161925000D03*
X38930000Y-161925000D03*
G04 #@! TD*
D14*
G04 #@! TO.C,RGB88*
X126030100Y-149505100D03*
X126030100Y-148004900D03*
X120429900Y-148004900D03*
X120428380Y-149504300D03*
X120429900Y-149505100D03*
G04 #@! TD*
D15*
G04 #@! TO.C,R1*
X147380000Y-26470000D03*
X147380000Y-28120000D03*
G04 #@! TD*
D12*
G04 #@! TO.C,C81*
X56445000Y-161925000D03*
X54895000Y-161925000D03*
G04 #@! TD*
G04 #@! TO.C,C88*
X126015000Y-152445000D03*
X124465000Y-152445000D03*
G04 #@! TD*
D14*
G04 #@! TO.C,RGB34*
X206030100Y-133505100D03*
X206030100Y-132004900D03*
X200429900Y-132004900D03*
X200428380Y-133504300D03*
X200429900Y-133505100D03*
G04 #@! TD*
G04 #@! TO.C,RGB52*
X216429900Y-164004900D03*
X216429900Y-165505100D03*
X222030100Y-165505100D03*
X222031620Y-164005700D03*
X222030100Y-164004900D03*
G04 #@! TD*
D33*
G04 #@! TO.C,D2*
X167385000Y-22115500D03*
X167385000Y-20540500D03*
G04 #@! TD*
D13*
G04 #@! TO.C,RGB73*
X139980100Y-225954900D03*
X138479900Y-225954900D03*
X138479900Y-231555100D03*
X139979300Y-231556620D03*
X139980100Y-231555100D03*
G04 #@! TD*
D12*
G04 #@! TO.C,C85*
X77905000Y-152525000D03*
X76355000Y-152525000D03*
G04 #@! TD*
D13*
G04 #@! TO.C,RGB76*
X139980100Y-177954900D03*
X138479900Y-177954900D03*
X138479900Y-183555100D03*
X139979300Y-183556620D03*
X139980100Y-183555100D03*
G04 #@! TD*
D11*
G04 #@! TO.C,C37*
X253945000Y-135775000D03*
X255495000Y-135775000D03*
G04 #@! TD*
D13*
G04 #@! TO.C,RGB61*
X155980100Y-257954900D03*
X154479900Y-257954900D03*
X154479900Y-263555100D03*
X155979300Y-263556620D03*
X155980100Y-263555100D03*
G04 #@! TD*
G04 #@! TO.C,RGB60*
X170479900Y-263555100D03*
X171980100Y-263555100D03*
X171980100Y-257954900D03*
X170480700Y-257953380D03*
X170479900Y-257954900D03*
G04 #@! TD*
D14*
G04 #@! TO.C,RGB79*
X88429900Y-164004900D03*
X88429900Y-165505100D03*
X94030100Y-165505100D03*
X94031620Y-164005700D03*
X94030100Y-164004900D03*
G04 #@! TD*
G04 #@! TO.C,RGB36*
X238030100Y-133505100D03*
X238030100Y-132004900D03*
X232429900Y-132004900D03*
X232428380Y-133504300D03*
X232429900Y-133505100D03*
G04 #@! TD*
D13*
G04 #@! TO.C,RGB66*
X155980100Y-177954900D03*
X154479900Y-177954900D03*
X154479900Y-183555100D03*
X155979300Y-183556620D03*
X155980100Y-183555100D03*
G04 #@! TD*
M02*
