%TF.GenerationSoftware,KiCad,Pcbnew,8.0.1*%
%TF.CreationDate,2024-08-27T15:58:47+05:30*%
%TF.ProjectId,Ludo,4c75646f-2e6b-4696-9361-645f70636258,rev?*%
%TF.SameCoordinates,Original*%
%TF.FileFunction,Drillmap*%
%TF.FilePolarity,Positive*%
%FSLAX45Y45*%
G04 Gerber Fmt 4.5, Leading zero omitted, Abs format (unit mm)*
G04 Created by KiCad (PCBNEW 8.0.1) date 2024-08-27 15:58:47*
%MOMM*%
%LPD*%
G01*
G04 APERTURE LIST*
%ADD10C,0.050000*%
%ADD11C,0.200000*%
%ADD12C,0.100000*%
G04 APERTURE END LIST*
D10*
X26523000Y-1875500D02*
G75*
G02*
X28523000Y-3875500I0J-2000000D01*
G01*
X4523000Y-27875500D02*
X26523000Y-27875500D01*
X28523000Y-25875500D02*
G75*
G02*
X26523000Y-27875500I-2000000J0D01*
G01*
D11*
X17523000Y-14875500D02*
G75*
G02*
X13523000Y-14875500I-2000000J0D01*
G01*
X13523000Y-14875500D02*
G75*
G02*
X17523000Y-14875500I2000000J0D01*
G01*
D10*
X2523000Y-3875500D02*
X2523000Y-25875500D01*
X2523000Y-3875500D02*
G75*
G02*
X4523000Y-1875500I2000000J0D01*
G01*
X4523000Y-27875500D02*
G75*
G02*
X2523000Y-25875500I0J2000000D01*
G01*
X28523000Y-25875500D02*
X28523000Y-3875500D01*
X26523000Y-1875500D02*
X4523000Y-1875500D01*
X16963080Y-8615348D02*
X16963080Y-8335348D01*
X17008192Y-8295430D02*
X17237300Y-8295414D01*
X17237046Y-8656094D02*
X17008192Y-8655534D01*
X17282766Y-8340880D02*
X17282766Y-8610374D01*
X16963080Y-8335348D02*
G75*
G02*
X17008192Y-8295430I45112J-5532D01*
G01*
X17008192Y-8655534D02*
G75*
G02*
X16963081Y-8615348I-4J45409D01*
G01*
X17237300Y-8295414D02*
G75*
G02*
X17282766Y-8340880I0J-45466D01*
G01*
X17282766Y-8610374D02*
G75*
G02*
X17237046Y-8656094I-45720J0D01*
G01*
X18542406Y-16589546D02*
X18542966Y-16360692D01*
X18583152Y-16315580D02*
X18863152Y-16315580D01*
X18857620Y-16635266D02*
X18588126Y-16635266D01*
X18903070Y-16360692D02*
X18903086Y-16589800D01*
X18542966Y-16360692D02*
G75*
G02*
X18583152Y-16315580I45409J4D01*
G01*
X18588126Y-16635266D02*
G75*
G02*
X18542406Y-16589546I0J45720D01*
G01*
X18863152Y-16315580D02*
G75*
G02*
X18903070Y-16360692I-5532J-45112D01*
G01*
X18903086Y-16589800D02*
G75*
G02*
X18857620Y-16635266I-45466J0D01*
G01*
X8942930Y-13390308D02*
X8942914Y-13161200D01*
X8988380Y-13115734D02*
X9257874Y-13115734D01*
X9262848Y-13435420D02*
X8982848Y-13435420D01*
X9303594Y-13161454D02*
X9303034Y-13390308D01*
X8942914Y-13161200D02*
G75*
G02*
X8988380Y-13115734I45466J0D01*
G01*
X8982848Y-13435420D02*
G75*
G02*
X8942930Y-13390308I5532J45112D01*
G01*
X9257874Y-13115734D02*
G75*
G02*
X9303594Y-13161454I0J-45720D01*
G01*
X9303034Y-13390308D02*
G75*
G02*
X9262848Y-13435419I-45409J-4D01*
G01*
X13763234Y-8610120D02*
X13763234Y-8340626D01*
X13808954Y-8294906D02*
X14037808Y-8295466D01*
X14037808Y-8655570D02*
X13808700Y-8655586D01*
X14082920Y-8335652D02*
X14082920Y-8615652D01*
X13763234Y-8340626D02*
G75*
G02*
X13808954Y-8294906I45720J0D01*
G01*
X13808700Y-8655586D02*
G75*
G02*
X13763234Y-8610120I0J45466D01*
G01*
X14037808Y-8295466D02*
G75*
G02*
X14082919Y-8335652I4J-45409D01*
G01*
X14082920Y-8615652D02*
G75*
G02*
X14037808Y-8655570I-45112J5532D01*
G01*
X16963080Y-19815348D02*
X16963080Y-19535348D01*
X17008192Y-19495430D02*
X17237300Y-19495414D01*
X17237046Y-19856094D02*
X17008192Y-19855534D01*
X17282766Y-19540880D02*
X17282766Y-19810374D01*
X16963080Y-19535348D02*
G75*
G02*
X17008192Y-19495430I45112J-5532D01*
G01*
X17008192Y-19855534D02*
G75*
G02*
X16963081Y-19815348I-4J45409D01*
G01*
X17237300Y-19495414D02*
G75*
G02*
X17282766Y-19540880I0J-45466D01*
G01*
X17282766Y-19810374D02*
G75*
G02*
X17237046Y-19856094I-45720J0D01*
G01*
X15363234Y-24610120D02*
X15363234Y-24340626D01*
X15408954Y-24294906D02*
X15637808Y-24295466D01*
X15637808Y-24655570D02*
X15408700Y-24655586D01*
X15682920Y-24335652D02*
X15682920Y-24615652D01*
X15363234Y-24340626D02*
G75*
G02*
X15408954Y-24294906I45720J0D01*
G01*
X15408700Y-24655586D02*
G75*
G02*
X15363234Y-24610120I0J45466D01*
G01*
X15637808Y-24295466D02*
G75*
G02*
X15682919Y-24335652I4J-45409D01*
G01*
X15682920Y-24615652D02*
G75*
G02*
X15637808Y-24655570I-45112J5532D01*
G01*
X13763234Y-26210120D02*
X13763234Y-25940626D01*
X13808954Y-25894906D02*
X14037808Y-25895466D01*
X14037808Y-26255570D02*
X13808700Y-26255586D01*
X14082920Y-25935652D02*
X14082920Y-26215652D01*
X13763234Y-25940626D02*
G75*
G02*
X13808954Y-25894906I45720J0D01*
G01*
X13808700Y-26255586D02*
G75*
G02*
X13763234Y-26210120I0J45466D01*
G01*
X14037808Y-25895466D02*
G75*
G02*
X14082919Y-25935652I4J-45409D01*
G01*
X14082920Y-26215652D02*
G75*
G02*
X14037808Y-26255570I-45112J5532D01*
G01*
X8142930Y-19765308D02*
X8142914Y-19536200D01*
X8188380Y-19490734D02*
X8457874Y-19490734D01*
X8462848Y-19810420D02*
X8182848Y-19810420D01*
X8503594Y-19536454D02*
X8503034Y-19765308D01*
X8142914Y-19536200D02*
G75*
G02*
X8188380Y-19490734I45466J0D01*
G01*
X8182848Y-19810420D02*
G75*
G02*
X8142930Y-19765308I5532J45112D01*
G01*
X8457874Y-19490734D02*
G75*
G02*
X8503594Y-19536454I0J-45720D01*
G01*
X8503034Y-19765308D02*
G75*
G02*
X8462848Y-19810420I-45409J-4D01*
G01*
X16963080Y-11815348D02*
X16963080Y-11535348D01*
X17008192Y-11495430D02*
X17237300Y-11495414D01*
X17237046Y-11856094D02*
X17008192Y-11855534D01*
X17282766Y-11540880D02*
X17282766Y-11810374D01*
X16963080Y-11535348D02*
G75*
G02*
X17008192Y-11495430I45112J-5532D01*
G01*
X17008192Y-11855534D02*
G75*
G02*
X16963081Y-11815348I-4J45409D01*
G01*
X17237300Y-11495414D02*
G75*
G02*
X17282766Y-11540880I0J-45466D01*
G01*
X17282766Y-11810374D02*
G75*
G02*
X17237046Y-11856094I-45720J0D01*
G01*
X16963080Y-18215348D02*
X16963080Y-17935348D01*
X17008192Y-17895430D02*
X17237300Y-17895414D01*
X17237046Y-18256094D02*
X17008192Y-18255534D01*
X17282766Y-17940880D02*
X17282766Y-18210374D01*
X16963080Y-17935348D02*
G75*
G02*
X17008192Y-17895430I45112J-5532D01*
G01*
X17008192Y-18255534D02*
G75*
G02*
X16963081Y-18215348I-4J45409D01*
G01*
X17237300Y-17895414D02*
G75*
G02*
X17282766Y-17940880I0J-45466D01*
G01*
X17282766Y-18210374D02*
G75*
G02*
X17237046Y-18256094I-45720J0D01*
G01*
X16963080Y-21415348D02*
X16963080Y-21135348D01*
X17008192Y-21095430D02*
X17237300Y-21095414D01*
X17237046Y-21456094D02*
X17008192Y-21455534D01*
X17282766Y-21140880D02*
X17282766Y-21410374D01*
X16963080Y-21135348D02*
G75*
G02*
X17008192Y-21095430I45112J-5532D01*
G01*
X17008192Y-21455534D02*
G75*
G02*
X16963081Y-21415348I-4J45409D01*
G01*
X17237300Y-21095414D02*
G75*
G02*
X17282766Y-21140880I0J-45466D01*
G01*
X17282766Y-21410374D02*
G75*
G02*
X17237046Y-21456094I-45720J0D01*
G01*
X15363080Y-3815348D02*
X15363080Y-3535348D01*
X15408192Y-3495430D02*
X15637300Y-3495414D01*
X15637046Y-3856094D02*
X15408192Y-3855534D01*
X15682766Y-3540880D02*
X15682766Y-3810374D01*
X15363080Y-3535348D02*
G75*
G02*
X15408192Y-3495430I45112J-5532D01*
G01*
X15408192Y-3855534D02*
G75*
G02*
X15363080Y-3815348I-4J45409D01*
G01*
X15637300Y-3495414D02*
G75*
G02*
X15682766Y-3540880I0J-45466D01*
G01*
X15682766Y-3810374D02*
G75*
G02*
X15637046Y-3856094I-45720J0D01*
G01*
X26542406Y-14989546D02*
X26542966Y-14760692D01*
X26583152Y-14715580D02*
X26863152Y-14715580D01*
X26857620Y-15035266D02*
X26588126Y-15035266D01*
X26903070Y-14760692D02*
X26903086Y-14989800D01*
X26542966Y-14760692D02*
G75*
G02*
X26583152Y-14715580I45409J4D01*
G01*
X26588126Y-15035266D02*
G75*
G02*
X26542406Y-14989546I0J45720D01*
G01*
X26863152Y-14715580D02*
G75*
G02*
X26903070Y-14760692I-5532J-45112D01*
G01*
X26903086Y-14989800D02*
G75*
G02*
X26857620Y-15035266I-45466J0D01*
G01*
X4142406Y-16589546D02*
X4142966Y-16360692D01*
X4183152Y-16315580D02*
X4463152Y-16315580D01*
X4457620Y-16635266D02*
X4188126Y-16635266D01*
X4503070Y-16360692D02*
X4503086Y-16589800D01*
X4142966Y-16360692D02*
G75*
G02*
X4183152Y-16315580I45409J4D01*
G01*
X4188126Y-16635266D02*
G75*
G02*
X4142406Y-16589546I0J45720D01*
G01*
X4463152Y-16315580D02*
G75*
G02*
X4503070Y-16360692I-5532J-45112D01*
G01*
X4503086Y-16589800D02*
G75*
G02*
X4457620Y-16635266I-45466J0D01*
G01*
X12142930Y-13390308D02*
X12142914Y-13161200D01*
X12188380Y-13115734D02*
X12457874Y-13115734D01*
X12462848Y-13435420D02*
X12182848Y-13435420D01*
X12503594Y-13161454D02*
X12503034Y-13390308D01*
X12142914Y-13161200D02*
G75*
G02*
X12188380Y-13115734I45466J0D01*
G01*
X12182848Y-13435420D02*
G75*
G02*
X12142930Y-13390308I5532J45112D01*
G01*
X12457874Y-13115734D02*
G75*
G02*
X12503594Y-13161454I0J-45720D01*
G01*
X12503034Y-13390308D02*
G75*
G02*
X12462848Y-13435419I-45409J-4D01*
G01*
X5717930Y-22225308D02*
X5717914Y-21996200D01*
X5763380Y-21950734D02*
X6032874Y-21950734D01*
X6037848Y-22270420D02*
X5757848Y-22270420D01*
X6078594Y-21996454D02*
X6078034Y-22225308D01*
X5717914Y-21996200D02*
G75*
G02*
X5763380Y-21950734I45466J0D01*
G01*
X5757848Y-22270420D02*
G75*
G02*
X5717930Y-22225308I5532J45112D01*
G01*
X6032874Y-21950734D02*
G75*
G02*
X6078594Y-21996454I0J-45720D01*
G01*
X6078034Y-22225308D02*
G75*
G02*
X6037848Y-22270420I-45409J-4D01*
G01*
X8142930Y-5365308D02*
X8142914Y-5136200D01*
X8188380Y-5090734D02*
X8457874Y-5090734D01*
X8462848Y-5410420D02*
X8182848Y-5410420D01*
X8503594Y-5136454D02*
X8503034Y-5365308D01*
X8142914Y-5136200D02*
G75*
G02*
X8188380Y-5090734I45466J0D01*
G01*
X8182848Y-5410420D02*
G75*
G02*
X8142930Y-5365308I5532J45112D01*
G01*
X8457874Y-5090734D02*
G75*
G02*
X8503594Y-5136454I0J-45720D01*
G01*
X8503034Y-5365308D02*
G75*
G02*
X8462848Y-5410420I-45409J-4D01*
G01*
X16963080Y-3815348D02*
X16963080Y-3535348D01*
X17008192Y-3495430D02*
X17237300Y-3495414D01*
X17237046Y-3856094D02*
X17008192Y-3855534D01*
X17282766Y-3540880D02*
X17282766Y-3810374D01*
X16963080Y-3535348D02*
G75*
G02*
X17008192Y-3495430I45112J-5532D01*
G01*
X17008192Y-3855534D02*
G75*
G02*
X16963081Y-3815348I-4J45409D01*
G01*
X17237300Y-3495414D02*
G75*
G02*
X17282766Y-3540880I0J-45466D01*
G01*
X17282766Y-3810374D02*
G75*
G02*
X17237046Y-3856094I-45720J0D01*
G01*
X8942930Y-14990308D02*
X8942914Y-14761200D01*
X8988380Y-14715734D02*
X9257874Y-14715734D01*
X9262848Y-15035420D02*
X8982848Y-15035420D01*
X9303594Y-14761454D02*
X9303034Y-14990308D01*
X8942914Y-14761200D02*
G75*
G02*
X8988380Y-14715734I45466J0D01*
G01*
X8982848Y-15035420D02*
G75*
G02*
X8942930Y-14990308I5532J45112D01*
G01*
X9257874Y-14715734D02*
G75*
G02*
X9303594Y-14761454I0J-45720D01*
G01*
X9303034Y-14990308D02*
G75*
G02*
X9262848Y-15035419I-45409J-4D01*
G01*
X22541406Y-10134546D02*
X22541966Y-9905692D01*
X22582152Y-9860580D02*
X22862152Y-9860580D01*
X22856620Y-10180266D02*
X22587126Y-10180266D01*
X22902070Y-9905692D02*
X22902086Y-10134800D01*
X22541966Y-9905692D02*
G75*
G02*
X22582152Y-9860581I45409J4D01*
G01*
X22587126Y-10180266D02*
G75*
G02*
X22541406Y-10134546I0J45720D01*
G01*
X22862152Y-9860580D02*
G75*
G02*
X22902070Y-9905692I-5532J-45112D01*
G01*
X22902086Y-10134800D02*
G75*
G02*
X22856620Y-10180266I-45466J0D01*
G01*
X13763234Y-21410120D02*
X13763234Y-21140626D01*
X13808954Y-21094906D02*
X14037808Y-21095466D01*
X14037808Y-21455570D02*
X13808700Y-21455586D01*
X14082920Y-21135652D02*
X14082920Y-21415652D01*
X13763234Y-21140626D02*
G75*
G02*
X13808954Y-21094906I45720J0D01*
G01*
X13808700Y-21455586D02*
G75*
G02*
X13763234Y-21410120I0J45466D01*
G01*
X14037808Y-21095466D02*
G75*
G02*
X14082919Y-21135652I4J-45409D01*
G01*
X14082920Y-21415652D02*
G75*
G02*
X14037808Y-21455570I-45112J5532D01*
G01*
X25031406Y-7824546D02*
X25031966Y-7595692D01*
X25072152Y-7550580D02*
X25352152Y-7550580D01*
X25346620Y-7870266D02*
X25077126Y-7870266D01*
X25392070Y-7595692D02*
X25392086Y-7824800D01*
X25031966Y-7595692D02*
G75*
G02*
X25072152Y-7550580I45409J4D01*
G01*
X25077126Y-7870266D02*
G75*
G02*
X25031406Y-7824546I0J45720D01*
G01*
X25352152Y-7550580D02*
G75*
G02*
X25392070Y-7595692I-5532J-45112D01*
G01*
X25392086Y-7824800D02*
G75*
G02*
X25346620Y-7870266I-45466J0D01*
G01*
X10542930Y-13390308D02*
X10542914Y-13161200D01*
X10588380Y-13115734D02*
X10857874Y-13115734D01*
X10862848Y-13435420D02*
X10582848Y-13435420D01*
X10903594Y-13161454D02*
X10903034Y-13390308D01*
X10542914Y-13161200D02*
G75*
G02*
X10588380Y-13115734I45466J0D01*
G01*
X10582848Y-13435420D02*
G75*
G02*
X10542930Y-13390308I5532J45112D01*
G01*
X10857874Y-13115734D02*
G75*
G02*
X10903594Y-13161454I0J-45720D01*
G01*
X10903034Y-13390308D02*
G75*
G02*
X10862848Y-13435419I-45409J-4D01*
G01*
X23342406Y-14989546D02*
X23342966Y-14760692D01*
X23383152Y-14715580D02*
X23663152Y-14715580D01*
X23657620Y-15035266D02*
X23388126Y-15035266D01*
X23703070Y-14760692D02*
X23703086Y-14989800D01*
X23342966Y-14760692D02*
G75*
G02*
X23383152Y-14715580I45409J4D01*
G01*
X23388126Y-15035266D02*
G75*
G02*
X23342406Y-14989546I0J45720D01*
G01*
X23663152Y-14715580D02*
G75*
G02*
X23703070Y-14760692I-5532J-45112D01*
G01*
X23703086Y-14989800D02*
G75*
G02*
X23657620Y-15035266I-45466J0D01*
G01*
X20116930Y-7825308D02*
X20116914Y-7596200D01*
X20162380Y-7550734D02*
X20431874Y-7550734D01*
X20436848Y-7870420D02*
X20156848Y-7870420D01*
X20477594Y-7596454D02*
X20477034Y-7825308D01*
X20116914Y-7596200D02*
G75*
G02*
X20162380Y-7550734I45466J0D01*
G01*
X20156848Y-7870420D02*
G75*
G02*
X20116930Y-7825308I5532J45112D01*
G01*
X20431874Y-7550734D02*
G75*
G02*
X20477594Y-7596454I0J-45720D01*
G01*
X20477034Y-7825308D02*
G75*
G02*
X20436848Y-7870419I-45409J-4D01*
G01*
X24942930Y-13390308D02*
X24942914Y-13161200D01*
X24988380Y-13115734D02*
X25257874Y-13115734D01*
X25262848Y-13435420D02*
X24982848Y-13435420D01*
X25303594Y-13161454D02*
X25303034Y-13390308D01*
X24942914Y-13161200D02*
G75*
G02*
X24988380Y-13115734I45466J0D01*
G01*
X24982848Y-13435420D02*
G75*
G02*
X24942930Y-13390308I5532J45112D01*
G01*
X25257874Y-13115734D02*
G75*
G02*
X25303594Y-13161454I0J-45720D01*
G01*
X25303034Y-13390308D02*
G75*
G02*
X25262848Y-13435419I-45409J-4D01*
G01*
X13763234Y-5410120D02*
X13763234Y-5140626D01*
X13808954Y-5094906D02*
X14037808Y-5095466D01*
X14037808Y-5455570D02*
X13808700Y-5455586D01*
X14082920Y-5135652D02*
X14082920Y-5415652D01*
X13763234Y-5140626D02*
G75*
G02*
X13808954Y-5094906I45720J0D01*
G01*
X13808700Y-5455586D02*
G75*
G02*
X13763234Y-5410120I0J45466D01*
G01*
X14037808Y-5095466D02*
G75*
G02*
X14082919Y-5135652I4J-45409D01*
G01*
X14082920Y-5415652D02*
G75*
G02*
X14037808Y-5455570I-45112J5532D01*
G01*
X16963080Y-5415348D02*
X16963080Y-5135348D01*
X17008192Y-5095430D02*
X17237300Y-5095414D01*
X17237046Y-5456094D02*
X17008192Y-5455534D01*
X17282766Y-5140880D02*
X17282766Y-5410374D01*
X16963080Y-5135348D02*
G75*
G02*
X17008192Y-5095430I45112J-5532D01*
G01*
X17008192Y-5455534D02*
G75*
G02*
X16963081Y-5415348I-4J45409D01*
G01*
X17237300Y-5095414D02*
G75*
G02*
X17282766Y-5140880I0J-45466D01*
G01*
X17282766Y-5410374D02*
G75*
G02*
X17237046Y-5456094I-45720J0D01*
G01*
X5717930Y-7825308D02*
X5717914Y-7596200D01*
X5763380Y-7550734D02*
X6032874Y-7550734D01*
X6037848Y-7870420D02*
X5757848Y-7870420D01*
X6078594Y-7596454D02*
X6078034Y-7825308D01*
X5717914Y-7596200D02*
G75*
G02*
X5763380Y-7550734I45466J0D01*
G01*
X5757848Y-7870420D02*
G75*
G02*
X5717930Y-7825308I5532J45112D01*
G01*
X6032874Y-7550734D02*
G75*
G02*
X6078594Y-7596454I0J-45720D01*
G01*
X6078034Y-7825308D02*
G75*
G02*
X6037848Y-7870419I-45409J-4D01*
G01*
X16963080Y-10215348D02*
X16963080Y-9935348D01*
X17008192Y-9895430D02*
X17237300Y-9895414D01*
X17237046Y-10256094D02*
X17008192Y-10255534D01*
X17282766Y-9940880D02*
X17282766Y-10210374D01*
X16963080Y-9935348D02*
G75*
G02*
X17008192Y-9895430I45112J-5532D01*
G01*
X17008192Y-10255534D02*
G75*
G02*
X16963081Y-10215348I-4J45409D01*
G01*
X17237300Y-9895414D02*
G75*
G02*
X17282766Y-9940880I0J-45466D01*
G01*
X17282766Y-10210374D02*
G75*
G02*
X17237046Y-10256094I-45720J0D01*
G01*
X12142406Y-16589546D02*
X12142966Y-16360692D01*
X12183152Y-16315580D02*
X12463152Y-16315580D01*
X12457620Y-16635266D02*
X12188126Y-16635266D01*
X12503070Y-16360692D02*
X12503086Y-16589800D01*
X12142966Y-16360692D02*
G75*
G02*
X12183152Y-16315580I45409J4D01*
G01*
X12188126Y-16635266D02*
G75*
G02*
X12142406Y-16589546I0J45720D01*
G01*
X12463152Y-16315580D02*
G75*
G02*
X12503070Y-16360692I-5532J-45112D01*
G01*
X12503086Y-16589800D02*
G75*
G02*
X12457620Y-16635266I-45466J0D01*
G01*
X18542930Y-13390308D02*
X18542914Y-13161200D01*
X18588380Y-13115734D02*
X18857874Y-13115734D01*
X18862848Y-13435420D02*
X18582848Y-13435420D01*
X18903594Y-13161454D02*
X18903034Y-13390308D01*
X18542914Y-13161200D02*
G75*
G02*
X18588380Y-13115734I45466J0D01*
G01*
X18582848Y-13435420D02*
G75*
G02*
X18542930Y-13390308I5532J45112D01*
G01*
X18857874Y-13115734D02*
G75*
G02*
X18903594Y-13161454I0J-45720D01*
G01*
X18903034Y-13390308D02*
G75*
G02*
X18862848Y-13435419I-45409J-4D01*
G01*
X4142930Y-14990308D02*
X4142914Y-14761200D01*
X4188380Y-14715734D02*
X4457874Y-14715734D01*
X4462848Y-15035420D02*
X4182848Y-15035420D01*
X4503594Y-14761454D02*
X4503034Y-14990308D01*
X4142914Y-14761200D02*
G75*
G02*
X4188380Y-14715734I45466J0D01*
G01*
X4182848Y-15035420D02*
G75*
G02*
X4142930Y-14990308I5532J45112D01*
G01*
X4457874Y-14715734D02*
G75*
G02*
X4503594Y-14761454I0J-45720D01*
G01*
X4503034Y-14990308D02*
G75*
G02*
X4462848Y-15035419I-45409J-4D01*
G01*
X22541406Y-24534546D02*
X22541966Y-24305692D01*
X22582152Y-24260580D02*
X22862152Y-24260580D01*
X22856620Y-24580266D02*
X22587126Y-24580266D01*
X22902070Y-24305692D02*
X22902086Y-24534800D01*
X22541966Y-24305692D02*
G75*
G02*
X22582152Y-24260580I45409J4D01*
G01*
X22587126Y-24580266D02*
G75*
G02*
X22541406Y-24534546I0J45720D01*
G01*
X22862152Y-24260580D02*
G75*
G02*
X22902070Y-24305692I-5532J-45112D01*
G01*
X22902086Y-24534800D02*
G75*
G02*
X22856620Y-24580266I-45466J0D01*
G01*
X10542930Y-14990308D02*
X10542914Y-14761200D01*
X10588380Y-14715734D02*
X10857874Y-14715734D01*
X10862848Y-15035420D02*
X10582848Y-15035420D01*
X10903594Y-14761454D02*
X10903034Y-14990308D01*
X10542914Y-14761200D02*
G75*
G02*
X10588380Y-14715734I45466J0D01*
G01*
X10582848Y-15035420D02*
G75*
G02*
X10542930Y-14990308I5532J45112D01*
G01*
X10857874Y-14715734D02*
G75*
G02*
X10903594Y-14761454I0J-45720D01*
G01*
X10903034Y-14990308D02*
G75*
G02*
X10862848Y-15035419I-45409J-4D01*
G01*
X8142406Y-24534546D02*
X8142966Y-24305692D01*
X8183152Y-24260580D02*
X8463152Y-24260580D01*
X8457620Y-24580266D02*
X8188126Y-24580266D01*
X8503070Y-24305692D02*
X8503086Y-24534800D01*
X8142966Y-24305692D02*
G75*
G02*
X8183152Y-24260580I45409J4D01*
G01*
X8188126Y-24580266D02*
G75*
G02*
X8142406Y-24534546I0J45720D01*
G01*
X8463152Y-24260580D02*
G75*
G02*
X8503070Y-24305692I-5532J-45112D01*
G01*
X8503086Y-24534800D02*
G75*
G02*
X8457620Y-24580266I-45466J0D01*
G01*
X15363234Y-23010120D02*
X15363234Y-22740626D01*
X15408954Y-22694906D02*
X15637808Y-22695466D01*
X15637808Y-23055570D02*
X15408700Y-23055586D01*
X15682920Y-22735652D02*
X15682920Y-23015652D01*
X15363234Y-22740626D02*
G75*
G02*
X15408954Y-22694906I45720J0D01*
G01*
X15408700Y-23055586D02*
G75*
G02*
X15363234Y-23010120I0J45466D01*
G01*
X15637808Y-22695466D02*
G75*
G02*
X15682919Y-22735652I4J-45409D01*
G01*
X15682920Y-23015652D02*
G75*
G02*
X15637808Y-23055570I-45112J5532D01*
G01*
X13763234Y-3810120D02*
X13763234Y-3540626D01*
X13808954Y-3494906D02*
X14037808Y-3495466D01*
X14037808Y-3855570D02*
X13808700Y-3855586D01*
X14082920Y-3535652D02*
X14082920Y-3815652D01*
X13763234Y-3540626D02*
G75*
G02*
X13808954Y-3494906I45720J0D01*
G01*
X13808700Y-3855586D02*
G75*
G02*
X13763234Y-3810120I0J45466D01*
G01*
X14037808Y-3495466D02*
G75*
G02*
X14082919Y-3535652I4J-45409D01*
G01*
X14082920Y-3815652D02*
G75*
G02*
X14037808Y-3855570I-45112J5532D01*
G01*
X4142930Y-13390308D02*
X4142914Y-13161200D01*
X4188380Y-13115734D02*
X4457874Y-13115734D01*
X4462848Y-13435420D02*
X4182848Y-13435420D01*
X4503594Y-13161454D02*
X4503034Y-13390308D01*
X4142914Y-13161200D02*
G75*
G02*
X4188380Y-13115734I45466J0D01*
G01*
X4182848Y-13435420D02*
G75*
G02*
X4142930Y-13390308I5532J45112D01*
G01*
X4457874Y-13115734D02*
G75*
G02*
X4503594Y-13161454I0J-45720D01*
G01*
X4503034Y-13390308D02*
G75*
G02*
X4462848Y-13435419I-45409J-4D01*
G01*
X7342930Y-13390308D02*
X7342914Y-13161200D01*
X7388380Y-13115734D02*
X7657874Y-13115734D01*
X7662848Y-13435420D02*
X7382848Y-13435420D01*
X7703594Y-13161454D02*
X7703034Y-13390308D01*
X7342914Y-13161200D02*
G75*
G02*
X7388380Y-13115734I45466J0D01*
G01*
X7382848Y-13435420D02*
G75*
G02*
X7342930Y-13390308I5532J45112D01*
G01*
X7657874Y-13115734D02*
G75*
G02*
X7703594Y-13161454I0J-45720D01*
G01*
X7703034Y-13390308D02*
G75*
G02*
X7662848Y-13435419I-45409J-4D01*
G01*
X10632406Y-22224546D02*
X10632966Y-21995692D01*
X10673152Y-21950580D02*
X10953152Y-21950580D01*
X10947620Y-22270266D02*
X10678126Y-22270266D01*
X10993070Y-21995692D02*
X10993086Y-22224800D01*
X10632966Y-21995692D02*
G75*
G02*
X10673152Y-21950581I45409J4D01*
G01*
X10678126Y-22270266D02*
G75*
G02*
X10632406Y-22224546I0J45720D01*
G01*
X10953152Y-21950580D02*
G75*
G02*
X10993070Y-21995692I-5532J-45112D01*
G01*
X10993086Y-22224800D02*
G75*
G02*
X10947620Y-22270266I-45466J0D01*
G01*
X16963080Y-7015348D02*
X16963080Y-6735348D01*
X17008192Y-6695430D02*
X17237300Y-6695414D01*
X17237046Y-7056094D02*
X17008192Y-7055534D01*
X17282766Y-6740880D02*
X17282766Y-7010374D01*
X16963080Y-6735348D02*
G75*
G02*
X17008192Y-6695430I45112J-5532D01*
G01*
X17008192Y-7055534D02*
G75*
G02*
X16963081Y-7015348I-4J45409D01*
G01*
X17237300Y-6695414D02*
G75*
G02*
X17282766Y-6740880I0J-45466D01*
G01*
X17282766Y-7010374D02*
G75*
G02*
X17237046Y-7056094I-45720J0D01*
G01*
X15363080Y-10215348D02*
X15363080Y-9935348D01*
X15408192Y-9895430D02*
X15637300Y-9895414D01*
X15637046Y-10256094D02*
X15408192Y-10255534D01*
X15682766Y-9940880D02*
X15682766Y-10210374D01*
X15363080Y-9935348D02*
G75*
G02*
X15408192Y-9895430I45112J-5532D01*
G01*
X15408192Y-10255534D02*
G75*
G02*
X15363080Y-10215348I-4J45409D01*
G01*
X15637300Y-9895414D02*
G75*
G02*
X15682766Y-9940880I0J-45466D01*
G01*
X15682766Y-10210374D02*
G75*
G02*
X15637046Y-10256094I-45720J0D01*
G01*
X15363080Y-11815348D02*
X15363080Y-11535348D01*
X15408192Y-11495430D02*
X15637300Y-11495414D01*
X15637046Y-11856094D02*
X15408192Y-11855534D01*
X15682766Y-11540880D02*
X15682766Y-11810374D01*
X15363080Y-11535348D02*
G75*
G02*
X15408192Y-11495430I45112J-5532D01*
G01*
X15408192Y-11855534D02*
G75*
G02*
X15363080Y-11815348I-4J45409D01*
G01*
X15637300Y-11495414D02*
G75*
G02*
X15682766Y-11540880I0J-45466D01*
G01*
X15682766Y-11810374D02*
G75*
G02*
X15637046Y-11856094I-45720J0D01*
G01*
X23342406Y-16589546D02*
X23342966Y-16360692D01*
X23383152Y-16315580D02*
X23663152Y-16315580D01*
X23657620Y-16635266D02*
X23388126Y-16635266D01*
X23703070Y-16360692D02*
X23703086Y-16589800D01*
X23342966Y-16360692D02*
G75*
G02*
X23383152Y-16315580I45409J4D01*
G01*
X23388126Y-16635266D02*
G75*
G02*
X23342406Y-16589546I0J45720D01*
G01*
X23663152Y-16315580D02*
G75*
G02*
X23703070Y-16360692I-5532J-45112D01*
G01*
X23703086Y-16589800D02*
G75*
G02*
X23657620Y-16635266I-45466J0D01*
G01*
X25031406Y-22224546D02*
X25031966Y-21995692D01*
X25072152Y-21950580D02*
X25352152Y-21950580D01*
X25346620Y-22270266D02*
X25077126Y-22270266D01*
X25392070Y-21995692D02*
X25392086Y-22224800D01*
X25031966Y-21995692D02*
G75*
G02*
X25072152Y-21950581I45409J4D01*
G01*
X25077126Y-22270266D02*
G75*
G02*
X25031406Y-22224546I0J45720D01*
G01*
X25352152Y-21950580D02*
G75*
G02*
X25392070Y-21995692I-5532J-45112D01*
G01*
X25392086Y-22224800D02*
G75*
G02*
X25346620Y-22270266I-45466J0D01*
G01*
X26542406Y-16589546D02*
X26542966Y-16360692D01*
X26583152Y-16315580D02*
X26863152Y-16315580D01*
X26857620Y-16635266D02*
X26588126Y-16635266D01*
X26903070Y-16360692D02*
X26903086Y-16589800D01*
X26542966Y-16360692D02*
G75*
G02*
X26583152Y-16315580I45409J4D01*
G01*
X26588126Y-16635266D02*
G75*
G02*
X26542406Y-16589546I0J45720D01*
G01*
X26863152Y-16315580D02*
G75*
G02*
X26903070Y-16360692I-5532J-45112D01*
G01*
X26903086Y-16589800D02*
G75*
G02*
X26857620Y-16635266I-45466J0D01*
G01*
X21742406Y-14989546D02*
X21742966Y-14760692D01*
X21783152Y-14715580D02*
X22063152Y-14715580D01*
X22057620Y-15035266D02*
X21788126Y-15035266D01*
X22103070Y-14760692D02*
X22103086Y-14989800D01*
X21742966Y-14760692D02*
G75*
G02*
X21783152Y-14715580I45409J4D01*
G01*
X21788126Y-15035266D02*
G75*
G02*
X21742406Y-14989546I0J45720D01*
G01*
X22063152Y-14715580D02*
G75*
G02*
X22103070Y-14760692I-5532J-45112D01*
G01*
X22103086Y-14989800D02*
G75*
G02*
X22057620Y-15035266I-45466J0D01*
G01*
X10542406Y-16589546D02*
X10542966Y-16360692D01*
X10583152Y-16315580D02*
X10863152Y-16315580D01*
X10857620Y-16635266D02*
X10588126Y-16635266D01*
X10903070Y-16360692D02*
X10903086Y-16589800D01*
X10542966Y-16360692D02*
G75*
G02*
X10583152Y-16315580I45409J4D01*
G01*
X10588126Y-16635266D02*
G75*
G02*
X10542406Y-16589546I0J45720D01*
G01*
X10863152Y-16315580D02*
G75*
G02*
X10903070Y-16360692I-5532J-45112D01*
G01*
X10903086Y-16589800D02*
G75*
G02*
X10857620Y-16635266I-45466J0D01*
G01*
X20142406Y-14989546D02*
X20142966Y-14760692D01*
X20183152Y-14715580D02*
X20463152Y-14715580D01*
X20457620Y-15035266D02*
X20188126Y-15035266D01*
X20503070Y-14760692D02*
X20503086Y-14989800D01*
X20142966Y-14760692D02*
G75*
G02*
X20183152Y-14715580I45409J4D01*
G01*
X20188126Y-15035266D02*
G75*
G02*
X20142406Y-14989546I0J45720D01*
G01*
X20463152Y-14715580D02*
G75*
G02*
X20503070Y-14760692I-5532J-45112D01*
G01*
X20503086Y-14989800D02*
G75*
G02*
X20457620Y-15035266I-45466J0D01*
G01*
X5742930Y-13390308D02*
X5742914Y-13161200D01*
X5788380Y-13115734D02*
X6057874Y-13115734D01*
X6062848Y-13435420D02*
X5782848Y-13435420D01*
X6103594Y-13161454D02*
X6103034Y-13390308D01*
X5742914Y-13161200D02*
G75*
G02*
X5788380Y-13115734I45466J0D01*
G01*
X5782848Y-13435420D02*
G75*
G02*
X5742930Y-13390308I5532J45112D01*
G01*
X6057874Y-13115734D02*
G75*
G02*
X6103594Y-13161454I0J-45720D01*
G01*
X6103034Y-13390308D02*
G75*
G02*
X6062848Y-13435419I-45409J-4D01*
G01*
X16963080Y-23015348D02*
X16963080Y-22735348D01*
X17008192Y-22695430D02*
X17237300Y-22695414D01*
X17237046Y-23056094D02*
X17008192Y-23055534D01*
X17282766Y-22740880D02*
X17282766Y-23010374D01*
X16963080Y-22735348D02*
G75*
G02*
X17008192Y-22695430I45112J-5532D01*
G01*
X17008192Y-23055534D02*
G75*
G02*
X16963081Y-23015348I-4J45409D01*
G01*
X17237300Y-22695414D02*
G75*
G02*
X17282766Y-22740880I0J-45466D01*
G01*
X17282766Y-23010374D02*
G75*
G02*
X17237046Y-23056094I-45720J0D01*
G01*
X13763234Y-7010120D02*
X13763234Y-6740626D01*
X13808954Y-6694906D02*
X14037808Y-6695466D01*
X14037808Y-7055570D02*
X13808700Y-7055586D01*
X14082920Y-6735652D02*
X14082920Y-7015652D01*
X13763234Y-6740626D02*
G75*
G02*
X13808954Y-6694906I45720J0D01*
G01*
X13808700Y-7055586D02*
G75*
G02*
X13763234Y-7010120I0J45466D01*
G01*
X14037808Y-6695466D02*
G75*
G02*
X14082919Y-6735652I4J-45409D01*
G01*
X14082920Y-7015652D02*
G75*
G02*
X14037808Y-7055570I-45112J5532D01*
G01*
X15363234Y-19810120D02*
X15363234Y-19540626D01*
X15408954Y-19494906D02*
X15637808Y-19495466D01*
X15637808Y-19855570D02*
X15408700Y-19855586D01*
X15682920Y-19535652D02*
X15682920Y-19815652D01*
X15363234Y-19540626D02*
G75*
G02*
X15408954Y-19494906I45720J0D01*
G01*
X15408700Y-19855586D02*
G75*
G02*
X15363234Y-19810120I0J45466D01*
G01*
X15637808Y-19495466D02*
G75*
G02*
X15682919Y-19535652I4J-45409D01*
G01*
X15682920Y-19815652D02*
G75*
G02*
X15637808Y-19855570I-45112J5532D01*
G01*
X8142406Y-10134546D02*
X8142966Y-9905692D01*
X8183152Y-9860580D02*
X8463152Y-9860580D01*
X8457620Y-10180266D02*
X8188126Y-10180266D01*
X8503070Y-9905692D02*
X8503086Y-10134800D01*
X8142966Y-9905692D02*
G75*
G02*
X8183152Y-9860581I45409J4D01*
G01*
X8188126Y-10180266D02*
G75*
G02*
X8142406Y-10134546I0J45720D01*
G01*
X8463152Y-9860580D02*
G75*
G02*
X8503070Y-9905692I-5532J-45112D01*
G01*
X8503086Y-10134800D02*
G75*
G02*
X8457620Y-10180266I-45466J0D01*
G01*
X15363080Y-7015348D02*
X15363080Y-6735348D01*
X15408192Y-6695430D02*
X15637300Y-6695414D01*
X15637046Y-7056094D02*
X15408192Y-7055534D01*
X15682766Y-6740880D02*
X15682766Y-7010374D01*
X15363080Y-6735348D02*
G75*
G02*
X15408192Y-6695430I45112J-5532D01*
G01*
X15408192Y-7055534D02*
G75*
G02*
X15363080Y-7015348I-4J45409D01*
G01*
X15637300Y-6695414D02*
G75*
G02*
X15682766Y-6740880I0J-45466D01*
G01*
X15682766Y-7010374D02*
G75*
G02*
X15637046Y-7056094I-45720J0D01*
G01*
X13763234Y-19810120D02*
X13763234Y-19540626D01*
X13808954Y-19494906D02*
X14037808Y-19495466D01*
X14037808Y-19855570D02*
X13808700Y-19855586D01*
X14082920Y-19535652D02*
X14082920Y-19815652D01*
X13763234Y-19540626D02*
G75*
G02*
X13808954Y-19494906I45720J0D01*
G01*
X13808700Y-19855586D02*
G75*
G02*
X13763234Y-19810120I0J45466D01*
G01*
X14037808Y-19495466D02*
G75*
G02*
X14082919Y-19535652I4J-45409D01*
G01*
X14082920Y-19815652D02*
G75*
G02*
X14037808Y-19855570I-45112J5532D01*
G01*
X16963080Y-24615348D02*
X16963080Y-24335348D01*
X17008192Y-24295430D02*
X17237300Y-24295414D01*
X17237046Y-24656094D02*
X17008192Y-24655534D01*
X17282766Y-24340880D02*
X17282766Y-24610374D01*
X16963080Y-24335348D02*
G75*
G02*
X17008192Y-24295430I45112J-5532D01*
G01*
X17008192Y-24655534D02*
G75*
G02*
X16963081Y-24615348I-4J45409D01*
G01*
X17237300Y-24295414D02*
G75*
G02*
X17282766Y-24340880I0J-45466D01*
G01*
X17282766Y-24610374D02*
G75*
G02*
X17237046Y-24656094I-45720J0D01*
G01*
X22541930Y-19765308D02*
X22541914Y-19536200D01*
X22587380Y-19490734D02*
X22856874Y-19490734D01*
X22861848Y-19810420D02*
X22581848Y-19810420D01*
X22902594Y-19536454D02*
X22902034Y-19765308D01*
X22541914Y-19536200D02*
G75*
G02*
X22587380Y-19490734I45466J0D01*
G01*
X22581848Y-19810420D02*
G75*
G02*
X22541930Y-19765308I5532J45112D01*
G01*
X22856874Y-19490734D02*
G75*
G02*
X22902594Y-19536454I0J-45720D01*
G01*
X22902034Y-19765308D02*
G75*
G02*
X22861848Y-19810420I-45409J-4D01*
G01*
X24942406Y-16589546D02*
X24942966Y-16360692D01*
X24983152Y-16315580D02*
X25263152Y-16315580D01*
X25257620Y-16635266D02*
X24988126Y-16635266D01*
X25303070Y-16360692D02*
X25303086Y-16589800D01*
X24942966Y-16360692D02*
G75*
G02*
X24983152Y-16315580I45409J4D01*
G01*
X24988126Y-16635266D02*
G75*
G02*
X24942406Y-16589546I0J45720D01*
G01*
X25263152Y-16315580D02*
G75*
G02*
X25303070Y-16360692I-5532J-45112D01*
G01*
X25303086Y-16589800D02*
G75*
G02*
X25257620Y-16635266I-45466J0D01*
G01*
X10632406Y-7824546D02*
X10632966Y-7595692D01*
X10673152Y-7550580D02*
X10953152Y-7550580D01*
X10947620Y-7870266D02*
X10678126Y-7870266D01*
X10993070Y-7595692D02*
X10993086Y-7824800D01*
X10632966Y-7595692D02*
G75*
G02*
X10673152Y-7550580I45409J4D01*
G01*
X10678126Y-7870266D02*
G75*
G02*
X10632406Y-7824546I0J45720D01*
G01*
X10953152Y-7550580D02*
G75*
G02*
X10993070Y-7595692I-5532J-45112D01*
G01*
X10993086Y-7824800D02*
G75*
G02*
X10947620Y-7870266I-45466J0D01*
G01*
X13763234Y-11810120D02*
X13763234Y-11540626D01*
X13808954Y-11494906D02*
X14037808Y-11495466D01*
X14037808Y-11855570D02*
X13808700Y-11855586D01*
X14082920Y-11535652D02*
X14082920Y-11815652D01*
X13763234Y-11540626D02*
G75*
G02*
X13808954Y-11494906I45720J0D01*
G01*
X13808700Y-11855586D02*
G75*
G02*
X13763234Y-11810120I0J45466D01*
G01*
X14037808Y-11495466D02*
G75*
G02*
X14082919Y-11535652I4J-45409D01*
G01*
X14082920Y-11815652D02*
G75*
G02*
X14037808Y-11855570I-45112J5532D01*
G01*
X5742930Y-14990308D02*
X5742914Y-14761200D01*
X5788380Y-14715734D02*
X6057874Y-14715734D01*
X6062848Y-15035420D02*
X5782848Y-15035420D01*
X6103594Y-14761454D02*
X6103034Y-14990308D01*
X5742914Y-14761200D02*
G75*
G02*
X5788380Y-14715734I45466J0D01*
G01*
X5782848Y-15035420D02*
G75*
G02*
X5742930Y-14990308I5532J45112D01*
G01*
X6057874Y-14715734D02*
G75*
G02*
X6103594Y-14761454I0J-45720D01*
G01*
X6103034Y-14990308D02*
G75*
G02*
X6062848Y-15035419I-45409J-4D01*
G01*
X18542406Y-14989546D02*
X18542966Y-14760692D01*
X18583152Y-14715580D02*
X18863152Y-14715580D01*
X18857620Y-15035266D02*
X18588126Y-15035266D01*
X18903070Y-14760692D02*
X18903086Y-14989800D01*
X18542966Y-14760692D02*
G75*
G02*
X18583152Y-14715580I45409J4D01*
G01*
X18588126Y-15035266D02*
G75*
G02*
X18542406Y-14989546I0J45720D01*
G01*
X18863152Y-14715580D02*
G75*
G02*
X18903070Y-14760692I-5532J-45112D01*
G01*
X18903086Y-14989800D02*
G75*
G02*
X18857620Y-15035266I-45466J0D01*
G01*
X21742930Y-13390308D02*
X21742914Y-13161200D01*
X21788380Y-13115734D02*
X22057874Y-13115734D01*
X22062848Y-13435420D02*
X21782848Y-13435420D01*
X22103594Y-13161454D02*
X22103034Y-13390308D01*
X21742914Y-13161200D02*
G75*
G02*
X21788380Y-13115734I45466J0D01*
G01*
X21782848Y-13435420D02*
G75*
G02*
X21742930Y-13390308I5532J45112D01*
G01*
X22057874Y-13115734D02*
G75*
G02*
X22103594Y-13161454I0J-45720D01*
G01*
X22103034Y-13390308D02*
G75*
G02*
X22062848Y-13435419I-45409J-4D01*
G01*
X7342930Y-14990308D02*
X7342914Y-14761200D01*
X7388380Y-14715734D02*
X7657874Y-14715734D01*
X7662848Y-15035420D02*
X7382848Y-15035420D01*
X7703594Y-14761454D02*
X7703034Y-14990308D01*
X7342914Y-14761200D02*
G75*
G02*
X7388380Y-14715734I45466J0D01*
G01*
X7382848Y-15035420D02*
G75*
G02*
X7342930Y-14990308I5532J45112D01*
G01*
X7657874Y-14715734D02*
G75*
G02*
X7703594Y-14761454I0J-45720D01*
G01*
X7703034Y-14990308D02*
G75*
G02*
X7662848Y-15035419I-45409J-4D01*
G01*
X13763234Y-24610120D02*
X13763234Y-24340626D01*
X13808954Y-24294906D02*
X14037808Y-24295466D01*
X14037808Y-24655570D02*
X13808700Y-24655586D01*
X14082920Y-24335652D02*
X14082920Y-24615652D01*
X13763234Y-24340626D02*
G75*
G02*
X13808954Y-24294906I45720J0D01*
G01*
X13808700Y-24655586D02*
G75*
G02*
X13763234Y-24610120I0J45466D01*
G01*
X14037808Y-24295466D02*
G75*
G02*
X14082919Y-24335652I4J-45409D01*
G01*
X14082920Y-24615652D02*
G75*
G02*
X14037808Y-24655570I-45112J5532D01*
G01*
X15363234Y-21410120D02*
X15363234Y-21140626D01*
X15408954Y-21094906D02*
X15637808Y-21095466D01*
X15637808Y-21455570D02*
X15408700Y-21455586D01*
X15682920Y-21135652D02*
X15682920Y-21415652D01*
X15363234Y-21140626D02*
G75*
G02*
X15408954Y-21094906I45720J0D01*
G01*
X15408700Y-21455586D02*
G75*
G02*
X15363234Y-21410120I0J45466D01*
G01*
X15637808Y-21095466D02*
G75*
G02*
X15682919Y-21135652I4J-45409D01*
G01*
X15682920Y-21415652D02*
G75*
G02*
X15637808Y-21455570I-45112J5532D01*
G01*
X13763234Y-10210120D02*
X13763234Y-9940626D01*
X13808954Y-9894906D02*
X14037808Y-9895466D01*
X14037808Y-10255570D02*
X13808700Y-10255586D01*
X14082920Y-9935652D02*
X14082920Y-10215652D01*
X13763234Y-9940626D02*
G75*
G02*
X13808954Y-9894906I45720J0D01*
G01*
X13808700Y-10255586D02*
G75*
G02*
X13763234Y-10210120I0J45466D01*
G01*
X14037808Y-9895466D02*
G75*
G02*
X14082919Y-9935652I4J-45409D01*
G01*
X14082920Y-10215652D02*
G75*
G02*
X14037808Y-10255570I-45112J5532D01*
G01*
X15363080Y-8615348D02*
X15363080Y-8335348D01*
X15408192Y-8295430D02*
X15637300Y-8295414D01*
X15637046Y-8656094D02*
X15408192Y-8655534D01*
X15682766Y-8340880D02*
X15682766Y-8610374D01*
X15363080Y-8335348D02*
G75*
G02*
X15408192Y-8295430I45112J-5532D01*
G01*
X15408192Y-8655534D02*
G75*
G02*
X15363080Y-8615348I-4J45409D01*
G01*
X15637300Y-8295414D02*
G75*
G02*
X15682766Y-8340880I0J-45466D01*
G01*
X15682766Y-8610374D02*
G75*
G02*
X15637046Y-8656094I-45720J0D01*
G01*
X15363080Y-5415348D02*
X15363080Y-5135348D01*
X15408192Y-5095430D02*
X15637300Y-5095414D01*
X15637046Y-5456094D02*
X15408192Y-5455534D01*
X15682766Y-5140880D02*
X15682766Y-5410374D01*
X15363080Y-5135348D02*
G75*
G02*
X15408192Y-5095430I45112J-5532D01*
G01*
X15408192Y-5455534D02*
G75*
G02*
X15363080Y-5415348I-4J45409D01*
G01*
X15637300Y-5095414D02*
G75*
G02*
X15682766Y-5140880I0J-45466D01*
G01*
X15682766Y-5410374D02*
G75*
G02*
X15637046Y-5456094I-45720J0D01*
G01*
X5742406Y-16589546D02*
X5742966Y-16360692D01*
X5783152Y-16315580D02*
X6063152Y-16315580D01*
X6057620Y-16635266D02*
X5788126Y-16635266D01*
X6103070Y-16360692D02*
X6103086Y-16589800D01*
X5742966Y-16360692D02*
G75*
G02*
X5783152Y-16315580I45409J4D01*
G01*
X5788126Y-16635266D02*
G75*
G02*
X5742406Y-16589546I0J45720D01*
G01*
X6063152Y-16315580D02*
G75*
G02*
X6103070Y-16360692I-5532J-45112D01*
G01*
X6103086Y-16589800D02*
G75*
G02*
X6057620Y-16635266I-45466J0D01*
G01*
X26542930Y-13390308D02*
X26542914Y-13161200D01*
X26588380Y-13115734D02*
X26857874Y-13115734D01*
X26862848Y-13435420D02*
X26582848Y-13435420D01*
X26903594Y-13161454D02*
X26903034Y-13390308D01*
X26542914Y-13161200D02*
G75*
G02*
X26588380Y-13115734I45466J0D01*
G01*
X26582848Y-13435420D02*
G75*
G02*
X26542930Y-13390308I5532J45112D01*
G01*
X26857874Y-13115734D02*
G75*
G02*
X26903594Y-13161454I0J-45720D01*
G01*
X26903034Y-13390308D02*
G75*
G02*
X26862848Y-13435419I-45409J-4D01*
G01*
X7342406Y-16589546D02*
X7342966Y-16360692D01*
X7383152Y-16315580D02*
X7663152Y-16315580D01*
X7657620Y-16635266D02*
X7388126Y-16635266D01*
X7703070Y-16360692D02*
X7703086Y-16589800D01*
X7342966Y-16360692D02*
G75*
G02*
X7383152Y-16315580I45409J4D01*
G01*
X7388126Y-16635266D02*
G75*
G02*
X7342406Y-16589546I0J45720D01*
G01*
X7663152Y-16315580D02*
G75*
G02*
X7703070Y-16360692I-5532J-45112D01*
G01*
X7703086Y-16589800D02*
G75*
G02*
X7657620Y-16635266I-45466J0D01*
G01*
X24942406Y-14989546D02*
X24942966Y-14760692D01*
X24983152Y-14715580D02*
X25263152Y-14715580D01*
X25257620Y-15035266D02*
X24988126Y-15035266D01*
X25303070Y-14760692D02*
X25303086Y-14989800D01*
X24942966Y-14760692D02*
G75*
G02*
X24983152Y-14715580I45409J4D01*
G01*
X24988126Y-15035266D02*
G75*
G02*
X24942406Y-14989546I0J45720D01*
G01*
X25263152Y-14715580D02*
G75*
G02*
X25303070Y-14760692I-5532J-45112D01*
G01*
X25303086Y-14989800D02*
G75*
G02*
X25257620Y-15035266I-45466J0D01*
G01*
X22541930Y-5365308D02*
X22541914Y-5136200D01*
X22587380Y-5090734D02*
X22856874Y-5090734D01*
X22861848Y-5410420D02*
X22581848Y-5410420D01*
X22902594Y-5136454D02*
X22902034Y-5365308D01*
X22541914Y-5136200D02*
G75*
G02*
X22587380Y-5090734I45466J0D01*
G01*
X22581848Y-5410420D02*
G75*
G02*
X22541930Y-5365308I5532J45112D01*
G01*
X22856874Y-5090734D02*
G75*
G02*
X22902594Y-5136454I0J-45720D01*
G01*
X22902034Y-5365308D02*
G75*
G02*
X22861848Y-5410420I-45409J-4D01*
G01*
X20142406Y-16589546D02*
X20142966Y-16360692D01*
X20183152Y-16315580D02*
X20463152Y-16315580D01*
X20457620Y-16635266D02*
X20188126Y-16635266D01*
X20503070Y-16360692D02*
X20503086Y-16589800D01*
X20142966Y-16360692D02*
G75*
G02*
X20183152Y-16315580I45409J4D01*
G01*
X20188126Y-16635266D02*
G75*
G02*
X20142406Y-16589546I0J45720D01*
G01*
X20463152Y-16315580D02*
G75*
G02*
X20503070Y-16360692I-5532J-45112D01*
G01*
X20503086Y-16589800D02*
G75*
G02*
X20457620Y-16635266I-45466J0D01*
G01*
X20116930Y-22225308D02*
X20116914Y-21996200D01*
X20162380Y-21950734D02*
X20431874Y-21950734D01*
X20436848Y-22270420D02*
X20156848Y-22270420D01*
X20477594Y-21996454D02*
X20477034Y-22225308D01*
X20116914Y-21996200D02*
G75*
G02*
X20162380Y-21950734I45466J0D01*
G01*
X20156848Y-22270420D02*
G75*
G02*
X20116930Y-22225308I5532J45112D01*
G01*
X20431874Y-21950734D02*
G75*
G02*
X20477594Y-21996454I0J-45720D01*
G01*
X20477034Y-22225308D02*
G75*
G02*
X20436848Y-22270420I-45409J-4D01*
G01*
X12142930Y-14990308D02*
X12142914Y-14761200D01*
X12188380Y-14715734D02*
X12457874Y-14715734D01*
X12462848Y-15035420D02*
X12182848Y-15035420D01*
X12503594Y-14761454D02*
X12503034Y-14990308D01*
X12142914Y-14761200D02*
G75*
G02*
X12188380Y-14715734I45466J0D01*
G01*
X12182848Y-15035420D02*
G75*
G02*
X12142930Y-14990308I5532J45112D01*
G01*
X12457874Y-14715734D02*
G75*
G02*
X12503594Y-14761454I0J-45720D01*
G01*
X12503034Y-14990308D02*
G75*
G02*
X12462848Y-15035419I-45409J-4D01*
G01*
X20142930Y-13390308D02*
X20142914Y-13161200D01*
X20188380Y-13115734D02*
X20457874Y-13115734D01*
X20462848Y-13435420D02*
X20182848Y-13435420D01*
X20503594Y-13161454D02*
X20503034Y-13390308D01*
X20142914Y-13161200D02*
G75*
G02*
X20188380Y-13115734I45466J0D01*
G01*
X20182848Y-13435420D02*
G75*
G02*
X20142930Y-13390308I5532J45112D01*
G01*
X20457874Y-13115734D02*
G75*
G02*
X20503594Y-13161454I0J-45720D01*
G01*
X20503034Y-13390308D02*
G75*
G02*
X20462848Y-13435419I-45409J-4D01*
G01*
X21742406Y-16589546D02*
X21742966Y-16360692D01*
X21783152Y-16315580D02*
X22063152Y-16315580D01*
X22057620Y-16635266D02*
X21788126Y-16635266D01*
X22103070Y-16360692D02*
X22103086Y-16589800D01*
X21742966Y-16360692D02*
G75*
G02*
X21783152Y-16315580I45409J4D01*
G01*
X21788126Y-16635266D02*
G75*
G02*
X21742406Y-16589546I0J45720D01*
G01*
X22063152Y-16315580D02*
G75*
G02*
X22103070Y-16360692I-5532J-45112D01*
G01*
X22103086Y-16589800D02*
G75*
G02*
X22057620Y-16635266I-45466J0D01*
G01*
X13763234Y-23010120D02*
X13763234Y-22740626D01*
X13808954Y-22694906D02*
X14037808Y-22695466D01*
X14037808Y-23055570D02*
X13808700Y-23055586D01*
X14082920Y-22735652D02*
X14082920Y-23015652D01*
X13763234Y-22740626D02*
G75*
G02*
X13808954Y-22694906I45720J0D01*
G01*
X13808700Y-23055586D02*
G75*
G02*
X13763234Y-23010120I0J45466D01*
G01*
X14037808Y-22695466D02*
G75*
G02*
X14082919Y-22735652I4J-45409D01*
G01*
X14082920Y-23015652D02*
G75*
G02*
X14037808Y-23055570I-45112J5532D01*
G01*
X13763234Y-18210120D02*
X13763234Y-17940626D01*
X13808954Y-17894906D02*
X14037808Y-17895466D01*
X14037808Y-18255570D02*
X13808700Y-18255586D01*
X14082920Y-17935652D02*
X14082920Y-18215652D01*
X13763234Y-17940626D02*
G75*
G02*
X13808954Y-17894906I45720J0D01*
G01*
X13808700Y-18255586D02*
G75*
G02*
X13763234Y-18210120I0J45466D01*
G01*
X14037808Y-17895466D02*
G75*
G02*
X14082919Y-17935652I4J-45409D01*
G01*
X14082920Y-18215652D02*
G75*
G02*
X14037808Y-18255570I-45112J5532D01*
G01*
X15363234Y-26210120D02*
X15363234Y-25940626D01*
X15408954Y-25894906D02*
X15637808Y-25895466D01*
X15637808Y-26255570D02*
X15408700Y-26255586D01*
X15682920Y-25935652D02*
X15682920Y-26215652D01*
X15363234Y-25940626D02*
G75*
G02*
X15408954Y-25894906I45720J0D01*
G01*
X15408700Y-26255586D02*
G75*
G02*
X15363234Y-26210120I0J45466D01*
G01*
X15637808Y-25895466D02*
G75*
G02*
X15682919Y-25935652I4J-45409D01*
G01*
X15682920Y-26215652D02*
G75*
G02*
X15637808Y-26255570I-45112J5532D01*
G01*
X16963080Y-26215348D02*
X16963080Y-25935348D01*
X17008192Y-25895430D02*
X17237300Y-25895414D01*
X17237046Y-26256094D02*
X17008192Y-26255534D01*
X17282766Y-25940880D02*
X17282766Y-26210374D01*
X16963080Y-25935348D02*
G75*
G02*
X17008192Y-25895430I45112J-5532D01*
G01*
X17008192Y-26255534D02*
G75*
G02*
X16963081Y-26215348I-4J45409D01*
G01*
X17237300Y-25895414D02*
G75*
G02*
X17282766Y-25940880I0J-45466D01*
G01*
X17282766Y-26210374D02*
G75*
G02*
X17237046Y-26256094I-45720J0D01*
G01*
X8942406Y-16589546D02*
X8942966Y-16360692D01*
X8983152Y-16315580D02*
X9263152Y-16315580D01*
X9257620Y-16635266D02*
X8988126Y-16635266D01*
X9303070Y-16360692D02*
X9303086Y-16589800D01*
X8942966Y-16360692D02*
G75*
G02*
X8983152Y-16315580I45409J4D01*
G01*
X8988126Y-16635266D02*
G75*
G02*
X8942406Y-16589546I0J45720D01*
G01*
X9263152Y-16315580D02*
G75*
G02*
X9303070Y-16360692I-5532J-45112D01*
G01*
X9303086Y-16589800D02*
G75*
G02*
X9257620Y-16635266I-45466J0D01*
G01*
X23342930Y-13390308D02*
X23342914Y-13161200D01*
X23388380Y-13115734D02*
X23657874Y-13115734D01*
X23662848Y-13435420D02*
X23382848Y-13435420D01*
X23703594Y-13161454D02*
X23703034Y-13390308D01*
X23342914Y-13161200D02*
G75*
G02*
X23388380Y-13115734I45466J0D01*
G01*
X23382848Y-13435420D02*
G75*
G02*
X23342930Y-13390308I5532J45112D01*
G01*
X23657874Y-13115734D02*
G75*
G02*
X23703594Y-13161454I0J-45720D01*
G01*
X23703034Y-13390308D02*
G75*
G02*
X23662848Y-13435419I-45409J-4D01*
G01*
X15363234Y-18210120D02*
X15363234Y-17940626D01*
X15408954Y-17894906D02*
X15637808Y-17895466D01*
X15637808Y-18255570D02*
X15408700Y-18255586D01*
X15682920Y-17935652D02*
X15682920Y-18215652D01*
X15363234Y-17940626D02*
G75*
G02*
X15408954Y-17894906I45720J0D01*
G01*
X15408700Y-18255586D02*
G75*
G02*
X15363234Y-18210120I0J45466D01*
G01*
X15637808Y-17895466D02*
G75*
G02*
X15682919Y-17935652I4J-45409D01*
G01*
X15682920Y-18215652D02*
G75*
G02*
X15637808Y-18255570I-45112J5532D01*
G01*
D11*
D12*
X15201500Y-2522236D02*
X15266500Y-2587236D01*
X15266500Y-2522236D02*
X15201500Y-2587236D01*
X15779500Y-2522236D02*
X15844500Y-2587236D01*
X15844500Y-2522236D02*
X15779500Y-2587236D01*
X17776590Y-1988900D02*
G75*
G02*
X17706590Y-1988900I-35000J0D01*
G01*
X17706590Y-1988900D02*
G75*
G02*
X17776590Y-1988900I35000J0D01*
G01*
X17946590Y-1988900D02*
G75*
G02*
X17876590Y-1988900I-35000J0D01*
G01*
X17876590Y-1988900D02*
G75*
G02*
X17946590Y-1988900I35000J0D01*
G01*
X11410784Y-2158236D02*
X11410784Y-2233236D01*
X11373284Y-2195736D02*
X11448284Y-2195736D01*
X11590784Y-2158236D02*
X11590784Y-2233236D01*
X11553284Y-2195736D02*
X11628284Y-2195736D01*
X11880784Y-2144236D02*
X11880784Y-2219236D01*
X11843284Y-2181736D02*
X11918284Y-2181736D01*
X12060784Y-2144236D02*
X12060784Y-2219236D01*
X12023284Y-2181736D02*
X12098284Y-2181736D01*
D11*
X2781277Y-28189484D02*
X2781277Y-27989484D01*
X2781277Y-27989484D02*
X2828896Y-27989484D01*
X2828896Y-27989484D02*
X2857467Y-27999008D01*
X2857467Y-27999008D02*
X2876515Y-28018055D01*
X2876515Y-28018055D02*
X2886039Y-28037103D01*
X2886039Y-28037103D02*
X2895562Y-28075198D01*
X2895562Y-28075198D02*
X2895562Y-28103769D01*
X2895562Y-28103769D02*
X2886039Y-28141865D01*
X2886039Y-28141865D02*
X2876515Y-28160912D01*
X2876515Y-28160912D02*
X2857467Y-28179960D01*
X2857467Y-28179960D02*
X2828896Y-28189484D01*
X2828896Y-28189484D02*
X2781277Y-28189484D01*
X2981277Y-28189484D02*
X2981277Y-28056150D01*
X2981277Y-28094246D02*
X2990801Y-28075198D01*
X2990801Y-28075198D02*
X3000324Y-28065674D01*
X3000324Y-28065674D02*
X3019372Y-28056150D01*
X3019372Y-28056150D02*
X3038420Y-28056150D01*
X3105086Y-28189484D02*
X3105086Y-28056150D01*
X3105086Y-27989484D02*
X3095562Y-27999008D01*
X3095562Y-27999008D02*
X3105086Y-28008531D01*
X3105086Y-28008531D02*
X3114610Y-27999008D01*
X3114610Y-27999008D02*
X3105086Y-27989484D01*
X3105086Y-27989484D02*
X3105086Y-28008531D01*
X3228896Y-28189484D02*
X3209848Y-28179960D01*
X3209848Y-28179960D02*
X3200324Y-28160912D01*
X3200324Y-28160912D02*
X3200324Y-27989484D01*
X3333658Y-28189484D02*
X3314610Y-28179960D01*
X3314610Y-28179960D02*
X3305086Y-28160912D01*
X3305086Y-28160912D02*
X3305086Y-27989484D01*
X3562229Y-28189484D02*
X3562229Y-27989484D01*
X3562229Y-27989484D02*
X3628896Y-28132341D01*
X3628896Y-28132341D02*
X3695562Y-27989484D01*
X3695562Y-27989484D02*
X3695562Y-28189484D01*
X3876515Y-28189484D02*
X3876515Y-28084722D01*
X3876515Y-28084722D02*
X3866991Y-28065674D01*
X3866991Y-28065674D02*
X3847943Y-28056150D01*
X3847943Y-28056150D02*
X3809848Y-28056150D01*
X3809848Y-28056150D02*
X3790801Y-28065674D01*
X3876515Y-28179960D02*
X3857467Y-28189484D01*
X3857467Y-28189484D02*
X3809848Y-28189484D01*
X3809848Y-28189484D02*
X3790801Y-28179960D01*
X3790801Y-28179960D02*
X3781277Y-28160912D01*
X3781277Y-28160912D02*
X3781277Y-28141865D01*
X3781277Y-28141865D02*
X3790801Y-28122817D01*
X3790801Y-28122817D02*
X3809848Y-28113293D01*
X3809848Y-28113293D02*
X3857467Y-28113293D01*
X3857467Y-28113293D02*
X3876515Y-28103769D01*
X3971753Y-28056150D02*
X3971753Y-28256150D01*
X3971753Y-28065674D02*
X3990801Y-28056150D01*
X3990801Y-28056150D02*
X4028896Y-28056150D01*
X4028896Y-28056150D02*
X4047943Y-28065674D01*
X4047943Y-28065674D02*
X4057467Y-28075198D01*
X4057467Y-28075198D02*
X4066991Y-28094246D01*
X4066991Y-28094246D02*
X4066991Y-28151388D01*
X4066991Y-28151388D02*
X4057467Y-28170436D01*
X4057467Y-28170436D02*
X4047943Y-28179960D01*
X4047943Y-28179960D02*
X4028896Y-28189484D01*
X4028896Y-28189484D02*
X3990801Y-28189484D01*
X3990801Y-28189484D02*
X3971753Y-28179960D01*
X4152705Y-28170436D02*
X4162229Y-28179960D01*
X4162229Y-28179960D02*
X4152705Y-28189484D01*
X4152705Y-28189484D02*
X4143182Y-28179960D01*
X4143182Y-28179960D02*
X4152705Y-28170436D01*
X4152705Y-28170436D02*
X4152705Y-28189484D01*
X4152705Y-28065674D02*
X4162229Y-28075198D01*
X4162229Y-28075198D02*
X4152705Y-28084722D01*
X4152705Y-28084722D02*
X4143182Y-28075198D01*
X4143182Y-28075198D02*
X4152705Y-28065674D01*
X4152705Y-28065674D02*
X4152705Y-28084722D01*
D12*
X2455500Y-28485500D02*
X2520500Y-28550500D01*
X2520500Y-28485500D02*
X2455500Y-28550500D01*
D11*
X2819372Y-28409484D02*
X2838420Y-28409484D01*
X2838420Y-28409484D02*
X2857467Y-28419008D01*
X2857467Y-28419008D02*
X2866991Y-28428531D01*
X2866991Y-28428531D02*
X2876515Y-28447579D01*
X2876515Y-28447579D02*
X2886039Y-28485674D01*
X2886039Y-28485674D02*
X2886039Y-28533293D01*
X2886039Y-28533293D02*
X2876515Y-28571388D01*
X2876515Y-28571388D02*
X2866991Y-28590436D01*
X2866991Y-28590436D02*
X2857467Y-28599960D01*
X2857467Y-28599960D02*
X2838420Y-28609484D01*
X2838420Y-28609484D02*
X2819372Y-28609484D01*
X2819372Y-28609484D02*
X2800324Y-28599960D01*
X2800324Y-28599960D02*
X2790801Y-28590436D01*
X2790801Y-28590436D02*
X2781277Y-28571388D01*
X2781277Y-28571388D02*
X2771753Y-28533293D01*
X2771753Y-28533293D02*
X2771753Y-28485674D01*
X2771753Y-28485674D02*
X2781277Y-28447579D01*
X2781277Y-28447579D02*
X2790801Y-28428531D01*
X2790801Y-28428531D02*
X2800324Y-28419008D01*
X2800324Y-28419008D02*
X2819372Y-28409484D01*
X2971753Y-28590436D02*
X2981277Y-28599960D01*
X2981277Y-28599960D02*
X2971753Y-28609484D01*
X2971753Y-28609484D02*
X2962229Y-28599960D01*
X2962229Y-28599960D02*
X2971753Y-28590436D01*
X2971753Y-28590436D02*
X2971753Y-28609484D01*
X3152705Y-28409484D02*
X3114610Y-28409484D01*
X3114610Y-28409484D02*
X3095562Y-28419008D01*
X3095562Y-28419008D02*
X3086039Y-28428531D01*
X3086039Y-28428531D02*
X3066991Y-28457103D01*
X3066991Y-28457103D02*
X3057467Y-28495198D01*
X3057467Y-28495198D02*
X3057467Y-28571388D01*
X3057467Y-28571388D02*
X3066991Y-28590436D01*
X3066991Y-28590436D02*
X3076515Y-28599960D01*
X3076515Y-28599960D02*
X3095562Y-28609484D01*
X3095562Y-28609484D02*
X3133658Y-28609484D01*
X3133658Y-28609484D02*
X3152705Y-28599960D01*
X3152705Y-28599960D02*
X3162229Y-28590436D01*
X3162229Y-28590436D02*
X3171753Y-28571388D01*
X3171753Y-28571388D02*
X3171753Y-28523769D01*
X3171753Y-28523769D02*
X3162229Y-28504722D01*
X3162229Y-28504722D02*
X3152705Y-28495198D01*
X3152705Y-28495198D02*
X3133658Y-28485674D01*
X3133658Y-28485674D02*
X3095562Y-28485674D01*
X3095562Y-28485674D02*
X3076515Y-28495198D01*
X3076515Y-28495198D02*
X3066991Y-28504722D01*
X3066991Y-28504722D02*
X3057467Y-28523769D01*
X3352705Y-28409484D02*
X3257467Y-28409484D01*
X3257467Y-28409484D02*
X3247943Y-28504722D01*
X3247943Y-28504722D02*
X3257467Y-28495198D01*
X3257467Y-28495198D02*
X3276515Y-28485674D01*
X3276515Y-28485674D02*
X3324134Y-28485674D01*
X3324134Y-28485674D02*
X3343182Y-28495198D01*
X3343182Y-28495198D02*
X3352705Y-28504722D01*
X3352705Y-28504722D02*
X3362229Y-28523769D01*
X3362229Y-28523769D02*
X3362229Y-28571388D01*
X3362229Y-28571388D02*
X3352705Y-28590436D01*
X3352705Y-28590436D02*
X3343182Y-28599960D01*
X3343182Y-28599960D02*
X3324134Y-28609484D01*
X3324134Y-28609484D02*
X3276515Y-28609484D01*
X3276515Y-28609484D02*
X3257467Y-28599960D01*
X3257467Y-28599960D02*
X3247943Y-28590436D01*
X3486039Y-28409484D02*
X3505086Y-28409484D01*
X3505086Y-28409484D02*
X3524134Y-28419008D01*
X3524134Y-28419008D02*
X3533658Y-28428531D01*
X3533658Y-28428531D02*
X3543182Y-28447579D01*
X3543182Y-28447579D02*
X3552705Y-28485674D01*
X3552705Y-28485674D02*
X3552705Y-28533293D01*
X3552705Y-28533293D02*
X3543182Y-28571388D01*
X3543182Y-28571388D02*
X3533658Y-28590436D01*
X3533658Y-28590436D02*
X3524134Y-28599960D01*
X3524134Y-28599960D02*
X3505086Y-28609484D01*
X3505086Y-28609484D02*
X3486039Y-28609484D01*
X3486039Y-28609484D02*
X3466991Y-28599960D01*
X3466991Y-28599960D02*
X3457467Y-28590436D01*
X3457467Y-28590436D02*
X3447943Y-28571388D01*
X3447943Y-28571388D02*
X3438420Y-28533293D01*
X3438420Y-28533293D02*
X3438420Y-28485674D01*
X3438420Y-28485674D02*
X3447943Y-28447579D01*
X3447943Y-28447579D02*
X3457467Y-28428531D01*
X3457467Y-28428531D02*
X3466991Y-28419008D01*
X3466991Y-28419008D02*
X3486039Y-28409484D01*
X3638420Y-28609484D02*
X3638420Y-28476150D01*
X3638420Y-28495198D02*
X3647943Y-28485674D01*
X3647943Y-28485674D02*
X3666991Y-28476150D01*
X3666991Y-28476150D02*
X3695563Y-28476150D01*
X3695563Y-28476150D02*
X3714610Y-28485674D01*
X3714610Y-28485674D02*
X3724134Y-28504722D01*
X3724134Y-28504722D02*
X3724134Y-28609484D01*
X3724134Y-28504722D02*
X3733658Y-28485674D01*
X3733658Y-28485674D02*
X3752705Y-28476150D01*
X3752705Y-28476150D02*
X3781277Y-28476150D01*
X3781277Y-28476150D02*
X3800324Y-28485674D01*
X3800324Y-28485674D02*
X3809848Y-28504722D01*
X3809848Y-28504722D02*
X3809848Y-28609484D01*
X3905086Y-28609484D02*
X3905086Y-28476150D01*
X3905086Y-28495198D02*
X3914610Y-28485674D01*
X3914610Y-28485674D02*
X3933658Y-28476150D01*
X3933658Y-28476150D02*
X3962229Y-28476150D01*
X3962229Y-28476150D02*
X3981277Y-28485674D01*
X3981277Y-28485674D02*
X3990801Y-28504722D01*
X3990801Y-28504722D02*
X3990801Y-28609484D01*
X3990801Y-28504722D02*
X4000324Y-28485674D01*
X4000324Y-28485674D02*
X4019372Y-28476150D01*
X4019372Y-28476150D02*
X4047943Y-28476150D01*
X4047943Y-28476150D02*
X4066991Y-28485674D01*
X4066991Y-28485674D02*
X4076515Y-28504722D01*
X4076515Y-28504722D02*
X4076515Y-28609484D01*
X4466991Y-28399960D02*
X4295563Y-28657103D01*
X4724134Y-28409484D02*
X4743182Y-28409484D01*
X4743182Y-28409484D02*
X4762229Y-28419008D01*
X4762229Y-28419008D02*
X4771753Y-28428531D01*
X4771753Y-28428531D02*
X4781277Y-28447579D01*
X4781277Y-28447579D02*
X4790801Y-28485674D01*
X4790801Y-28485674D02*
X4790801Y-28533293D01*
X4790801Y-28533293D02*
X4781277Y-28571388D01*
X4781277Y-28571388D02*
X4771753Y-28590436D01*
X4771753Y-28590436D02*
X4762229Y-28599960D01*
X4762229Y-28599960D02*
X4743182Y-28609484D01*
X4743182Y-28609484D02*
X4724134Y-28609484D01*
X4724134Y-28609484D02*
X4705087Y-28599960D01*
X4705087Y-28599960D02*
X4695563Y-28590436D01*
X4695563Y-28590436D02*
X4686039Y-28571388D01*
X4686039Y-28571388D02*
X4676515Y-28533293D01*
X4676515Y-28533293D02*
X4676515Y-28485674D01*
X4676515Y-28485674D02*
X4686039Y-28447579D01*
X4686039Y-28447579D02*
X4695563Y-28428531D01*
X4695563Y-28428531D02*
X4705087Y-28419008D01*
X4705087Y-28419008D02*
X4724134Y-28409484D01*
X4876515Y-28590436D02*
X4886039Y-28599960D01*
X4886039Y-28599960D02*
X4876515Y-28609484D01*
X4876515Y-28609484D02*
X4866991Y-28599960D01*
X4866991Y-28599960D02*
X4876515Y-28590436D01*
X4876515Y-28590436D02*
X4876515Y-28609484D01*
X5009848Y-28409484D02*
X5028896Y-28409484D01*
X5028896Y-28409484D02*
X5047944Y-28419008D01*
X5047944Y-28419008D02*
X5057468Y-28428531D01*
X5057468Y-28428531D02*
X5066991Y-28447579D01*
X5066991Y-28447579D02*
X5076515Y-28485674D01*
X5076515Y-28485674D02*
X5076515Y-28533293D01*
X5076515Y-28533293D02*
X5066991Y-28571388D01*
X5066991Y-28571388D02*
X5057468Y-28590436D01*
X5057468Y-28590436D02*
X5047944Y-28599960D01*
X5047944Y-28599960D02*
X5028896Y-28609484D01*
X5028896Y-28609484D02*
X5009848Y-28609484D01*
X5009848Y-28609484D02*
X4990801Y-28599960D01*
X4990801Y-28599960D02*
X4981277Y-28590436D01*
X4981277Y-28590436D02*
X4971753Y-28571388D01*
X4971753Y-28571388D02*
X4962229Y-28533293D01*
X4962229Y-28533293D02*
X4962229Y-28485674D01*
X4962229Y-28485674D02*
X4971753Y-28447579D01*
X4971753Y-28447579D02*
X4981277Y-28428531D01*
X4981277Y-28428531D02*
X4990801Y-28419008D01*
X4990801Y-28419008D02*
X5009848Y-28409484D01*
X5152706Y-28428531D02*
X5162229Y-28419008D01*
X5162229Y-28419008D02*
X5181277Y-28409484D01*
X5181277Y-28409484D02*
X5228896Y-28409484D01*
X5228896Y-28409484D02*
X5247944Y-28419008D01*
X5247944Y-28419008D02*
X5257468Y-28428531D01*
X5257468Y-28428531D02*
X5266991Y-28447579D01*
X5266991Y-28447579D02*
X5266991Y-28466627D01*
X5266991Y-28466627D02*
X5257468Y-28495198D01*
X5257468Y-28495198D02*
X5143182Y-28609484D01*
X5143182Y-28609484D02*
X5266991Y-28609484D01*
X5447944Y-28409484D02*
X5352706Y-28409484D01*
X5352706Y-28409484D02*
X5343182Y-28504722D01*
X5343182Y-28504722D02*
X5352706Y-28495198D01*
X5352706Y-28495198D02*
X5371753Y-28485674D01*
X5371753Y-28485674D02*
X5419372Y-28485674D01*
X5419372Y-28485674D02*
X5438420Y-28495198D01*
X5438420Y-28495198D02*
X5447944Y-28504722D01*
X5447944Y-28504722D02*
X5457468Y-28523769D01*
X5457468Y-28523769D02*
X5457468Y-28571388D01*
X5457468Y-28571388D02*
X5447944Y-28590436D01*
X5447944Y-28590436D02*
X5438420Y-28599960D01*
X5438420Y-28599960D02*
X5419372Y-28609484D01*
X5419372Y-28609484D02*
X5371753Y-28609484D01*
X5371753Y-28609484D02*
X5352706Y-28599960D01*
X5352706Y-28599960D02*
X5343182Y-28590436D01*
X5628896Y-28409484D02*
X5590801Y-28409484D01*
X5590801Y-28409484D02*
X5571753Y-28419008D01*
X5571753Y-28419008D02*
X5562229Y-28428531D01*
X5562229Y-28428531D02*
X5543182Y-28457103D01*
X5543182Y-28457103D02*
X5533658Y-28495198D01*
X5533658Y-28495198D02*
X5533658Y-28571388D01*
X5533658Y-28571388D02*
X5543182Y-28590436D01*
X5543182Y-28590436D02*
X5552706Y-28599960D01*
X5552706Y-28599960D02*
X5571753Y-28609484D01*
X5571753Y-28609484D02*
X5609848Y-28609484D01*
X5609848Y-28609484D02*
X5628896Y-28599960D01*
X5628896Y-28599960D02*
X5638420Y-28590436D01*
X5638420Y-28590436D02*
X5647944Y-28571388D01*
X5647944Y-28571388D02*
X5647944Y-28523769D01*
X5647944Y-28523769D02*
X5638420Y-28504722D01*
X5638420Y-28504722D02*
X5628896Y-28495198D01*
X5628896Y-28495198D02*
X5609848Y-28485674D01*
X5609848Y-28485674D02*
X5571753Y-28485674D01*
X5571753Y-28485674D02*
X5552706Y-28495198D01*
X5552706Y-28495198D02*
X5543182Y-28504722D01*
X5543182Y-28504722D02*
X5533658Y-28523769D01*
X5724134Y-28409484D02*
X5724134Y-28447579D01*
X5800325Y-28409484D02*
X5800325Y-28447579D01*
X6095563Y-28685674D02*
X6086039Y-28676150D01*
X6086039Y-28676150D02*
X6066991Y-28647579D01*
X6066991Y-28647579D02*
X6057468Y-28628531D01*
X6057468Y-28628531D02*
X6047944Y-28599960D01*
X6047944Y-28599960D02*
X6038420Y-28552341D01*
X6038420Y-28552341D02*
X6038420Y-28514246D01*
X6038420Y-28514246D02*
X6047944Y-28466627D01*
X6047944Y-28466627D02*
X6057468Y-28438055D01*
X6057468Y-28438055D02*
X6066991Y-28419008D01*
X6066991Y-28419008D02*
X6086039Y-28390436D01*
X6086039Y-28390436D02*
X6095563Y-28380912D01*
X6162229Y-28428531D02*
X6171753Y-28419008D01*
X6171753Y-28419008D02*
X6190801Y-28409484D01*
X6190801Y-28409484D02*
X6238420Y-28409484D01*
X6238420Y-28409484D02*
X6257468Y-28419008D01*
X6257468Y-28419008D02*
X6266991Y-28428531D01*
X6266991Y-28428531D02*
X6276515Y-28447579D01*
X6276515Y-28447579D02*
X6276515Y-28466627D01*
X6276515Y-28466627D02*
X6266991Y-28495198D01*
X6266991Y-28495198D02*
X6152706Y-28609484D01*
X6152706Y-28609484D02*
X6276515Y-28609484D01*
X6514610Y-28609484D02*
X6514610Y-28409484D01*
X6600325Y-28609484D02*
X6600325Y-28504722D01*
X6600325Y-28504722D02*
X6590801Y-28485674D01*
X6590801Y-28485674D02*
X6571753Y-28476150D01*
X6571753Y-28476150D02*
X6543182Y-28476150D01*
X6543182Y-28476150D02*
X6524134Y-28485674D01*
X6524134Y-28485674D02*
X6514610Y-28495198D01*
X6724134Y-28609484D02*
X6705087Y-28599960D01*
X6705087Y-28599960D02*
X6695563Y-28590436D01*
X6695563Y-28590436D02*
X6686039Y-28571388D01*
X6686039Y-28571388D02*
X6686039Y-28514246D01*
X6686039Y-28514246D02*
X6695563Y-28495198D01*
X6695563Y-28495198D02*
X6705087Y-28485674D01*
X6705087Y-28485674D02*
X6724134Y-28476150D01*
X6724134Y-28476150D02*
X6752706Y-28476150D01*
X6752706Y-28476150D02*
X6771753Y-28485674D01*
X6771753Y-28485674D02*
X6781277Y-28495198D01*
X6781277Y-28495198D02*
X6790801Y-28514246D01*
X6790801Y-28514246D02*
X6790801Y-28571388D01*
X6790801Y-28571388D02*
X6781277Y-28590436D01*
X6781277Y-28590436D02*
X6771753Y-28599960D01*
X6771753Y-28599960D02*
X6752706Y-28609484D01*
X6752706Y-28609484D02*
X6724134Y-28609484D01*
X6905087Y-28609484D02*
X6886039Y-28599960D01*
X6886039Y-28599960D02*
X6876515Y-28580912D01*
X6876515Y-28580912D02*
X6876515Y-28409484D01*
X7057468Y-28599960D02*
X7038420Y-28609484D01*
X7038420Y-28609484D02*
X7000325Y-28609484D01*
X7000325Y-28609484D02*
X6981277Y-28599960D01*
X6981277Y-28599960D02*
X6971753Y-28580912D01*
X6971753Y-28580912D02*
X6971753Y-28504722D01*
X6971753Y-28504722D02*
X6981277Y-28485674D01*
X6981277Y-28485674D02*
X7000325Y-28476150D01*
X7000325Y-28476150D02*
X7038420Y-28476150D01*
X7038420Y-28476150D02*
X7057468Y-28485674D01*
X7057468Y-28485674D02*
X7066991Y-28504722D01*
X7066991Y-28504722D02*
X7066991Y-28523769D01*
X7066991Y-28523769D02*
X6971753Y-28542817D01*
X7143182Y-28599960D02*
X7162230Y-28609484D01*
X7162230Y-28609484D02*
X7200325Y-28609484D01*
X7200325Y-28609484D02*
X7219372Y-28599960D01*
X7219372Y-28599960D02*
X7228896Y-28580912D01*
X7228896Y-28580912D02*
X7228896Y-28571388D01*
X7228896Y-28571388D02*
X7219372Y-28552341D01*
X7219372Y-28552341D02*
X7200325Y-28542817D01*
X7200325Y-28542817D02*
X7171753Y-28542817D01*
X7171753Y-28542817D02*
X7152706Y-28533293D01*
X7152706Y-28533293D02*
X7143182Y-28514246D01*
X7143182Y-28514246D02*
X7143182Y-28504722D01*
X7143182Y-28504722D02*
X7152706Y-28485674D01*
X7152706Y-28485674D02*
X7171753Y-28476150D01*
X7171753Y-28476150D02*
X7200325Y-28476150D01*
X7200325Y-28476150D02*
X7219372Y-28485674D01*
X7295563Y-28685674D02*
X7305087Y-28676150D01*
X7305087Y-28676150D02*
X7324134Y-28647579D01*
X7324134Y-28647579D02*
X7333658Y-28628531D01*
X7333658Y-28628531D02*
X7343182Y-28599960D01*
X7343182Y-28599960D02*
X7352706Y-28552341D01*
X7352706Y-28552341D02*
X7352706Y-28514246D01*
X7352706Y-28514246D02*
X7343182Y-28466627D01*
X7343182Y-28466627D02*
X7333658Y-28438055D01*
X7333658Y-28438055D02*
X7324134Y-28419008D01*
X7324134Y-28419008D02*
X7305087Y-28390436D01*
X7305087Y-28390436D02*
X7295563Y-28380912D01*
X7657468Y-28685674D02*
X7647944Y-28676150D01*
X7647944Y-28676150D02*
X7628896Y-28647579D01*
X7628896Y-28647579D02*
X7619372Y-28628531D01*
X7619372Y-28628531D02*
X7609849Y-28599960D01*
X7609849Y-28599960D02*
X7600325Y-28552341D01*
X7600325Y-28552341D02*
X7600325Y-28514246D01*
X7600325Y-28514246D02*
X7609849Y-28466627D01*
X7609849Y-28466627D02*
X7619372Y-28438055D01*
X7619372Y-28438055D02*
X7628896Y-28419008D01*
X7628896Y-28419008D02*
X7647944Y-28390436D01*
X7647944Y-28390436D02*
X7657468Y-28380912D01*
X7733658Y-28476150D02*
X7733658Y-28609484D01*
X7733658Y-28495198D02*
X7743182Y-28485674D01*
X7743182Y-28485674D02*
X7762230Y-28476150D01*
X7762230Y-28476150D02*
X7790801Y-28476150D01*
X7790801Y-28476150D02*
X7809849Y-28485674D01*
X7809849Y-28485674D02*
X7819372Y-28504722D01*
X7819372Y-28504722D02*
X7819372Y-28609484D01*
X7943182Y-28609484D02*
X7924134Y-28599960D01*
X7924134Y-28599960D02*
X7914611Y-28590436D01*
X7914611Y-28590436D02*
X7905087Y-28571388D01*
X7905087Y-28571388D02*
X7905087Y-28514246D01*
X7905087Y-28514246D02*
X7914611Y-28495198D01*
X7914611Y-28495198D02*
X7924134Y-28485674D01*
X7924134Y-28485674D02*
X7943182Y-28476150D01*
X7943182Y-28476150D02*
X7971753Y-28476150D01*
X7971753Y-28476150D02*
X7990801Y-28485674D01*
X7990801Y-28485674D02*
X8000325Y-28495198D01*
X8000325Y-28495198D02*
X8009849Y-28514246D01*
X8009849Y-28514246D02*
X8009849Y-28571388D01*
X8009849Y-28571388D02*
X8000325Y-28590436D01*
X8000325Y-28590436D02*
X7990801Y-28599960D01*
X7990801Y-28599960D02*
X7971753Y-28609484D01*
X7971753Y-28609484D02*
X7943182Y-28609484D01*
X8066992Y-28476150D02*
X8143182Y-28476150D01*
X8095563Y-28409484D02*
X8095563Y-28580912D01*
X8095563Y-28580912D02*
X8105087Y-28599960D01*
X8105087Y-28599960D02*
X8124134Y-28609484D01*
X8124134Y-28609484D02*
X8143182Y-28609484D01*
X8362230Y-28476150D02*
X8362230Y-28676150D01*
X8362230Y-28485674D02*
X8381277Y-28476150D01*
X8381277Y-28476150D02*
X8419373Y-28476150D01*
X8419373Y-28476150D02*
X8438420Y-28485674D01*
X8438420Y-28485674D02*
X8447944Y-28495198D01*
X8447944Y-28495198D02*
X8457468Y-28514246D01*
X8457468Y-28514246D02*
X8457468Y-28571388D01*
X8457468Y-28571388D02*
X8447944Y-28590436D01*
X8447944Y-28590436D02*
X8438420Y-28599960D01*
X8438420Y-28599960D02*
X8419373Y-28609484D01*
X8419373Y-28609484D02*
X8381277Y-28609484D01*
X8381277Y-28609484D02*
X8362230Y-28599960D01*
X8571754Y-28609484D02*
X8552706Y-28599960D01*
X8552706Y-28599960D02*
X8543182Y-28580912D01*
X8543182Y-28580912D02*
X8543182Y-28409484D01*
X8733658Y-28609484D02*
X8733658Y-28504722D01*
X8733658Y-28504722D02*
X8724135Y-28485674D01*
X8724135Y-28485674D02*
X8705087Y-28476150D01*
X8705087Y-28476150D02*
X8666992Y-28476150D01*
X8666992Y-28476150D02*
X8647944Y-28485674D01*
X8733658Y-28599960D02*
X8714611Y-28609484D01*
X8714611Y-28609484D02*
X8666992Y-28609484D01*
X8666992Y-28609484D02*
X8647944Y-28599960D01*
X8647944Y-28599960D02*
X8638420Y-28580912D01*
X8638420Y-28580912D02*
X8638420Y-28561865D01*
X8638420Y-28561865D02*
X8647944Y-28542817D01*
X8647944Y-28542817D02*
X8666992Y-28533293D01*
X8666992Y-28533293D02*
X8714611Y-28533293D01*
X8714611Y-28533293D02*
X8733658Y-28523769D01*
X8800325Y-28476150D02*
X8876515Y-28476150D01*
X8828896Y-28409484D02*
X8828896Y-28580912D01*
X8828896Y-28580912D02*
X8838420Y-28599960D01*
X8838420Y-28599960D02*
X8857468Y-28609484D01*
X8857468Y-28609484D02*
X8876515Y-28609484D01*
X9019373Y-28599960D02*
X9000325Y-28609484D01*
X9000325Y-28609484D02*
X8962230Y-28609484D01*
X8962230Y-28609484D02*
X8943182Y-28599960D01*
X8943182Y-28599960D02*
X8933658Y-28580912D01*
X8933658Y-28580912D02*
X8933658Y-28504722D01*
X8933658Y-28504722D02*
X8943182Y-28485674D01*
X8943182Y-28485674D02*
X8962230Y-28476150D01*
X8962230Y-28476150D02*
X9000325Y-28476150D01*
X9000325Y-28476150D02*
X9019373Y-28485674D01*
X9019373Y-28485674D02*
X9028896Y-28504722D01*
X9028896Y-28504722D02*
X9028896Y-28523769D01*
X9028896Y-28523769D02*
X8933658Y-28542817D01*
X9200325Y-28609484D02*
X9200325Y-28409484D01*
X9200325Y-28599960D02*
X9181277Y-28609484D01*
X9181277Y-28609484D02*
X9143182Y-28609484D01*
X9143182Y-28609484D02*
X9124135Y-28599960D01*
X9124135Y-28599960D02*
X9114611Y-28590436D01*
X9114611Y-28590436D02*
X9105087Y-28571388D01*
X9105087Y-28571388D02*
X9105087Y-28514246D01*
X9105087Y-28514246D02*
X9114611Y-28495198D01*
X9114611Y-28495198D02*
X9124135Y-28485674D01*
X9124135Y-28485674D02*
X9143182Y-28476150D01*
X9143182Y-28476150D02*
X9181277Y-28476150D01*
X9181277Y-28476150D02*
X9200325Y-28485674D01*
X9276516Y-28685674D02*
X9286039Y-28676150D01*
X9286039Y-28676150D02*
X9305087Y-28647579D01*
X9305087Y-28647579D02*
X9314611Y-28628531D01*
X9314611Y-28628531D02*
X9324135Y-28599960D01*
X9324135Y-28599960D02*
X9333658Y-28552341D01*
X9333658Y-28552341D02*
X9333658Y-28514246D01*
X9333658Y-28514246D02*
X9324135Y-28466627D01*
X9324135Y-28466627D02*
X9314611Y-28438055D01*
X9314611Y-28438055D02*
X9305087Y-28419008D01*
X9305087Y-28419008D02*
X9286039Y-28390436D01*
X9286039Y-28390436D02*
X9276516Y-28380912D01*
D12*
X2520500Y-28782000D02*
G75*
G02*
X2450500Y-28782000I-35000J0D01*
G01*
X2450500Y-28782000D02*
G75*
G02*
X2520500Y-28782000I35000J0D01*
G01*
D11*
X2819372Y-28673484D02*
X2838420Y-28673484D01*
X2838420Y-28673484D02*
X2857467Y-28683008D01*
X2857467Y-28683008D02*
X2866991Y-28692531D01*
X2866991Y-28692531D02*
X2876515Y-28711579D01*
X2876515Y-28711579D02*
X2886039Y-28749674D01*
X2886039Y-28749674D02*
X2886039Y-28797293D01*
X2886039Y-28797293D02*
X2876515Y-28835388D01*
X2876515Y-28835388D02*
X2866991Y-28854436D01*
X2866991Y-28854436D02*
X2857467Y-28863960D01*
X2857467Y-28863960D02*
X2838420Y-28873484D01*
X2838420Y-28873484D02*
X2819372Y-28873484D01*
X2819372Y-28873484D02*
X2800324Y-28863960D01*
X2800324Y-28863960D02*
X2790801Y-28854436D01*
X2790801Y-28854436D02*
X2781277Y-28835388D01*
X2781277Y-28835388D02*
X2771753Y-28797293D01*
X2771753Y-28797293D02*
X2771753Y-28749674D01*
X2771753Y-28749674D02*
X2781277Y-28711579D01*
X2781277Y-28711579D02*
X2790801Y-28692531D01*
X2790801Y-28692531D02*
X2800324Y-28683008D01*
X2800324Y-28683008D02*
X2819372Y-28673484D01*
X2971753Y-28854436D02*
X2981277Y-28863960D01*
X2981277Y-28863960D02*
X2971753Y-28873484D01*
X2971753Y-28873484D02*
X2962229Y-28863960D01*
X2962229Y-28863960D02*
X2971753Y-28854436D01*
X2971753Y-28854436D02*
X2971753Y-28873484D01*
X3047943Y-28673484D02*
X3181277Y-28673484D01*
X3181277Y-28673484D02*
X3095562Y-28873484D01*
X3295562Y-28673484D02*
X3314610Y-28673484D01*
X3314610Y-28673484D02*
X3333658Y-28683008D01*
X3333658Y-28683008D02*
X3343182Y-28692531D01*
X3343182Y-28692531D02*
X3352705Y-28711579D01*
X3352705Y-28711579D02*
X3362229Y-28749674D01*
X3362229Y-28749674D02*
X3362229Y-28797293D01*
X3362229Y-28797293D02*
X3352705Y-28835388D01*
X3352705Y-28835388D02*
X3343182Y-28854436D01*
X3343182Y-28854436D02*
X3333658Y-28863960D01*
X3333658Y-28863960D02*
X3314610Y-28873484D01*
X3314610Y-28873484D02*
X3295562Y-28873484D01*
X3295562Y-28873484D02*
X3276515Y-28863960D01*
X3276515Y-28863960D02*
X3266991Y-28854436D01*
X3266991Y-28854436D02*
X3257467Y-28835388D01*
X3257467Y-28835388D02*
X3247943Y-28797293D01*
X3247943Y-28797293D02*
X3247943Y-28749674D01*
X3247943Y-28749674D02*
X3257467Y-28711579D01*
X3257467Y-28711579D02*
X3266991Y-28692531D01*
X3266991Y-28692531D02*
X3276515Y-28683008D01*
X3276515Y-28683008D02*
X3295562Y-28673484D01*
X3486039Y-28673484D02*
X3505086Y-28673484D01*
X3505086Y-28673484D02*
X3524134Y-28683008D01*
X3524134Y-28683008D02*
X3533658Y-28692531D01*
X3533658Y-28692531D02*
X3543182Y-28711579D01*
X3543182Y-28711579D02*
X3552705Y-28749674D01*
X3552705Y-28749674D02*
X3552705Y-28797293D01*
X3552705Y-28797293D02*
X3543182Y-28835388D01*
X3543182Y-28835388D02*
X3533658Y-28854436D01*
X3533658Y-28854436D02*
X3524134Y-28863960D01*
X3524134Y-28863960D02*
X3505086Y-28873484D01*
X3505086Y-28873484D02*
X3486039Y-28873484D01*
X3486039Y-28873484D02*
X3466991Y-28863960D01*
X3466991Y-28863960D02*
X3457467Y-28854436D01*
X3457467Y-28854436D02*
X3447943Y-28835388D01*
X3447943Y-28835388D02*
X3438420Y-28797293D01*
X3438420Y-28797293D02*
X3438420Y-28749674D01*
X3438420Y-28749674D02*
X3447943Y-28711579D01*
X3447943Y-28711579D02*
X3457467Y-28692531D01*
X3457467Y-28692531D02*
X3466991Y-28683008D01*
X3466991Y-28683008D02*
X3486039Y-28673484D01*
X3638420Y-28873484D02*
X3638420Y-28740150D01*
X3638420Y-28759198D02*
X3647943Y-28749674D01*
X3647943Y-28749674D02*
X3666991Y-28740150D01*
X3666991Y-28740150D02*
X3695563Y-28740150D01*
X3695563Y-28740150D02*
X3714610Y-28749674D01*
X3714610Y-28749674D02*
X3724134Y-28768722D01*
X3724134Y-28768722D02*
X3724134Y-28873484D01*
X3724134Y-28768722D02*
X3733658Y-28749674D01*
X3733658Y-28749674D02*
X3752705Y-28740150D01*
X3752705Y-28740150D02*
X3781277Y-28740150D01*
X3781277Y-28740150D02*
X3800324Y-28749674D01*
X3800324Y-28749674D02*
X3809848Y-28768722D01*
X3809848Y-28768722D02*
X3809848Y-28873484D01*
X3905086Y-28873484D02*
X3905086Y-28740150D01*
X3905086Y-28759198D02*
X3914610Y-28749674D01*
X3914610Y-28749674D02*
X3933658Y-28740150D01*
X3933658Y-28740150D02*
X3962229Y-28740150D01*
X3962229Y-28740150D02*
X3981277Y-28749674D01*
X3981277Y-28749674D02*
X3990801Y-28768722D01*
X3990801Y-28768722D02*
X3990801Y-28873484D01*
X3990801Y-28768722D02*
X4000324Y-28749674D01*
X4000324Y-28749674D02*
X4019372Y-28740150D01*
X4019372Y-28740150D02*
X4047943Y-28740150D01*
X4047943Y-28740150D02*
X4066991Y-28749674D01*
X4066991Y-28749674D02*
X4076515Y-28768722D01*
X4076515Y-28768722D02*
X4076515Y-28873484D01*
X4466991Y-28663960D02*
X4295563Y-28921103D01*
X4724134Y-28673484D02*
X4743182Y-28673484D01*
X4743182Y-28673484D02*
X4762229Y-28683008D01*
X4762229Y-28683008D02*
X4771753Y-28692531D01*
X4771753Y-28692531D02*
X4781277Y-28711579D01*
X4781277Y-28711579D02*
X4790801Y-28749674D01*
X4790801Y-28749674D02*
X4790801Y-28797293D01*
X4790801Y-28797293D02*
X4781277Y-28835388D01*
X4781277Y-28835388D02*
X4771753Y-28854436D01*
X4771753Y-28854436D02*
X4762229Y-28863960D01*
X4762229Y-28863960D02*
X4743182Y-28873484D01*
X4743182Y-28873484D02*
X4724134Y-28873484D01*
X4724134Y-28873484D02*
X4705087Y-28863960D01*
X4705087Y-28863960D02*
X4695563Y-28854436D01*
X4695563Y-28854436D02*
X4686039Y-28835388D01*
X4686039Y-28835388D02*
X4676515Y-28797293D01*
X4676515Y-28797293D02*
X4676515Y-28749674D01*
X4676515Y-28749674D02*
X4686039Y-28711579D01*
X4686039Y-28711579D02*
X4695563Y-28692531D01*
X4695563Y-28692531D02*
X4705087Y-28683008D01*
X4705087Y-28683008D02*
X4724134Y-28673484D01*
X4876515Y-28854436D02*
X4886039Y-28863960D01*
X4886039Y-28863960D02*
X4876515Y-28873484D01*
X4876515Y-28873484D02*
X4866991Y-28863960D01*
X4866991Y-28863960D02*
X4876515Y-28854436D01*
X4876515Y-28854436D02*
X4876515Y-28873484D01*
X5009848Y-28673484D02*
X5028896Y-28673484D01*
X5028896Y-28673484D02*
X5047944Y-28683008D01*
X5047944Y-28683008D02*
X5057468Y-28692531D01*
X5057468Y-28692531D02*
X5066991Y-28711579D01*
X5066991Y-28711579D02*
X5076515Y-28749674D01*
X5076515Y-28749674D02*
X5076515Y-28797293D01*
X5076515Y-28797293D02*
X5066991Y-28835388D01*
X5066991Y-28835388D02*
X5057468Y-28854436D01*
X5057468Y-28854436D02*
X5047944Y-28863960D01*
X5047944Y-28863960D02*
X5028896Y-28873484D01*
X5028896Y-28873484D02*
X5009848Y-28873484D01*
X5009848Y-28873484D02*
X4990801Y-28863960D01*
X4990801Y-28863960D02*
X4981277Y-28854436D01*
X4981277Y-28854436D02*
X4971753Y-28835388D01*
X4971753Y-28835388D02*
X4962229Y-28797293D01*
X4962229Y-28797293D02*
X4962229Y-28749674D01*
X4962229Y-28749674D02*
X4971753Y-28711579D01*
X4971753Y-28711579D02*
X4981277Y-28692531D01*
X4981277Y-28692531D02*
X4990801Y-28683008D01*
X4990801Y-28683008D02*
X5009848Y-28673484D01*
X5152706Y-28692531D02*
X5162229Y-28683008D01*
X5162229Y-28683008D02*
X5181277Y-28673484D01*
X5181277Y-28673484D02*
X5228896Y-28673484D01*
X5228896Y-28673484D02*
X5247944Y-28683008D01*
X5247944Y-28683008D02*
X5257468Y-28692531D01*
X5257468Y-28692531D02*
X5266991Y-28711579D01*
X5266991Y-28711579D02*
X5266991Y-28730627D01*
X5266991Y-28730627D02*
X5257468Y-28759198D01*
X5257468Y-28759198D02*
X5143182Y-28873484D01*
X5143182Y-28873484D02*
X5266991Y-28873484D01*
X5333658Y-28673484D02*
X5466991Y-28673484D01*
X5466991Y-28673484D02*
X5381277Y-28873484D01*
X5628896Y-28673484D02*
X5590801Y-28673484D01*
X5590801Y-28673484D02*
X5571753Y-28683008D01*
X5571753Y-28683008D02*
X5562229Y-28692531D01*
X5562229Y-28692531D02*
X5543182Y-28721103D01*
X5543182Y-28721103D02*
X5533658Y-28759198D01*
X5533658Y-28759198D02*
X5533658Y-28835388D01*
X5533658Y-28835388D02*
X5543182Y-28854436D01*
X5543182Y-28854436D02*
X5552706Y-28863960D01*
X5552706Y-28863960D02*
X5571753Y-28873484D01*
X5571753Y-28873484D02*
X5609848Y-28873484D01*
X5609848Y-28873484D02*
X5628896Y-28863960D01*
X5628896Y-28863960D02*
X5638420Y-28854436D01*
X5638420Y-28854436D02*
X5647944Y-28835388D01*
X5647944Y-28835388D02*
X5647944Y-28787769D01*
X5647944Y-28787769D02*
X5638420Y-28768722D01*
X5638420Y-28768722D02*
X5628896Y-28759198D01*
X5628896Y-28759198D02*
X5609848Y-28749674D01*
X5609848Y-28749674D02*
X5571753Y-28749674D01*
X5571753Y-28749674D02*
X5552706Y-28759198D01*
X5552706Y-28759198D02*
X5543182Y-28768722D01*
X5543182Y-28768722D02*
X5533658Y-28787769D01*
X5724134Y-28673484D02*
X5724134Y-28711579D01*
X5800325Y-28673484D02*
X5800325Y-28711579D01*
X6095563Y-28949674D02*
X6086039Y-28940150D01*
X6086039Y-28940150D02*
X6066991Y-28911579D01*
X6066991Y-28911579D02*
X6057468Y-28892531D01*
X6057468Y-28892531D02*
X6047944Y-28863960D01*
X6047944Y-28863960D02*
X6038420Y-28816341D01*
X6038420Y-28816341D02*
X6038420Y-28778246D01*
X6038420Y-28778246D02*
X6047944Y-28730627D01*
X6047944Y-28730627D02*
X6057468Y-28702055D01*
X6057468Y-28702055D02*
X6066991Y-28683008D01*
X6066991Y-28683008D02*
X6086039Y-28654436D01*
X6086039Y-28654436D02*
X6095563Y-28644912D01*
X6162229Y-28692531D02*
X6171753Y-28683008D01*
X6171753Y-28683008D02*
X6190801Y-28673484D01*
X6190801Y-28673484D02*
X6238420Y-28673484D01*
X6238420Y-28673484D02*
X6257468Y-28683008D01*
X6257468Y-28683008D02*
X6266991Y-28692531D01*
X6266991Y-28692531D02*
X6276515Y-28711579D01*
X6276515Y-28711579D02*
X6276515Y-28730627D01*
X6276515Y-28730627D02*
X6266991Y-28759198D01*
X6266991Y-28759198D02*
X6152706Y-28873484D01*
X6152706Y-28873484D02*
X6276515Y-28873484D01*
X6514610Y-28873484D02*
X6514610Y-28673484D01*
X6600325Y-28873484D02*
X6600325Y-28768722D01*
X6600325Y-28768722D02*
X6590801Y-28749674D01*
X6590801Y-28749674D02*
X6571753Y-28740150D01*
X6571753Y-28740150D02*
X6543182Y-28740150D01*
X6543182Y-28740150D02*
X6524134Y-28749674D01*
X6524134Y-28749674D02*
X6514610Y-28759198D01*
X6724134Y-28873484D02*
X6705087Y-28863960D01*
X6705087Y-28863960D02*
X6695563Y-28854436D01*
X6695563Y-28854436D02*
X6686039Y-28835388D01*
X6686039Y-28835388D02*
X6686039Y-28778246D01*
X6686039Y-28778246D02*
X6695563Y-28759198D01*
X6695563Y-28759198D02*
X6705087Y-28749674D01*
X6705087Y-28749674D02*
X6724134Y-28740150D01*
X6724134Y-28740150D02*
X6752706Y-28740150D01*
X6752706Y-28740150D02*
X6771753Y-28749674D01*
X6771753Y-28749674D02*
X6781277Y-28759198D01*
X6781277Y-28759198D02*
X6790801Y-28778246D01*
X6790801Y-28778246D02*
X6790801Y-28835388D01*
X6790801Y-28835388D02*
X6781277Y-28854436D01*
X6781277Y-28854436D02*
X6771753Y-28863960D01*
X6771753Y-28863960D02*
X6752706Y-28873484D01*
X6752706Y-28873484D02*
X6724134Y-28873484D01*
X6905087Y-28873484D02*
X6886039Y-28863960D01*
X6886039Y-28863960D02*
X6876515Y-28844912D01*
X6876515Y-28844912D02*
X6876515Y-28673484D01*
X7057468Y-28863960D02*
X7038420Y-28873484D01*
X7038420Y-28873484D02*
X7000325Y-28873484D01*
X7000325Y-28873484D02*
X6981277Y-28863960D01*
X6981277Y-28863960D02*
X6971753Y-28844912D01*
X6971753Y-28844912D02*
X6971753Y-28768722D01*
X6971753Y-28768722D02*
X6981277Y-28749674D01*
X6981277Y-28749674D02*
X7000325Y-28740150D01*
X7000325Y-28740150D02*
X7038420Y-28740150D01*
X7038420Y-28740150D02*
X7057468Y-28749674D01*
X7057468Y-28749674D02*
X7066991Y-28768722D01*
X7066991Y-28768722D02*
X7066991Y-28787769D01*
X7066991Y-28787769D02*
X6971753Y-28806817D01*
X7143182Y-28863960D02*
X7162230Y-28873484D01*
X7162230Y-28873484D02*
X7200325Y-28873484D01*
X7200325Y-28873484D02*
X7219372Y-28863960D01*
X7219372Y-28863960D02*
X7228896Y-28844912D01*
X7228896Y-28844912D02*
X7228896Y-28835388D01*
X7228896Y-28835388D02*
X7219372Y-28816341D01*
X7219372Y-28816341D02*
X7200325Y-28806817D01*
X7200325Y-28806817D02*
X7171753Y-28806817D01*
X7171753Y-28806817D02*
X7152706Y-28797293D01*
X7152706Y-28797293D02*
X7143182Y-28778246D01*
X7143182Y-28778246D02*
X7143182Y-28768722D01*
X7143182Y-28768722D02*
X7152706Y-28749674D01*
X7152706Y-28749674D02*
X7171753Y-28740150D01*
X7171753Y-28740150D02*
X7200325Y-28740150D01*
X7200325Y-28740150D02*
X7219372Y-28749674D01*
X7295563Y-28949674D02*
X7305087Y-28940150D01*
X7305087Y-28940150D02*
X7324134Y-28911579D01*
X7324134Y-28911579D02*
X7333658Y-28892531D01*
X7333658Y-28892531D02*
X7343182Y-28863960D01*
X7343182Y-28863960D02*
X7352706Y-28816341D01*
X7352706Y-28816341D02*
X7352706Y-28778246D01*
X7352706Y-28778246D02*
X7343182Y-28730627D01*
X7343182Y-28730627D02*
X7333658Y-28702055D01*
X7333658Y-28702055D02*
X7324134Y-28683008D01*
X7324134Y-28683008D02*
X7305087Y-28654436D01*
X7305087Y-28654436D02*
X7295563Y-28644912D01*
X7657468Y-28949674D02*
X7647944Y-28940150D01*
X7647944Y-28940150D02*
X7628896Y-28911579D01*
X7628896Y-28911579D02*
X7619372Y-28892531D01*
X7619372Y-28892531D02*
X7609849Y-28863960D01*
X7609849Y-28863960D02*
X7600325Y-28816341D01*
X7600325Y-28816341D02*
X7600325Y-28778246D01*
X7600325Y-28778246D02*
X7609849Y-28730627D01*
X7609849Y-28730627D02*
X7619372Y-28702055D01*
X7619372Y-28702055D02*
X7628896Y-28683008D01*
X7628896Y-28683008D02*
X7647944Y-28654436D01*
X7647944Y-28654436D02*
X7657468Y-28644912D01*
X7733658Y-28740150D02*
X7733658Y-28873484D01*
X7733658Y-28759198D02*
X7743182Y-28749674D01*
X7743182Y-28749674D02*
X7762230Y-28740150D01*
X7762230Y-28740150D02*
X7790801Y-28740150D01*
X7790801Y-28740150D02*
X7809849Y-28749674D01*
X7809849Y-28749674D02*
X7819372Y-28768722D01*
X7819372Y-28768722D02*
X7819372Y-28873484D01*
X7943182Y-28873484D02*
X7924134Y-28863960D01*
X7924134Y-28863960D02*
X7914611Y-28854436D01*
X7914611Y-28854436D02*
X7905087Y-28835388D01*
X7905087Y-28835388D02*
X7905087Y-28778246D01*
X7905087Y-28778246D02*
X7914611Y-28759198D01*
X7914611Y-28759198D02*
X7924134Y-28749674D01*
X7924134Y-28749674D02*
X7943182Y-28740150D01*
X7943182Y-28740150D02*
X7971753Y-28740150D01*
X7971753Y-28740150D02*
X7990801Y-28749674D01*
X7990801Y-28749674D02*
X8000325Y-28759198D01*
X8000325Y-28759198D02*
X8009849Y-28778246D01*
X8009849Y-28778246D02*
X8009849Y-28835388D01*
X8009849Y-28835388D02*
X8000325Y-28854436D01*
X8000325Y-28854436D02*
X7990801Y-28863960D01*
X7990801Y-28863960D02*
X7971753Y-28873484D01*
X7971753Y-28873484D02*
X7943182Y-28873484D01*
X8066992Y-28740150D02*
X8143182Y-28740150D01*
X8095563Y-28673484D02*
X8095563Y-28844912D01*
X8095563Y-28844912D02*
X8105087Y-28863960D01*
X8105087Y-28863960D02*
X8124134Y-28873484D01*
X8124134Y-28873484D02*
X8143182Y-28873484D01*
X8362230Y-28740150D02*
X8362230Y-28940150D01*
X8362230Y-28749674D02*
X8381277Y-28740150D01*
X8381277Y-28740150D02*
X8419373Y-28740150D01*
X8419373Y-28740150D02*
X8438420Y-28749674D01*
X8438420Y-28749674D02*
X8447944Y-28759198D01*
X8447944Y-28759198D02*
X8457468Y-28778246D01*
X8457468Y-28778246D02*
X8457468Y-28835388D01*
X8457468Y-28835388D02*
X8447944Y-28854436D01*
X8447944Y-28854436D02*
X8438420Y-28863960D01*
X8438420Y-28863960D02*
X8419373Y-28873484D01*
X8419373Y-28873484D02*
X8381277Y-28873484D01*
X8381277Y-28873484D02*
X8362230Y-28863960D01*
X8571754Y-28873484D02*
X8552706Y-28863960D01*
X8552706Y-28863960D02*
X8543182Y-28844912D01*
X8543182Y-28844912D02*
X8543182Y-28673484D01*
X8733658Y-28873484D02*
X8733658Y-28768722D01*
X8733658Y-28768722D02*
X8724135Y-28749674D01*
X8724135Y-28749674D02*
X8705087Y-28740150D01*
X8705087Y-28740150D02*
X8666992Y-28740150D01*
X8666992Y-28740150D02*
X8647944Y-28749674D01*
X8733658Y-28863960D02*
X8714611Y-28873484D01*
X8714611Y-28873484D02*
X8666992Y-28873484D01*
X8666992Y-28873484D02*
X8647944Y-28863960D01*
X8647944Y-28863960D02*
X8638420Y-28844912D01*
X8638420Y-28844912D02*
X8638420Y-28825865D01*
X8638420Y-28825865D02*
X8647944Y-28806817D01*
X8647944Y-28806817D02*
X8666992Y-28797293D01*
X8666992Y-28797293D02*
X8714611Y-28797293D01*
X8714611Y-28797293D02*
X8733658Y-28787769D01*
X8800325Y-28740150D02*
X8876515Y-28740150D01*
X8828896Y-28673484D02*
X8828896Y-28844912D01*
X8828896Y-28844912D02*
X8838420Y-28863960D01*
X8838420Y-28863960D02*
X8857468Y-28873484D01*
X8857468Y-28873484D02*
X8876515Y-28873484D01*
X9019373Y-28863960D02*
X9000325Y-28873484D01*
X9000325Y-28873484D02*
X8962230Y-28873484D01*
X8962230Y-28873484D02*
X8943182Y-28863960D01*
X8943182Y-28863960D02*
X8933658Y-28844912D01*
X8933658Y-28844912D02*
X8933658Y-28768722D01*
X8933658Y-28768722D02*
X8943182Y-28749674D01*
X8943182Y-28749674D02*
X8962230Y-28740150D01*
X8962230Y-28740150D02*
X9000325Y-28740150D01*
X9000325Y-28740150D02*
X9019373Y-28749674D01*
X9019373Y-28749674D02*
X9028896Y-28768722D01*
X9028896Y-28768722D02*
X9028896Y-28787769D01*
X9028896Y-28787769D02*
X8933658Y-28806817D01*
X9200325Y-28873484D02*
X9200325Y-28673484D01*
X9200325Y-28863960D02*
X9181277Y-28873484D01*
X9181277Y-28873484D02*
X9143182Y-28873484D01*
X9143182Y-28873484D02*
X9124135Y-28863960D01*
X9124135Y-28863960D02*
X9114611Y-28854436D01*
X9114611Y-28854436D02*
X9105087Y-28835388D01*
X9105087Y-28835388D02*
X9105087Y-28778246D01*
X9105087Y-28778246D02*
X9114611Y-28759198D01*
X9114611Y-28759198D02*
X9124135Y-28749674D01*
X9124135Y-28749674D02*
X9143182Y-28740150D01*
X9143182Y-28740150D02*
X9181277Y-28740150D01*
X9181277Y-28740150D02*
X9200325Y-28749674D01*
X9276516Y-28949674D02*
X9286039Y-28940150D01*
X9286039Y-28940150D02*
X9305087Y-28911579D01*
X9305087Y-28911579D02*
X9314611Y-28892531D01*
X9314611Y-28892531D02*
X9324135Y-28863960D01*
X9324135Y-28863960D02*
X9333658Y-28816341D01*
X9333658Y-28816341D02*
X9333658Y-28778246D01*
X9333658Y-28778246D02*
X9324135Y-28730627D01*
X9324135Y-28730627D02*
X9314611Y-28702055D01*
X9314611Y-28702055D02*
X9305087Y-28683008D01*
X9305087Y-28683008D02*
X9286039Y-28654436D01*
X9286039Y-28654436D02*
X9276516Y-28644912D01*
D12*
X2483000Y-29008500D02*
X2483000Y-29083500D01*
X2445500Y-29046000D02*
X2520500Y-29046000D01*
D11*
X2819372Y-28937484D02*
X2838420Y-28937484D01*
X2838420Y-28937484D02*
X2857467Y-28947008D01*
X2857467Y-28947008D02*
X2866991Y-28956531D01*
X2866991Y-28956531D02*
X2876515Y-28975579D01*
X2876515Y-28975579D02*
X2886039Y-29013674D01*
X2886039Y-29013674D02*
X2886039Y-29061293D01*
X2886039Y-29061293D02*
X2876515Y-29099388D01*
X2876515Y-29099388D02*
X2866991Y-29118436D01*
X2866991Y-29118436D02*
X2857467Y-29127960D01*
X2857467Y-29127960D02*
X2838420Y-29137484D01*
X2838420Y-29137484D02*
X2819372Y-29137484D01*
X2819372Y-29137484D02*
X2800324Y-29127960D01*
X2800324Y-29127960D02*
X2790801Y-29118436D01*
X2790801Y-29118436D02*
X2781277Y-29099388D01*
X2781277Y-29099388D02*
X2771753Y-29061293D01*
X2771753Y-29061293D02*
X2771753Y-29013674D01*
X2771753Y-29013674D02*
X2781277Y-28975579D01*
X2781277Y-28975579D02*
X2790801Y-28956531D01*
X2790801Y-28956531D02*
X2800324Y-28947008D01*
X2800324Y-28947008D02*
X2819372Y-28937484D01*
X2971753Y-29118436D02*
X2981277Y-29127960D01*
X2981277Y-29127960D02*
X2971753Y-29137484D01*
X2971753Y-29137484D02*
X2962229Y-29127960D01*
X2962229Y-29127960D02*
X2971753Y-29118436D01*
X2971753Y-29118436D02*
X2971753Y-29137484D01*
X3047943Y-28937484D02*
X3181277Y-28937484D01*
X3181277Y-28937484D02*
X3095562Y-29137484D01*
X3352705Y-28937484D02*
X3257467Y-28937484D01*
X3257467Y-28937484D02*
X3247943Y-29032722D01*
X3247943Y-29032722D02*
X3257467Y-29023198D01*
X3257467Y-29023198D02*
X3276515Y-29013674D01*
X3276515Y-29013674D02*
X3324134Y-29013674D01*
X3324134Y-29013674D02*
X3343182Y-29023198D01*
X3343182Y-29023198D02*
X3352705Y-29032722D01*
X3352705Y-29032722D02*
X3362229Y-29051769D01*
X3362229Y-29051769D02*
X3362229Y-29099388D01*
X3362229Y-29099388D02*
X3352705Y-29118436D01*
X3352705Y-29118436D02*
X3343182Y-29127960D01*
X3343182Y-29127960D02*
X3324134Y-29137484D01*
X3324134Y-29137484D02*
X3276515Y-29137484D01*
X3276515Y-29137484D02*
X3257467Y-29127960D01*
X3257467Y-29127960D02*
X3247943Y-29118436D01*
X3486039Y-28937484D02*
X3505086Y-28937484D01*
X3505086Y-28937484D02*
X3524134Y-28947008D01*
X3524134Y-28947008D02*
X3533658Y-28956531D01*
X3533658Y-28956531D02*
X3543182Y-28975579D01*
X3543182Y-28975579D02*
X3552705Y-29013674D01*
X3552705Y-29013674D02*
X3552705Y-29061293D01*
X3552705Y-29061293D02*
X3543182Y-29099388D01*
X3543182Y-29099388D02*
X3533658Y-29118436D01*
X3533658Y-29118436D02*
X3524134Y-29127960D01*
X3524134Y-29127960D02*
X3505086Y-29137484D01*
X3505086Y-29137484D02*
X3486039Y-29137484D01*
X3486039Y-29137484D02*
X3466991Y-29127960D01*
X3466991Y-29127960D02*
X3457467Y-29118436D01*
X3457467Y-29118436D02*
X3447943Y-29099388D01*
X3447943Y-29099388D02*
X3438420Y-29061293D01*
X3438420Y-29061293D02*
X3438420Y-29013674D01*
X3438420Y-29013674D02*
X3447943Y-28975579D01*
X3447943Y-28975579D02*
X3457467Y-28956531D01*
X3457467Y-28956531D02*
X3466991Y-28947008D01*
X3466991Y-28947008D02*
X3486039Y-28937484D01*
X3638420Y-29137484D02*
X3638420Y-29004150D01*
X3638420Y-29023198D02*
X3647943Y-29013674D01*
X3647943Y-29013674D02*
X3666991Y-29004150D01*
X3666991Y-29004150D02*
X3695563Y-29004150D01*
X3695563Y-29004150D02*
X3714610Y-29013674D01*
X3714610Y-29013674D02*
X3724134Y-29032722D01*
X3724134Y-29032722D02*
X3724134Y-29137484D01*
X3724134Y-29032722D02*
X3733658Y-29013674D01*
X3733658Y-29013674D02*
X3752705Y-29004150D01*
X3752705Y-29004150D02*
X3781277Y-29004150D01*
X3781277Y-29004150D02*
X3800324Y-29013674D01*
X3800324Y-29013674D02*
X3809848Y-29032722D01*
X3809848Y-29032722D02*
X3809848Y-29137484D01*
X3905086Y-29137484D02*
X3905086Y-29004150D01*
X3905086Y-29023198D02*
X3914610Y-29013674D01*
X3914610Y-29013674D02*
X3933658Y-29004150D01*
X3933658Y-29004150D02*
X3962229Y-29004150D01*
X3962229Y-29004150D02*
X3981277Y-29013674D01*
X3981277Y-29013674D02*
X3990801Y-29032722D01*
X3990801Y-29032722D02*
X3990801Y-29137484D01*
X3990801Y-29032722D02*
X4000324Y-29013674D01*
X4000324Y-29013674D02*
X4019372Y-29004150D01*
X4019372Y-29004150D02*
X4047943Y-29004150D01*
X4047943Y-29004150D02*
X4066991Y-29013674D01*
X4066991Y-29013674D02*
X4076515Y-29032722D01*
X4076515Y-29032722D02*
X4076515Y-29137484D01*
X4466991Y-28927960D02*
X4295563Y-29185103D01*
X4724134Y-28937484D02*
X4743182Y-28937484D01*
X4743182Y-28937484D02*
X4762229Y-28947008D01*
X4762229Y-28947008D02*
X4771753Y-28956531D01*
X4771753Y-28956531D02*
X4781277Y-28975579D01*
X4781277Y-28975579D02*
X4790801Y-29013674D01*
X4790801Y-29013674D02*
X4790801Y-29061293D01*
X4790801Y-29061293D02*
X4781277Y-29099388D01*
X4781277Y-29099388D02*
X4771753Y-29118436D01*
X4771753Y-29118436D02*
X4762229Y-29127960D01*
X4762229Y-29127960D02*
X4743182Y-29137484D01*
X4743182Y-29137484D02*
X4724134Y-29137484D01*
X4724134Y-29137484D02*
X4705087Y-29127960D01*
X4705087Y-29127960D02*
X4695563Y-29118436D01*
X4695563Y-29118436D02*
X4686039Y-29099388D01*
X4686039Y-29099388D02*
X4676515Y-29061293D01*
X4676515Y-29061293D02*
X4676515Y-29013674D01*
X4676515Y-29013674D02*
X4686039Y-28975579D01*
X4686039Y-28975579D02*
X4695563Y-28956531D01*
X4695563Y-28956531D02*
X4705087Y-28947008D01*
X4705087Y-28947008D02*
X4724134Y-28937484D01*
X4876515Y-29118436D02*
X4886039Y-29127960D01*
X4886039Y-29127960D02*
X4876515Y-29137484D01*
X4876515Y-29137484D02*
X4866991Y-29127960D01*
X4866991Y-29127960D02*
X4876515Y-29118436D01*
X4876515Y-29118436D02*
X4876515Y-29137484D01*
X5009848Y-28937484D02*
X5028896Y-28937484D01*
X5028896Y-28937484D02*
X5047944Y-28947008D01*
X5047944Y-28947008D02*
X5057468Y-28956531D01*
X5057468Y-28956531D02*
X5066991Y-28975579D01*
X5066991Y-28975579D02*
X5076515Y-29013674D01*
X5076515Y-29013674D02*
X5076515Y-29061293D01*
X5076515Y-29061293D02*
X5066991Y-29099388D01*
X5066991Y-29099388D02*
X5057468Y-29118436D01*
X5057468Y-29118436D02*
X5047944Y-29127960D01*
X5047944Y-29127960D02*
X5028896Y-29137484D01*
X5028896Y-29137484D02*
X5009848Y-29137484D01*
X5009848Y-29137484D02*
X4990801Y-29127960D01*
X4990801Y-29127960D02*
X4981277Y-29118436D01*
X4981277Y-29118436D02*
X4971753Y-29099388D01*
X4971753Y-29099388D02*
X4962229Y-29061293D01*
X4962229Y-29061293D02*
X4962229Y-29013674D01*
X4962229Y-29013674D02*
X4971753Y-28975579D01*
X4971753Y-28975579D02*
X4981277Y-28956531D01*
X4981277Y-28956531D02*
X4990801Y-28947008D01*
X4990801Y-28947008D02*
X5009848Y-28937484D01*
X5152706Y-28956531D02*
X5162229Y-28947008D01*
X5162229Y-28947008D02*
X5181277Y-28937484D01*
X5181277Y-28937484D02*
X5228896Y-28937484D01*
X5228896Y-28937484D02*
X5247944Y-28947008D01*
X5247944Y-28947008D02*
X5257468Y-28956531D01*
X5257468Y-28956531D02*
X5266991Y-28975579D01*
X5266991Y-28975579D02*
X5266991Y-28994627D01*
X5266991Y-28994627D02*
X5257468Y-29023198D01*
X5257468Y-29023198D02*
X5143182Y-29137484D01*
X5143182Y-29137484D02*
X5266991Y-29137484D01*
X5362229Y-29137484D02*
X5400325Y-29137484D01*
X5400325Y-29137484D02*
X5419372Y-29127960D01*
X5419372Y-29127960D02*
X5428896Y-29118436D01*
X5428896Y-29118436D02*
X5447944Y-29089865D01*
X5447944Y-29089865D02*
X5457468Y-29051769D01*
X5457468Y-29051769D02*
X5457468Y-28975579D01*
X5457468Y-28975579D02*
X5447944Y-28956531D01*
X5447944Y-28956531D02*
X5438420Y-28947008D01*
X5438420Y-28947008D02*
X5419372Y-28937484D01*
X5419372Y-28937484D02*
X5381277Y-28937484D01*
X5381277Y-28937484D02*
X5362229Y-28947008D01*
X5362229Y-28947008D02*
X5352706Y-28956531D01*
X5352706Y-28956531D02*
X5343182Y-28975579D01*
X5343182Y-28975579D02*
X5343182Y-29023198D01*
X5343182Y-29023198D02*
X5352706Y-29042246D01*
X5352706Y-29042246D02*
X5362229Y-29051769D01*
X5362229Y-29051769D02*
X5381277Y-29061293D01*
X5381277Y-29061293D02*
X5419372Y-29061293D01*
X5419372Y-29061293D02*
X5438420Y-29051769D01*
X5438420Y-29051769D02*
X5447944Y-29042246D01*
X5447944Y-29042246D02*
X5457468Y-29023198D01*
X5638420Y-28937484D02*
X5543182Y-28937484D01*
X5543182Y-28937484D02*
X5533658Y-29032722D01*
X5533658Y-29032722D02*
X5543182Y-29023198D01*
X5543182Y-29023198D02*
X5562229Y-29013674D01*
X5562229Y-29013674D02*
X5609848Y-29013674D01*
X5609848Y-29013674D02*
X5628896Y-29023198D01*
X5628896Y-29023198D02*
X5638420Y-29032722D01*
X5638420Y-29032722D02*
X5647944Y-29051769D01*
X5647944Y-29051769D02*
X5647944Y-29099388D01*
X5647944Y-29099388D02*
X5638420Y-29118436D01*
X5638420Y-29118436D02*
X5628896Y-29127960D01*
X5628896Y-29127960D02*
X5609848Y-29137484D01*
X5609848Y-29137484D02*
X5562229Y-29137484D01*
X5562229Y-29137484D02*
X5543182Y-29127960D01*
X5543182Y-29127960D02*
X5533658Y-29118436D01*
X5724134Y-28937484D02*
X5724134Y-28975579D01*
X5800325Y-28937484D02*
X5800325Y-28975579D01*
X6095563Y-29213674D02*
X6086039Y-29204150D01*
X6086039Y-29204150D02*
X6066991Y-29175579D01*
X6066991Y-29175579D02*
X6057468Y-29156531D01*
X6057468Y-29156531D02*
X6047944Y-29127960D01*
X6047944Y-29127960D02*
X6038420Y-29080341D01*
X6038420Y-29080341D02*
X6038420Y-29042246D01*
X6038420Y-29042246D02*
X6047944Y-28994627D01*
X6047944Y-28994627D02*
X6057468Y-28966055D01*
X6057468Y-28966055D02*
X6066991Y-28947008D01*
X6066991Y-28947008D02*
X6086039Y-28918436D01*
X6086039Y-28918436D02*
X6095563Y-28908912D01*
X6257468Y-29004150D02*
X6257468Y-29137484D01*
X6209848Y-28927960D02*
X6162229Y-29070817D01*
X6162229Y-29070817D02*
X6286039Y-29070817D01*
X6514610Y-29137484D02*
X6514610Y-28937484D01*
X6600325Y-29137484D02*
X6600325Y-29032722D01*
X6600325Y-29032722D02*
X6590801Y-29013674D01*
X6590801Y-29013674D02*
X6571753Y-29004150D01*
X6571753Y-29004150D02*
X6543182Y-29004150D01*
X6543182Y-29004150D02*
X6524134Y-29013674D01*
X6524134Y-29013674D02*
X6514610Y-29023198D01*
X6724134Y-29137484D02*
X6705087Y-29127960D01*
X6705087Y-29127960D02*
X6695563Y-29118436D01*
X6695563Y-29118436D02*
X6686039Y-29099388D01*
X6686039Y-29099388D02*
X6686039Y-29042246D01*
X6686039Y-29042246D02*
X6695563Y-29023198D01*
X6695563Y-29023198D02*
X6705087Y-29013674D01*
X6705087Y-29013674D02*
X6724134Y-29004150D01*
X6724134Y-29004150D02*
X6752706Y-29004150D01*
X6752706Y-29004150D02*
X6771753Y-29013674D01*
X6771753Y-29013674D02*
X6781277Y-29023198D01*
X6781277Y-29023198D02*
X6790801Y-29042246D01*
X6790801Y-29042246D02*
X6790801Y-29099388D01*
X6790801Y-29099388D02*
X6781277Y-29118436D01*
X6781277Y-29118436D02*
X6771753Y-29127960D01*
X6771753Y-29127960D02*
X6752706Y-29137484D01*
X6752706Y-29137484D02*
X6724134Y-29137484D01*
X6905087Y-29137484D02*
X6886039Y-29127960D01*
X6886039Y-29127960D02*
X6876515Y-29108912D01*
X6876515Y-29108912D02*
X6876515Y-28937484D01*
X7057468Y-29127960D02*
X7038420Y-29137484D01*
X7038420Y-29137484D02*
X7000325Y-29137484D01*
X7000325Y-29137484D02*
X6981277Y-29127960D01*
X6981277Y-29127960D02*
X6971753Y-29108912D01*
X6971753Y-29108912D02*
X6971753Y-29032722D01*
X6971753Y-29032722D02*
X6981277Y-29013674D01*
X6981277Y-29013674D02*
X7000325Y-29004150D01*
X7000325Y-29004150D02*
X7038420Y-29004150D01*
X7038420Y-29004150D02*
X7057468Y-29013674D01*
X7057468Y-29013674D02*
X7066991Y-29032722D01*
X7066991Y-29032722D02*
X7066991Y-29051769D01*
X7066991Y-29051769D02*
X6971753Y-29070817D01*
X7143182Y-29127960D02*
X7162230Y-29137484D01*
X7162230Y-29137484D02*
X7200325Y-29137484D01*
X7200325Y-29137484D02*
X7219372Y-29127960D01*
X7219372Y-29127960D02*
X7228896Y-29108912D01*
X7228896Y-29108912D02*
X7228896Y-29099388D01*
X7228896Y-29099388D02*
X7219372Y-29080341D01*
X7219372Y-29080341D02*
X7200325Y-29070817D01*
X7200325Y-29070817D02*
X7171753Y-29070817D01*
X7171753Y-29070817D02*
X7152706Y-29061293D01*
X7152706Y-29061293D02*
X7143182Y-29042246D01*
X7143182Y-29042246D02*
X7143182Y-29032722D01*
X7143182Y-29032722D02*
X7152706Y-29013674D01*
X7152706Y-29013674D02*
X7171753Y-29004150D01*
X7171753Y-29004150D02*
X7200325Y-29004150D01*
X7200325Y-29004150D02*
X7219372Y-29013674D01*
X7295563Y-29213674D02*
X7305087Y-29204150D01*
X7305087Y-29204150D02*
X7324134Y-29175579D01*
X7324134Y-29175579D02*
X7333658Y-29156531D01*
X7333658Y-29156531D02*
X7343182Y-29127960D01*
X7343182Y-29127960D02*
X7352706Y-29080341D01*
X7352706Y-29080341D02*
X7352706Y-29042246D01*
X7352706Y-29042246D02*
X7343182Y-28994627D01*
X7343182Y-28994627D02*
X7333658Y-28966055D01*
X7333658Y-28966055D02*
X7324134Y-28947008D01*
X7324134Y-28947008D02*
X7305087Y-28918436D01*
X7305087Y-28918436D02*
X7295563Y-28908912D01*
X7657468Y-29213674D02*
X7647944Y-29204150D01*
X7647944Y-29204150D02*
X7628896Y-29175579D01*
X7628896Y-29175579D02*
X7619372Y-29156531D01*
X7619372Y-29156531D02*
X7609849Y-29127960D01*
X7609849Y-29127960D02*
X7600325Y-29080341D01*
X7600325Y-29080341D02*
X7600325Y-29042246D01*
X7600325Y-29042246D02*
X7609849Y-28994627D01*
X7609849Y-28994627D02*
X7619372Y-28966055D01*
X7619372Y-28966055D02*
X7628896Y-28947008D01*
X7628896Y-28947008D02*
X7647944Y-28918436D01*
X7647944Y-28918436D02*
X7657468Y-28908912D01*
X7733658Y-29004150D02*
X7733658Y-29137484D01*
X7733658Y-29023198D02*
X7743182Y-29013674D01*
X7743182Y-29013674D02*
X7762230Y-29004150D01*
X7762230Y-29004150D02*
X7790801Y-29004150D01*
X7790801Y-29004150D02*
X7809849Y-29013674D01*
X7809849Y-29013674D02*
X7819372Y-29032722D01*
X7819372Y-29032722D02*
X7819372Y-29137484D01*
X7943182Y-29137484D02*
X7924134Y-29127960D01*
X7924134Y-29127960D02*
X7914611Y-29118436D01*
X7914611Y-29118436D02*
X7905087Y-29099388D01*
X7905087Y-29099388D02*
X7905087Y-29042246D01*
X7905087Y-29042246D02*
X7914611Y-29023198D01*
X7914611Y-29023198D02*
X7924134Y-29013674D01*
X7924134Y-29013674D02*
X7943182Y-29004150D01*
X7943182Y-29004150D02*
X7971753Y-29004150D01*
X7971753Y-29004150D02*
X7990801Y-29013674D01*
X7990801Y-29013674D02*
X8000325Y-29023198D01*
X8000325Y-29023198D02*
X8009849Y-29042246D01*
X8009849Y-29042246D02*
X8009849Y-29099388D01*
X8009849Y-29099388D02*
X8000325Y-29118436D01*
X8000325Y-29118436D02*
X7990801Y-29127960D01*
X7990801Y-29127960D02*
X7971753Y-29137484D01*
X7971753Y-29137484D02*
X7943182Y-29137484D01*
X8066992Y-29004150D02*
X8143182Y-29004150D01*
X8095563Y-28937484D02*
X8095563Y-29108912D01*
X8095563Y-29108912D02*
X8105087Y-29127960D01*
X8105087Y-29127960D02*
X8124134Y-29137484D01*
X8124134Y-29137484D02*
X8143182Y-29137484D01*
X8362230Y-29004150D02*
X8362230Y-29204150D01*
X8362230Y-29013674D02*
X8381277Y-29004150D01*
X8381277Y-29004150D02*
X8419373Y-29004150D01*
X8419373Y-29004150D02*
X8438420Y-29013674D01*
X8438420Y-29013674D02*
X8447944Y-29023198D01*
X8447944Y-29023198D02*
X8457468Y-29042246D01*
X8457468Y-29042246D02*
X8457468Y-29099388D01*
X8457468Y-29099388D02*
X8447944Y-29118436D01*
X8447944Y-29118436D02*
X8438420Y-29127960D01*
X8438420Y-29127960D02*
X8419373Y-29137484D01*
X8419373Y-29137484D02*
X8381277Y-29137484D01*
X8381277Y-29137484D02*
X8362230Y-29127960D01*
X8571754Y-29137484D02*
X8552706Y-29127960D01*
X8552706Y-29127960D02*
X8543182Y-29108912D01*
X8543182Y-29108912D02*
X8543182Y-28937484D01*
X8733658Y-29137484D02*
X8733658Y-29032722D01*
X8733658Y-29032722D02*
X8724135Y-29013674D01*
X8724135Y-29013674D02*
X8705087Y-29004150D01*
X8705087Y-29004150D02*
X8666992Y-29004150D01*
X8666992Y-29004150D02*
X8647944Y-29013674D01*
X8733658Y-29127960D02*
X8714611Y-29137484D01*
X8714611Y-29137484D02*
X8666992Y-29137484D01*
X8666992Y-29137484D02*
X8647944Y-29127960D01*
X8647944Y-29127960D02*
X8638420Y-29108912D01*
X8638420Y-29108912D02*
X8638420Y-29089865D01*
X8638420Y-29089865D02*
X8647944Y-29070817D01*
X8647944Y-29070817D02*
X8666992Y-29061293D01*
X8666992Y-29061293D02*
X8714611Y-29061293D01*
X8714611Y-29061293D02*
X8733658Y-29051769D01*
X8800325Y-29004150D02*
X8876515Y-29004150D01*
X8828896Y-28937484D02*
X8828896Y-29108912D01*
X8828896Y-29108912D02*
X8838420Y-29127960D01*
X8838420Y-29127960D02*
X8857468Y-29137484D01*
X8857468Y-29137484D02*
X8876515Y-29137484D01*
X9019373Y-29127960D02*
X9000325Y-29137484D01*
X9000325Y-29137484D02*
X8962230Y-29137484D01*
X8962230Y-29137484D02*
X8943182Y-29127960D01*
X8943182Y-29127960D02*
X8933658Y-29108912D01*
X8933658Y-29108912D02*
X8933658Y-29032722D01*
X8933658Y-29032722D02*
X8943182Y-29013674D01*
X8943182Y-29013674D02*
X8962230Y-29004150D01*
X8962230Y-29004150D02*
X9000325Y-29004150D01*
X9000325Y-29004150D02*
X9019373Y-29013674D01*
X9019373Y-29013674D02*
X9028896Y-29032722D01*
X9028896Y-29032722D02*
X9028896Y-29051769D01*
X9028896Y-29051769D02*
X8933658Y-29070817D01*
X9200325Y-29137484D02*
X9200325Y-28937484D01*
X9200325Y-29127960D02*
X9181277Y-29137484D01*
X9181277Y-29137484D02*
X9143182Y-29137484D01*
X9143182Y-29137484D02*
X9124135Y-29127960D01*
X9124135Y-29127960D02*
X9114611Y-29118436D01*
X9114611Y-29118436D02*
X9105087Y-29099388D01*
X9105087Y-29099388D02*
X9105087Y-29042246D01*
X9105087Y-29042246D02*
X9114611Y-29023198D01*
X9114611Y-29023198D02*
X9124135Y-29013674D01*
X9124135Y-29013674D02*
X9143182Y-29004150D01*
X9143182Y-29004150D02*
X9181277Y-29004150D01*
X9181277Y-29004150D02*
X9200325Y-29013674D01*
X9276516Y-29213674D02*
X9286039Y-29204150D01*
X9286039Y-29204150D02*
X9305087Y-29175579D01*
X9305087Y-29175579D02*
X9314611Y-29156531D01*
X9314611Y-29156531D02*
X9324135Y-29127960D01*
X9324135Y-29127960D02*
X9333658Y-29080341D01*
X9333658Y-29080341D02*
X9333658Y-29042246D01*
X9333658Y-29042246D02*
X9324135Y-28994627D01*
X9324135Y-28994627D02*
X9314611Y-28966055D01*
X9314611Y-28966055D02*
X9305087Y-28947008D01*
X9305087Y-28947008D02*
X9286039Y-28918436D01*
X9286039Y-28918436D02*
X9276516Y-28908912D01*
M02*
